<?xml version="1.0" encoding="utf-8"?>
<!-- Generator: Adobe Illustrator 24.1.1, SVG Export Plug-In . SVG Version: 6.00 Build 0)  -->
<svg version="1.1" xmlns="http://www.w3.org/2000/svg" xmlns:xlink="http://www.w3.org/1999/xlink" x="0px" y="0px"
	 viewBox="0 0 200 200" style="enable-background:new 0 0 200 200;" xml:space="preserve">
<style type="text/css">
	.st0{display:none;}
	.st1{fill:#D81F27;}
	.st2{fill:none;stroke:#D81F27;stroke-width:22;stroke-miterlimit:10;}
	.st3{display:inline;fill:none;stroke:#D81F27;stroke-width:7;stroke-linecap:round;stroke-miterlimit:10;}
	.st4{display:inline;fill:none;stroke:#D81F27;stroke-width:7;stroke-miterlimit:10;}
</style>
<g id="Layer_1" class="st0">
	
		<image style="display:inline;overflow:visible;" width="416" height="416" xlink:href="5B05345C.jpg"  transform="matrix(1 0 0 -1 -107.5053 190.3936)">
	</image>
</g>
<g id="Layer_2">
	<g>
		<path class="st1" d="M140.9,69.5l-12.7-7.5l40.5-15.6l4.4,42.2l-12.9-7.7c-2.2,4.5-15,25.9-25.9,41.5c-9,13-18,20.5-34.6,19.9
			c-16.1-0.6-26.3-7.4-36.3-22C48.8,98.9,32.6,69.5,26.9,59.5l18.9-10.9c10.9,18.8,24,39.7,33.7,55c6.9,10.9,12.6,17,20.6,17
			c6.5,0,12.9-6.6,18.5-15C127.2,93,135.6,78.5,140.9,69.5z"/>
		<line class="st2" x1="173.5" y1="153.6" x2="26.5" y2="153.6"/>
	</g>
</g>
<g id="Layer_3" class="st0">
	<line class="st3" x1="140.8" y1="5.2" x2="218.6" y2="-50.1"/>
	<path class="st4" d="M148.2-0.2c14.4,20.3,37.3,34.1,63.6,36.1"/>
	<path class="st4" d="M159.4,13.7c5.2-0.1,11.8,1.4,18.3,4.5c8.3,3.9,14.6,9.5,17.2,14.7"/>
</g>
</svg>
