<?xml version="1.0" encoding="UTF-8"?><svg xmlns="http://www.w3.org/2000/svg" viewBox="0 0 584.2 499.79"><defs><style>.e{stroke:#7d59a5;}.e,.f,.g,.h,.i,.j,.k,.l{fill:none;stroke-miterlimit:10;}.e,.f,.h,.j,.k{stroke-width:6px;}.f{stroke:#d03d3a;}.g{stroke:#494f51;stroke-width:5px;}.h{stroke:#37b5d5;}.i{stroke-dasharray:0 0 5 5;}.i,.l{stroke:#ed1c24;stroke-width:2px;}.j{stroke:#427dc0;}.k{stroke:#b4d471;}.m{fill:#231f20;}</style></defs><g id="a"><line class="g" x1="45.58" y1="26.73" x2="45.58" y2="417.07"/><line class="g" x1="519.28" y1="410.05" x2="45.58" y2="410.05"/><g><path class="m" d="M31.8,443.45l4.52-8.95v-.07h-5.27v-1.89h7.65v1.91l-4.53,9h-2.38Z"/><path class="m" d="M44.33,443.69c-.92,0-1.7-.23-2.36-.68s-1.17-1.1-1.52-1.94c-.35-.85-.53-1.87-.52-3.06,0-1.19,.18-2.2,.53-3.04,.35-.84,.86-1.48,1.52-1.92,.66-.44,1.44-.66,2.36-.66s1.7,.22,2.36,.66,1.17,1.08,1.52,1.92c.35,.84,.53,1.85,.53,3.04,0,1.2-.18,2.22-.53,3.07-.35,.85-.86,1.5-1.52,1.94-.66,.45-1.44,.67-2.36,.67Zm0-1.91c.62,0,1.12-.31,1.5-.94,.37-.63,.56-1.57,.55-2.83,0-.83-.08-1.52-.25-2.07-.17-.55-.41-.96-.71-1.24-.31-.28-.67-.42-1.08-.42-.62,0-1.12,.31-1.49,.93-.37,.62-.56,1.55-.56,2.79,0,.84,.08,1.54,.25,2.1,.17,.56,.41,.98,.72,1.26,.31,.28,.67,.42,1.09,.42Z"/><path class="m" d="M54.65,443.69c-.92,0-1.7-.23-2.36-.68s-1.17-1.1-1.52-1.94c-.35-.85-.53-1.87-.52-3.06,0-1.19,.18-2.2,.53-3.04,.35-.84,.86-1.48,1.52-1.92,.66-.44,1.44-.66,2.36-.66s1.7,.22,2.36,.66,1.17,1.08,1.52,1.92c.35,.84,.53,1.85,.53,3.04,0,1.2-.18,2.22-.53,3.07-.35,.85-.86,1.5-1.52,1.94-.66,.45-1.44,.67-2.36,.67Zm0-1.91c.62,0,1.12-.31,1.5-.94,.37-.63,.56-1.57,.55-2.83,0-.83-.08-1.52-.25-2.07-.17-.55-.41-.96-.71-1.24-.31-.28-.67-.42-1.08-.42-.62,0-1.12,.31-1.49,.93-.37,.62-.56,1.55-.56,2.79,0,.84,.08,1.54,.25,2.1,.17,.56,.41,.98,.72,1.26,.31,.28,.67,.42,1.09,.42Z"/></g><g><path class="m" d="M227.25,474.85l-3.12-10.91h2.52l1.81,7.58h.09l1.99-7.58h2.16l1.99,7.6h.1l1.81-7.6h2.52l-3.12,10.91h-2.25l-2.08-7.13h-.09l-2.07,7.13h-2.25Z"/><path class="m" d="M241.74,475c-.52,0-.99-.09-1.4-.27-.41-.18-.73-.45-.97-.81-.24-.36-.35-.81-.35-1.35,0-.45,.08-.84,.25-1.15,.17-.31,.39-.56,.68-.75,.29-.19,.62-.33,.98-.43s.75-.16,1.16-.2c.48-.05,.86-.1,1.15-.14,.29-.04,.5-.11,.63-.2s.2-.22,.2-.39v-.03c0-.34-.11-.6-.32-.78-.21-.18-.51-.28-.9-.28-.41,0-.73,.09-.98,.27-.24,.18-.4,.4-.48,.67l-2.1-.17c.11-.5,.32-.93,.63-1.29,.31-.36,.72-.64,1.21-.84,.5-.2,1.07-.29,1.72-.29,.45,0,.89,.05,1.31,.16,.42,.11,.79,.27,1.11,.5,.32,.22,.58,.51,.77,.86,.19,.35,.28,.77,.28,1.25v5.52h-2.15v-1.13h-.06c-.13,.26-.31,.48-.53,.67s-.48,.34-.79,.45c-.31,.11-.67,.16-1.07,.16Zm.65-1.57c.33,0,.63-.07,.88-.2,.26-.13,.46-.31,.6-.54,.15-.23,.22-.48,.22-.77v-.87c-.07,.05-.17,.09-.29,.13-.12,.04-.26,.07-.41,.1-.15,.03-.31,.06-.46,.08-.15,.02-.29,.04-.42,.06-.27,.04-.5,.1-.7,.19-.2,.08-.35,.2-.46,.34-.11,.14-.17,.32-.17,.54,0,.31,.11,.54,.34,.71,.23,.16,.51,.24,.86,.24Z"/><path class="m" d="M255.44,466.66l-2.86,8.18h-2.56l-2.86-8.18h2.4l1.7,5.85h.08l1.69-5.85h2.4Z"/><path class="m" d="M260.05,475.01c-.84,0-1.57-.17-2.17-.51s-1.07-.83-1.4-1.46c-.33-.63-.49-1.38-.49-2.24s.16-1.58,.49-2.22,.79-1.13,1.38-1.49c.59-.35,1.29-.53,2.1-.53,.54,0,1.04,.09,1.51,.26,.47,.17,.88,.43,1.23,.78,.35,.34,.62,.78,.82,1.3s.29,1.13,.29,1.82v.62h-6.91v-1.41h4.77c0-.33-.07-.62-.21-.87-.14-.25-.34-.45-.59-.59-.25-.14-.54-.22-.87-.22s-.65,.08-.91,.24-.47,.37-.62,.63-.23,.56-.23,.88v1.34c0,.4,.08,.75,.23,1.05,.15,.29,.36,.52,.64,.68,.28,.16,.61,.24,.99,.24,.25,0,.48-.04,.69-.11s.39-.18,.54-.32c.15-.14,.26-.32,.34-.52l2.1,.14c-.11,.5-.32,.94-.65,1.32s-.75,.67-1.27,.87c-.52,.21-1.11,.31-1.79,.31Z"/><path class="m" d="M267.56,463.94v10.91h-2.27v-10.91h2.27Z"/><path class="m" d="M273.1,475.01c-.84,0-1.57-.17-2.17-.51s-1.07-.83-1.4-1.46c-.33-.63-.49-1.38-.49-2.24s.16-1.58,.49-2.22,.79-1.13,1.38-1.49c.59-.35,1.29-.53,2.1-.53,.54,0,1.04,.09,1.51,.26,.47,.17,.88,.43,1.23,.78,.35,.34,.62,.78,.82,1.3s.29,1.13,.29,1.82v.62h-6.91v-1.41h4.77c0-.33-.07-.62-.21-.87-.14-.25-.34-.45-.59-.59-.25-.14-.54-.22-.87-.22s-.65,.08-.91,.24-.47,.37-.62,.63-.23,.56-.23,.88v1.34c0,.4,.08,.75,.23,1.05,.15,.29,.36,.52,.64,.68,.28,.16,.61,.24,.99,.24,.25,0,.48-.04,.69-.11s.39-.18,.54-.32c.15-.14,.26-.32,.34-.52l2.1,.14c-.11,.5-.32,.94-.65,1.32s-.75,.67-1.27,.87c-.52,.21-1.11,.31-1.79,.31Z"/><path class="m" d="M280.61,470.11v4.73h-2.27v-8.18h2.16v1.44h.1c.18-.48,.48-.85,.91-1.13,.43-.28,.94-.42,1.55-.42,.57,0,1.06,.12,1.49,.37,.42,.25,.75,.6,.99,1.06s.35,1.01,.35,1.64v5.21h-2.27v-4.8c0-.5-.12-.89-.38-1.17s-.62-.42-1.07-.42c-.31,0-.57,.07-.81,.2-.23,.13-.41,.32-.54,.57-.13,.25-.2,.55-.2,.9Z"/><path class="m" d="M291.35,478.08c-.74,0-1.36-.1-1.89-.3-.52-.2-.94-.47-1.25-.82s-.51-.73-.6-1.16l2.1-.28c.06,.16,.17,.32,.3,.46,.14,.14,.32,.26,.55,.34,.23,.09,.51,.13,.84,.13,.49,0,.9-.12,1.22-.36,.32-.24,.48-.64,.48-1.2v-1.5h-.1c-.1,.23-.25,.44-.45,.64-.2,.2-.45,.37-.77,.5s-.69,.19-1.12,.19c-.61,0-1.17-.14-1.68-.43s-.9-.72-1.2-1.32c-.3-.59-.44-1.34-.44-2.25s.15-1.7,.45-2.32c.3-.62,.7-1.09,1.21-1.4,.5-.31,1.05-.46,1.65-.46,.46,0,.84,.08,1.15,.23,.31,.15,.56,.35,.75,.58,.19,.23,.34,.45,.44,.67h.09v-1.37h2.25v8.26c0,.7-.17,1.28-.51,1.75s-.81,.82-1.41,1.06c-.6,.24-1.29,.35-2.07,.35Zm.05-5.06c.37,0,.68-.09,.93-.27,.25-.18,.45-.45,.59-.79s.21-.75,.21-1.23-.07-.9-.2-1.25c-.14-.35-.33-.63-.59-.82s-.57-.29-.93-.29-.69,.1-.94,.3-.45,.48-.58,.83c-.13,.35-.2,.76-.2,1.23s.07,.88,.2,1.22c.13,.34,.33,.61,.58,.79s.57,.28,.94,.28Z"/><path class="m" d="M301.51,466.66v1.7h-4.93v-1.7h4.93Zm-3.81-1.96h2.27v7.63c0,.21,.03,.37,.1,.49,.06,.12,.15,.2,.27,.24,.12,.05,.25,.07,.4,.07,.11,0,.21,0,.32-.03s.19-.04,.25-.05l.36,1.69c-.11,.04-.27,.08-.48,.13-.21,.05-.46,.08-.75,.09-.55,.02-1.03-.05-1.44-.22s-.73-.43-.96-.78c-.23-.35-.34-.8-.34-1.33v-7.93Z"/><path class="m" d="M305.43,470.11v4.73h-2.27v-10.91h2.21v4.17h.1c.18-.48,.48-.86,.9-1.14,.41-.27,.93-.41,1.55-.41,.57,0,1.06,.12,1.49,.37,.42,.25,.75,.6,.99,1.06,.24,.46,.35,1.01,.35,1.65v5.21h-2.27v-4.8c0-.5-.12-.9-.38-1.18-.26-.28-.62-.42-1.08-.42-.31,0-.58,.07-.82,.2-.24,.13-.42,.32-.55,.57-.13,.25-.2,.55-.21,.9Z"/><path class="m" d="M316.5,470.47c0-1.32,.18-2.54,.53-3.65,.35-1.11,.89-2.14,1.62-3.09h2.17c-.28,.35-.53,.78-.77,1.29s-.45,1.06-.62,1.67c-.18,.6-.32,1.23-.42,1.87s-.15,1.28-.15,1.92c0,.84,.09,1.69,.26,2.55s.41,1.65,.7,2.39,.63,1.34,1,1.81h-2.17c-.73-.95-1.27-1.98-1.62-3.09s-.53-2.33-.53-3.65Z"/><path class="m" d="M324.41,470.11v4.73h-2.27v-8.18h2.16v1.44h.1c.18-.48,.48-.85,.91-1.13,.43-.28,.94-.42,1.55-.42,.57,0,1.06,.12,1.49,.37,.42,.25,.75,.6,.99,1.06s.35,1.01,.35,1.64v5.21h-2.27v-4.8c0-.5-.12-.89-.38-1.17-.26-.28-.62-.42-1.07-.42-.31,0-.57,.07-.81,.2-.23,.13-.41,.32-.54,.57-.13,.25-.2,.55-.2,.9Z"/><path class="m" d="M331.46,474.85v-8.18h2.16v1.44h.1c.17-.48,.45-.86,.85-1.13,.4-.28,.87-.42,1.43-.42s1.04,.14,1.43,.42c.39,.28,.66,.66,.79,1.13h.08c.17-.47,.47-.84,.91-1.13s.96-.42,1.56-.42c.76,0,1.38,.24,1.86,.73,.48,.49,.72,1.17,.72,2.06v5.5h-2.26v-5.05c0-.46-.12-.8-.36-1.02-.24-.23-.54-.34-.91-.34-.41,0-.73,.13-.96,.39s-.35,.6-.35,1.03v5h-2.2v-5.1c0-.4-.12-.72-.34-.96-.23-.24-.53-.36-.9-.36-.25,0-.48,.06-.68,.19-.2,.13-.36,.3-.48,.53s-.18,.49-.18,.79v4.91h-2.27Z"/><path class="m" d="M348.97,470.47c0,1.32-.18,2.54-.53,3.65-.35,1.11-.89,2.14-1.62,3.09h-2.17c.28-.35,.53-.78,.77-1.29,.24-.51,.45-1.06,.62-1.66,.18-.6,.32-1.23,.42-1.87,.1-.65,.15-1.29,.15-1.92,0-.84-.09-1.69-.26-2.55-.17-.86-.41-1.65-.7-2.39-.3-.73-.63-1.33-1-1.8h2.17c.73,.95,1.27,1.98,1.62,3.09,.35,1.11,.53,2.33,.53,3.65Z"/></g><g><path class="m" d="M34.5,252.9h-10.91v-4.3c0-.82,.15-1.53,.44-2.11,.29-.58,.71-1.03,1.24-1.34,.53-.31,1.16-.46,1.88-.46s1.35,.16,1.87,.47,.92,.76,1.2,1.36c.28,.59,.42,1.31,.42,2.14v2.88h-1.85v-2.51c0-.44-.06-.81-.18-1.1-.12-.29-.3-.51-.54-.65-.24-.14-.54-.22-.9-.22s-.67,.07-.92,.22c-.25,.14-.44,.36-.57,.65s-.19,.66-.19,1.11v1.56h9.02v2.31Zm-4.96-5.89l4.96-2.71v2.55l-4.96,2.65v-2.49Z"/><path class="m" d="M34.66,239.51c0,.84-.17,1.57-.51,2.17s-.83,1.07-1.46,1.4c-.63,.33-1.38,.49-2.24,.49s-1.58-.16-2.22-.49c-.64-.33-1.13-.79-1.49-1.38-.35-.59-.53-1.29-.53-2.1,0-.54,.09-1.04,.26-1.51,.17-.47,.43-.88,.78-1.22s.78-.62,1.3-.82,1.13-.29,1.82-.29h.62v6.91h-1.41v-4.77c-.33,0-.62,.07-.87,.21-.25,.14-.45,.34-.59,.59-.14,.25-.22,.54-.22,.87s.08,.65,.24,.91,.37,.47,.63,.62c.26,.15,.56,.22,.88,.23h1.34c.4,0,.75-.08,1.05-.23,.29-.15,.52-.37,.68-.64,.16-.28,.24-.61,.24-.99,0-.25-.04-.48-.11-.69s-.18-.39-.32-.54c-.14-.15-.32-.26-.52-.34l.14-2.1c.5,.11,.94,.32,1.32,.65s.67,.75,.87,1.27c.21,.52,.31,1.11,.31,1.79Z"/><path class="m" d="M34.5,233.76h-8.77c-.59,0-1.08-.12-1.48-.35-.39-.23-.68-.55-.88-.96-.19-.41-.29-.87-.29-1.38,0-.35,.03-.67,.08-.96,.05-.29,.1-.51,.14-.65l1.7,.41c-.03,.09-.05,.2-.08,.33-.02,.13-.04,.26-.04,.4,0,.33,.08,.57,.23,.7s.37,.2,.65,.2h8.73v2.26Zm-8.18-3.89h1.7v5.05h-1.7v-5.05Z"/><path class="m" d="M23.59,226.22h10.91v2.27h-10.91v-2.27Z"/><path class="m" d="M34.66,220.68c0,.84-.17,1.57-.51,2.17s-.83,1.07-1.46,1.4c-.63,.33-1.38,.49-2.24,.49s-1.58-.16-2.22-.49-1.13-.79-1.49-1.38c-.35-.6-.53-1.29-.53-2.1,0-.54,.09-1.04,.26-1.51,.17-.47,.43-.88,.78-1.23s.78-.62,1.3-.82,1.13-.29,1.82-.29h.62v6.91h-1.41v-4.77c-.33,0-.62,.07-.87,.21-.25,.14-.45,.34-.59,.59-.14,.25-.22,.54-.22,.87s.08,.65,.24,.91c.16,.27,.37,.47,.63,.62s.56,.23,.88,.23h1.34c.4,0,.75-.07,1.05-.23,.29-.15,.52-.36,.68-.64,.16-.28,.24-.61,.24-.99,0-.25-.04-.48-.11-.69-.07-.21-.18-.39-.32-.54-.14-.15-.32-.26-.52-.34l.14-2.1c.5,.11,.94,.32,1.32,.65,.38,.33,.67,.75,.87,1.27,.21,.52,.31,1.11,.31,1.79Z"/><path class="m" d="M34.66,211.74c0,.84-.18,1.56-.54,2.16-.36,.6-.85,1.06-1.49,1.39-.64,.32-1.37,.48-2.19,.48s-1.57-.16-2.21-.49c-.63-.33-1.13-.79-1.49-1.39-.36-.6-.54-1.31-.54-2.14,0-.71,.13-1.34,.39-1.88,.26-.54,.62-.96,1.09-1.27s1.02-.48,1.65-.52v2.14c-.41,.06-.74,.22-.99,.48-.25,.26-.38,.59-.38,1.01,0,.35,.09,.66,.28,.92,.19,.26,.47,.46,.83,.61,.36,.14,.8,.22,1.32,.22s.97-.07,1.33-.22c.37-.14,.64-.35,.84-.61,.19-.26,.29-.57,.29-.92,0-.26-.05-.49-.16-.7-.11-.21-.26-.38-.47-.52-.21-.14-.45-.23-.74-.27v-2.14c.62,.04,1.17,.21,1.65,.51,.47,.3,.84,.72,1.11,1.25,.27,.53,.4,1.16,.4,1.89Z"/><path class="m" d="M24.36,206.09v-2.27h7.63c.21,0,.37-.03,.49-.1,.12-.06,.2-.15,.24-.27,.05-.12,.07-.25,.07-.4,0-.11,0-.21-.03-.32s-.04-.19-.05-.25l1.69-.36c.04,.11,.08,.27,.13,.48,.05,.21,.08,.46,.09,.75,.02,.55-.05,1.03-.22,1.44s-.43,.73-.78,.96c-.35,.23-.8,.34-1.33,.34h-7.93Zm1.96-3.81h1.7v4.93h-1.7v-4.93Z"/><path class="m" d="M25.26,199.66c0,.34-.11,.63-.34,.87s-.49,.36-.81,.36-.59-.12-.81-.36c-.23-.24-.34-.53-.34-.86s.11-.63,.34-.87c.22-.24,.49-.36,.81-.36s.59,.12,.81,.36c.23,.24,.34,.53,.34,.87Zm9.24,1.14h-8.18v-2.27h8.18v2.27Z"/><path class="m" d="M34.66,193.03c0,.83-.18,1.54-.53,2.14-.35,.6-.85,1.07-1.48,1.39-.63,.33-1.37,.49-2.21,.49s-1.58-.16-2.22-.49-1.13-.79-1.48-1.39c-.35-.6-.53-1.32-.53-2.14s.18-1.54,.53-2.14c.35-.6,.85-1.07,1.48-1.39s1.37-.49,2.22-.49,1.57,.16,2.21,.49c.63,.33,1.13,.79,1.48,1.39,.35,.6,.53,1.32,.53,2.14Zm-1.76-.01c0-.38-.11-.69-.32-.94s-.51-.44-.88-.57c-.37-.13-.8-.19-1.27-.19s-.9,.06-1.27,.19c-.37,.13-.67,.32-.88,.57s-.33,.57-.33,.94,.11,.7,.33,.96,.51,.45,.88,.58c.37,.13,.8,.19,1.27,.19s.9-.06,1.27-.19c.37-.13,.67-.32,.88-.58s.32-.58,.32-.96Z"/><path class="m" d="M29.77,185.25h4.73v2.27h-8.18v-2.16h1.44v-.1c-.48-.18-.85-.48-1.13-.91-.28-.43-.42-.94-.42-1.55,0-.57,.12-1.06,.37-1.49,.25-.42,.6-.75,1.06-.99s1.01-.35,1.64-.35h5.21v2.27h-4.8c-.5,0-.89,.12-1.17,.38s-.42,.62-.42,1.07c0,.31,.07,.57,.2,.81,.13,.23,.32,.41,.57,.54,.25,.13,.55,.2,.9,.2Z"/><path class="m" d="M29.04,174.21c-1.32,0-2.54-.18-3.65-.53-1.11-.35-2.14-.89-3.09-1.62v-2.17c.35,.28,.78,.53,1.29,.77,.51,.24,1.06,.45,1.66,.62,.6,.18,1.23,.32,1.87,.42s1.28,.15,1.92,.15c.84,0,1.69-.09,2.55-.26,.86-.17,1.65-.41,2.39-.7,.74-.3,1.34-.63,1.81-1v2.17c-.95,.73-1.98,1.27-3.09,1.62-1.11,.35-2.33,.53-3.65,.53Z"/><path class="m" d="M26.21,168.22h-.58c-.44,0-.84-.09-1.21-.28-.37-.19-.66-.46-.88-.82-.22-.36-.33-.79-.33-1.3s.11-.97,.33-1.32c.22-.35,.51-.62,.88-.81,.37-.18,.77-.28,1.21-.28h.58c.44,0,.84,.09,1.21,.28,.37,.19,.66,.46,.88,.81,.22,.36,.33,.79,.33,1.31s-.11,.96-.33,1.31c-.22,.36-.51,.63-.88,.81-.36,.18-.76,.27-1.2,.27Zm8.29-.7l-10.91-7.5v-1.4l10.91,7.5v1.4Zm-8.86-.86h.58c.26,0,.5-.06,.72-.18,.22-.12,.33-.34,.33-.65s-.11-.55-.33-.67c-.22-.12-.46-.18-.72-.18h-.58c-.26,0-.5,.06-.72,.17s-.34,.34-.34,.68c0,.32,.11,.53,.34,.66,.23,.12,.47,.18,.72,.18Zm6.82-4.04h-.58c-.44,0-.84-.09-1.21-.28s-.66-.46-.88-.81c-.22-.36-.33-.79-.33-1.31s.11-.96,.33-1.32c.22-.36,.51-.63,.88-.81,.37-.18,.77-.27,1.21-.27h.58c.44,0,.84,.09,1.21,.28,.37,.19,.66,.46,.88,.81,.22,.36,.33,.8,.33,1.31s-.11,.96-.33,1.32c-.22,.35-.52,.62-.88,.81s-.77,.28-1.21,.28Zm-.58-1.55h.58c.25,0,.49-.06,.71-.18s.34-.35,.34-.67-.11-.54-.33-.66c-.22-.12-.46-.18-.72-.18h-.58c-.26,0-.5,.06-.72,.17-.22,.11-.34,.34-.34,.67s.11,.54,.34,.67c.22,.12,.46,.19,.72,.19Z"/><path class="m" d="M29.04,151.86c1.32,0,2.54,.18,3.65,.53,1.11,.35,2.14,.89,3.09,1.62v2.17c-.35-.28-.78-.53-1.29-.77-.51-.24-1.06-.45-1.67-.62-.6-.18-1.23-.32-1.87-.42s-1.29-.15-1.92-.15c-.84,0-1.69,.09-2.55,.26-.86,.17-1.65,.41-2.39,.7-.73,.3-1.33,.63-1.8,1v-2.17c.95-.73,1.98-1.27,3.09-1.62,1.11-.35,2.33-.53,3.65-.53Z"/></g><g><path class="m" d="M108.33,432.4c.56,0,1.1,.09,1.62,.28,.52,.19,.99,.49,1.4,.9s.73,.96,.97,1.64c.24,.68,.36,1.51,.36,2.5,0,.93-.1,1.75-.31,2.48-.21,.73-.51,1.34-.89,1.85-.39,.51-.85,.89-1.4,1.16-.55,.26-1.16,.4-1.83,.4-.73,0-1.37-.14-1.93-.42s-1.01-.67-1.35-1.16c-.34-.49-.54-1.04-.62-1.65h2.27c.09,.4,.28,.71,.56,.92,.28,.22,.64,.33,1.05,.33,.71,0,1.25-.31,1.62-.93,.37-.62,.56-1.47,.56-2.55h-.07c-.16,.32-.38,.59-.66,.82-.28,.23-.59,.41-.95,.53-.36,.12-.74,.19-1.14,.19-.64,0-1.22-.15-1.72-.45s-.9-.72-1.19-1.25c-.29-.53-.44-1.13-.44-1.81,0-.73,.17-1.38,.51-1.96,.34-.57,.82-1.02,1.43-1.34,.61-.33,1.33-.49,2.14-.48Zm.02,1.81c-.36,0-.68,.08-.96,.26-.28,.17-.5,.4-.66,.69-.16,.29-.24,.61-.24,.96,0,.36,.08,.68,.24,.97,.16,.29,.38,.51,.65,.68,.28,.17,.59,.25,.95,.25,.27,0,.51-.05,.74-.15,.23-.1,.43-.24,.59-.41,.17-.18,.3-.38,.4-.61s.14-.48,.14-.74c0-.34-.09-.66-.25-.95-.16-.29-.38-.52-.66-.69s-.6-.26-.95-.26Z"/><path class="m" d="M118.57,443.69c-.92,0-1.7-.23-2.36-.68s-1.17-1.1-1.52-1.94c-.35-.85-.53-1.87-.52-3.06,0-1.19,.18-2.2,.53-3.04,.35-.84,.86-1.48,1.52-1.92,.66-.44,1.44-.66,2.36-.66s1.7,.22,2.36,.66,1.17,1.08,1.52,1.92c.35,.84,.53,1.85,.53,3.04,0,1.2-.18,2.22-.53,3.07-.35,.85-.86,1.5-1.52,1.94-.66,.45-1.44,.67-2.36,.67Zm0-1.91c.62,0,1.12-.31,1.5-.94,.37-.63,.56-1.57,.55-2.83,0-.83-.08-1.52-.25-2.07-.17-.55-.41-.96-.71-1.24-.31-.28-.67-.42-1.08-.42-.62,0-1.12,.31-1.49,.93-.37,.62-.56,1.55-.56,2.79,0,.84,.08,1.54,.25,2.1,.17,.56,.41,.98,.72,1.26,.31,.28,.67,.42,1.09,.42Z"/><path class="m" d="M128.89,443.69c-.92,0-1.7-.23-2.36-.68s-1.17-1.1-1.52-1.94c-.35-.85-.53-1.87-.52-3.06,0-1.19,.18-2.2,.53-3.04,.35-.84,.86-1.48,1.52-1.92,.66-.44,1.44-.66,2.36-.66s1.7,.22,2.36,.66,1.17,1.08,1.52,1.92c.35,.84,.53,1.85,.53,3.04,0,1.2-.18,2.22-.53,3.07-.35,.85-.86,1.5-1.52,1.94-.66,.45-1.44,.67-2.36,.67Zm0-1.91c.62,0,1.12-.31,1.5-.94,.37-.63,.56-1.57,.55-2.83,0-.83-.08-1.52-.25-2.07-.17-.55-.41-.96-.71-1.24-.31-.28-.67-.42-1.08-.42-.62,0-1.12,.31-1.49,.93-.37,.62-.56,1.55-.56,2.79,0,.84,.08,1.54,.25,2.1,.17,.56,.41,.98,.72,1.26,.31,.28,.67,.42,1.09,.42Z"/></g><g><path class="m" d="M179.72,432.55v10.91h-2.31v-8.72h-.06l-2.5,1.57v-2.05l2.7-1.71h2.17Z"/><path class="m" d="M187.06,432.55v10.91h-2.31v-8.72h-.06l-2.5,1.57v-2.05l2.7-1.71h2.17Z"/><path class="m" d="M193.93,443.69c-.92,0-1.7-.23-2.36-.68s-1.17-1.1-1.52-1.94c-.35-.85-.53-1.87-.52-3.06,0-1.19,.18-2.2,.53-3.04,.35-.84,.86-1.48,1.52-1.92,.66-.44,1.44-.66,2.36-.66s1.7,.22,2.36,.66,1.17,1.08,1.52,1.92c.35,.84,.53,1.85,.53,3.04,0,1.2-.18,2.22-.53,3.07-.35,.85-.86,1.5-1.52,1.94-.66,.45-1.44,.67-2.36,.67Zm0-1.91c.62,0,1.12-.31,1.5-.94,.37-.63,.56-1.57,.55-2.83,0-.83-.08-1.52-.25-2.07-.17-.55-.41-.96-.71-1.24-.31-.28-.67-.42-1.08-.42-.62,0-1.12,.31-1.49,.93-.37,.62-.56,1.55-.56,2.79,0,.84,.08,1.54,.25,2.1,.17,.56,.41,.98,.72,1.26,.31,.28,.67,.42,1.09,.42Z"/><path class="m" d="M204.25,443.69c-.92,0-1.7-.23-2.36-.68s-1.17-1.1-1.52-1.94c-.35-.85-.53-1.87-.52-3.06,0-1.19,.18-2.2,.53-3.04,.35-.84,.86-1.48,1.52-1.92,.66-.44,1.44-.66,2.36-.66s1.7,.22,2.36,.66,1.17,1.08,1.52,1.92c.35,.84,.53,1.85,.53,3.04,0,1.2-.18,2.22-.53,3.07-.35,.85-.86,1.5-1.52,1.94-.66,.45-1.44,.67-2.36,.67Zm0-1.91c.62,0,1.12-.31,1.5-.94,.37-.63,.56-1.57,.55-2.83,0-.83-.08-1.52-.25-2.07-.17-.55-.41-.96-.71-1.24-.31-.28-.67-.42-1.08-.42-.62,0-1.12,.31-1.49,.93-.37,.62-.56,1.55-.56,2.79,0,.84,.08,1.54,.25,2.1,.17,.56,.41,.98,.72,1.26,.31,.28,.67,.42,1.09,.42Z"/></g><g><path class="m" d="M252.42,432.55v10.91h-2.31v-8.72h-.06l-2.5,1.57v-2.05l2.7-1.71h2.17Z"/><path class="m" d="M259.04,443.6c-.8,0-1.5-.14-2.12-.41s-1.11-.66-1.46-1.14c-.36-.49-.54-1.04-.55-1.68h2.32c.01,.27,.1,.5,.26,.7,.16,.2,.38,.36,.65,.47,.27,.11,.57,.17,.91,.17s.66-.06,.93-.19c.27-.12,.48-.3,.63-.52,.15-.22,.23-.47,.23-.76s-.08-.55-.24-.77-.39-.4-.69-.53c-.3-.13-.66-.19-1.07-.19h-1.02v-1.69h1.02c.35,0,.66-.06,.92-.18,.27-.12,.48-.29,.63-.5,.15-.21,.22-.47,.22-.75s-.06-.51-.19-.72c-.13-.21-.31-.37-.54-.49-.23-.12-.5-.18-.81-.18s-.6,.06-.86,.17c-.26,.11-.47,.27-.62,.48s-.24,.45-.25,.72h-2.21c.01-.63,.19-1.18,.54-1.66,.35-.48,.82-.85,1.41-1.13,.59-.27,1.26-.41,2.01-.41s1.41,.14,1.98,.41c.56,.27,1,.64,1.32,1.11,.31,.46,.47,.98,.47,1.56,0,.61-.19,1.12-.57,1.53-.38,.41-.88,.67-1.49,.78v.09c.8,.1,1.41,.38,1.84,.83,.42,.45,.63,1.02,.63,1.7,0,.62-.17,1.17-.54,1.66-.36,.48-.86,.86-1.49,1.14-.63,.28-1.36,.42-2.17,.42Z"/><path class="m" d="M269.18,443.69c-.92,0-1.7-.23-2.36-.68s-1.17-1.1-1.52-1.94c-.35-.85-.53-1.87-.52-3.06,0-1.19,.18-2.2,.53-3.04,.35-.84,.86-1.48,1.52-1.92,.66-.44,1.44-.66,2.36-.66s1.7,.22,2.36,.66,1.17,1.08,1.52,1.92c.35,.84,.53,1.85,.53,3.04,0,1.2-.18,2.22-.53,3.07-.35,.85-.86,1.5-1.52,1.94-.66,.45-1.44,.67-2.36,.67Zm0-1.91c.62,0,1.12-.31,1.5-.94,.37-.63,.56-1.57,.55-2.83,0-.83-.08-1.52-.25-2.07-.17-.55-.41-.96-.71-1.24-.31-.28-.67-.42-1.08-.42-.62,0-1.12,.31-1.49,.93-.37,.62-.56,1.55-.56,2.79,0,.84,.08,1.54,.25,2.1,.17,.56,.41,.98,.72,1.26,.31,.28,.67,.42,1.09,.42Z"/><path class="m" d="M279.5,443.69c-.92,0-1.7-.23-2.36-.68s-1.17-1.1-1.52-1.94c-.35-.85-.53-1.87-.52-3.06,0-1.19,.18-2.2,.53-3.04,.35-.84,.86-1.48,1.52-1.92,.66-.44,1.44-.66,2.36-.66s1.7,.22,2.36,.66,1.17,1.08,1.52,1.92c.35,.84,.53,1.85,.53,3.04,0,1.2-.18,2.22-.53,3.07-.35,.85-.86,1.5-1.52,1.94-.66,.45-1.44,.67-2.36,.67Zm0-1.91c.62,0,1.12-.31,1.5-.94,.37-.63,.56-1.57,.55-2.83,0-.83-.08-1.52-.25-2.07-.17-.55-.41-.96-.71-1.24-.31-.28-.67-.42-1.08-.42-.62,0-1.12,.31-1.49,.93-.37,.62-.56,1.55-.56,2.79,0,.84,.08,1.54,.25,2.1,.17,.56,.41,.98,.72,1.26,.31,.28,.67,.42,1.09,.42Z"/></g><g><path class="m" d="M326.21,432.55v10.91h-2.31v-8.72h-.06l-2.5,1.57v-2.05l2.7-1.71h2.17Z"/><path class="m" d="M332.78,443.6c-.75,0-1.42-.14-2.01-.42-.59-.28-1.05-.66-1.4-1.14-.34-.49-.52-1.04-.54-1.67h2.24c.02,.42,.2,.76,.53,1.03,.33,.26,.72,.39,1.18,.39,.36,0,.68-.08,.96-.24,.28-.16,.5-.39,.66-.68,.16-.29,.24-.62,.24-1s-.08-.72-.24-1.01c-.16-.29-.38-.52-.67-.68s-.61-.25-.97-.25c-.32,0-.63,.07-.93,.2-.3,.13-.53,.31-.7,.54l-2.05-.37,.52-5.75h6.67v1.89h-4.77l-.28,2.73h.06c.19-.27,.48-.49,.87-.67,.39-.18,.82-.27,1.3-.27,.66,0,1.24,.15,1.76,.46,.51,.31,.92,.73,1.22,1.27,.3,.54,.45,1.16,.44,1.86,0,.73-.17,1.39-.51,1.96-.34,.57-.82,1.02-1.43,1.34-.61,.32-1.32,.49-2.13,.49Z"/><path class="m" d="M342.74,443.69c-.92,0-1.7-.23-2.36-.68-.66-.45-1.17-1.1-1.52-1.94s-.53-1.87-.52-3.06c0-1.19,.18-2.2,.53-3.04,.35-.84,.86-1.48,1.52-1.92s1.44-.66,2.36-.66,1.7,.22,2.36,.66c.66,.44,1.17,1.08,1.52,1.92,.35,.84,.53,1.85,.53,3.04,0,1.2-.18,2.22-.53,3.07s-.86,1.5-1.52,1.94-1.44,.67-2.36,.67Zm0-1.91c.62,0,1.12-.31,1.5-.94,.37-.63,.56-1.57,.55-2.83,0-.83-.08-1.52-.25-2.07-.17-.55-.41-.96-.71-1.24-.31-.28-.67-.42-1.08-.42-.62,0-1.12,.31-1.49,.93-.37,.62-.56,1.55-.56,2.79,0,.84,.08,1.54,.25,2.1,.17,.56,.41,.98,.72,1.26,.31,.28,.67,.42,1.09,.42Z"/><path class="m" d="M353.07,443.69c-.92,0-1.7-.23-2.36-.68-.66-.45-1.17-1.1-1.52-1.94s-.53-1.87-.52-3.06c0-1.19,.18-2.2,.53-3.04,.35-.84,.86-1.48,1.52-1.92s1.44-.66,2.36-.66,1.7,.22,2.36,.66c.66,.44,1.17,1.08,1.52,1.92,.35,.84,.53,1.85,.53,3.04,0,1.2-.18,2.22-.53,3.07s-.86,1.5-1.52,1.94-1.44,.67-2.36,.67Zm0-1.91c.62,0,1.12-.31,1.5-.94,.37-.63,.56-1.57,.55-2.83,0-.83-.08-1.52-.25-2.07-.17-.55-.41-.96-.71-1.24-.31-.28-.67-.42-1.08-.42-.62,0-1.12,.31-1.49,.93-.37,.62-.56,1.55-.56,2.79,0,.84,.08,1.54,.25,2.1,.17,.56,.41,.98,.72,1.26,.31,.28,.67,.42,1.09,.42Z"/></g><g><path class="m" d="M399.63,432.55v10.91h-2.31v-8.72h-.06l-2.5,1.57v-2.05l2.7-1.71h2.17Z"/><path class="m" d="M402.65,443.45l4.52-8.95v-.07h-5.27v-1.89h7.66v1.91l-4.53,9h-2.38Z"/><path class="m" d="M415.19,443.69c-.92,0-1.7-.23-2.36-.68-.66-.45-1.17-1.1-1.52-1.94-.35-.85-.53-1.87-.53-3.06,0-1.19,.18-2.2,.53-3.04s.86-1.48,1.52-1.92c.66-.44,1.44-.66,2.36-.66s1.7,.22,2.36,.66c.66,.44,1.17,1.08,1.52,1.92,.36,.84,.53,1.85,.53,3.04,0,1.2-.18,2.22-.53,3.07-.35,.85-.86,1.5-1.51,1.94-.66,.45-1.44,.67-2.36,.67Zm0-1.91c.62,0,1.12-.31,1.5-.94,.37-.63,.56-1.57,.55-2.83,0-.83-.08-1.52-.25-2.07s-.41-.96-.71-1.24c-.31-.28-.67-.42-1.08-.42-.62,0-1.12,.31-1.49,.93-.37,.62-.56,1.55-.56,2.79,0,.84,.08,1.54,.25,2.1s.41,.98,.72,1.26c.31,.28,.67,.42,1.09,.42Z"/><path class="m" d="M425.51,443.69c-.92,0-1.7-.23-2.36-.68-.66-.45-1.17-1.1-1.52-1.94-.35-.85-.53-1.87-.53-3.06,0-1.19,.18-2.2,.53-3.04s.86-1.48,1.52-1.92c.66-.44,1.44-.66,2.36-.66s1.7,.22,2.36,.66c.66,.44,1.17,1.08,1.52,1.92,.36,.84,.53,1.85,.53,3.04,0,1.2-.18,2.22-.53,3.07-.35,.85-.86,1.5-1.51,1.94-.66,.45-1.44,.67-2.36,.67Zm0-1.91c.62,0,1.12-.31,1.5-.94,.37-.63,.56-1.57,.55-2.83,0-.83-.08-1.52-.25-2.07s-.41-.96-.71-1.24c-.31-.28-.67-.42-1.08-.42-.62,0-1.12,.31-1.49,.93-.37,.62-.56,1.55-.56,2.79,0,.84,.08,1.54,.25,2.1s.41,.98,.72,1.26c.31,.28,.67,.42,1.09,.42Z"/></g><g><path class="m" d="M471.9,432.55v10.91h-2.31v-8.72h-.06l-2.5,1.57v-2.05l2.7-1.71h2.17Z"/><path class="m" d="M478.44,432.4c.56,0,1.1,.09,1.62,.28,.52,.19,.99,.49,1.4,.9s.73,.96,.97,1.64c.24,.68,.36,1.51,.36,2.5,0,.93-.1,1.75-.31,2.48-.21,.73-.5,1.34-.89,1.85-.39,.51-.85,.89-1.4,1.16-.55,.26-1.16,.4-1.83,.4-.73,0-1.37-.14-1.93-.42s-1.01-.67-1.34-1.16c-.34-.49-.54-1.04-.62-1.65h2.27c.09,.4,.28,.71,.56,.92,.28,.22,.64,.33,1.05,.33,.71,0,1.25-.31,1.62-.93,.37-.62,.56-1.47,.56-2.55h-.08c-.16,.32-.38,.59-.66,.82s-.59,.41-.95,.53c-.36,.12-.74,.19-1.14,.19-.64,0-1.22-.15-1.72-.45-.5-.3-.9-.72-1.19-1.25s-.44-1.13-.44-1.81c0-.73,.17-1.38,.51-1.96,.34-.57,.82-1.02,1.43-1.34,.61-.33,1.33-.49,2.14-.48Zm.02,1.81c-.36,0-.68,.08-.96,.26-.28,.17-.5,.4-.66,.69-.16,.29-.24,.61-.24,.96,0,.36,.08,.68,.24,.97,.16,.29,.38,.51,.65,.68s.59,.25,.95,.25c.27,0,.51-.05,.74-.15s.43-.24,.59-.41c.17-.18,.3-.38,.4-.61s.14-.48,.14-.74c0-.34-.08-.66-.25-.95-.16-.29-.38-.52-.66-.69-.28-.17-.6-.26-.95-.26Z"/><path class="m" d="M488.67,443.69c-.92,0-1.7-.23-2.36-.68-.66-.45-1.17-1.1-1.52-1.94s-.53-1.87-.52-3.06c0-1.19,.18-2.2,.53-3.04,.35-.84,.86-1.48,1.52-1.92s1.44-.66,2.36-.66,1.7,.22,2.36,.66c.66,.44,1.17,1.08,1.52,1.92,.35,.84,.53,1.85,.53,3.04,0,1.2-.18,2.22-.53,3.07s-.86,1.5-1.52,1.94-1.44,.67-2.36,.67Zm0-1.91c.62,0,1.12-.31,1.5-.94,.37-.63,.56-1.57,.55-2.83,0-.83-.08-1.52-.25-2.07-.17-.55-.41-.96-.71-1.24-.31-.28-.67-.42-1.08-.42-.62,0-1.12,.31-1.49,.93-.37,.62-.56,1.55-.56,2.79,0,.84,.08,1.54,.25,2.1,.17,.56,.41,.98,.72,1.26,.31,.28,.67,.42,1.09,.42Z"/><path class="m" d="M499,443.69c-.92,0-1.7-.23-2.36-.68-.66-.45-1.17-1.1-1.52-1.94s-.53-1.87-.52-3.06c0-1.19,.18-2.2,.53-3.04,.35-.84,.86-1.48,1.52-1.92s1.44-.66,2.36-.66,1.7,.22,2.36,.66c.66,.44,1.17,1.08,1.52,1.92,.35,.84,.53,1.85,.53,3.04,0,1.2-.18,2.22-.53,3.07s-.86,1.5-1.52,1.94-1.44,.67-2.36,.67Zm0-1.91c.62,0,1.12-.31,1.5-.94,.37-.63,.56-1.57,.55-2.83,0-.83-.08-1.52-.25-2.07-.17-.55-.41-.96-.71-1.24-.31-.28-.67-.42-1.08-.42-.62,0-1.12,.31-1.49,.93-.37,.62-.56,1.55-.56,2.79,0,.84,.08,1.54,.25,2.1,.17,.56,.41,.98,.72,1.26,.31,.28,.67,.42,1.09,.42Z"/></g></g><g id="b"><g><path class="m" d="M529.84,383.47v-10.91h4.3c.83,0,1.53,.16,2.12,.47,.58,.31,1.03,.75,1.33,1.3,.31,.56,.46,1.2,.46,1.92s-.16,1.36-.47,1.92-.76,.99-1.36,1.29c-.59,.31-1.31,.46-2.14,.46h-2.74v-1.85h2.37c.44,0,.81-.08,1.1-.23s.51-.37,.65-.64c.14-.28,.22-.59,.22-.95s-.07-.68-.22-.95c-.14-.27-.36-.48-.65-.63-.29-.15-.66-.23-1.11-.23h-1.56v9.02h-2.31Z"/><path class="m" d="M539.56,383.47v-10.91h7.35v1.9h-5.04v2.6h4.67v1.9h-4.67v2.61h5.07v1.9h-7.37Z"/><path class="m" d="M548.33,374.46v-1.9h8.96v1.9h-3.34v9.01h-2.28v-9.01h-3.34Z"/></g><g><path class="m" d="M529.84,339.11v-10.91h2.31v4.5h4.68v-4.5h2.3v10.91h-2.3v-4.51h-4.68v4.51h-2.31Z"/><path class="m" d="M544.9,339.11h-3.87v-10.91h3.9c1.1,0,2.04,.22,2.83,.65,.79,.44,1.4,1.06,1.83,1.87,.43,.81,.64,1.79,.64,2.92s-.21,2.11-.64,2.93c-.43,.82-1.04,1.44-1.84,1.88-.8,.44-1.75,.66-2.86,.66Zm-1.56-1.98h1.46c.68,0,1.26-.12,1.72-.36,.47-.24,.82-.62,1.05-1.13,.24-.51,.35-1.18,.35-1.99s-.12-1.46-.35-1.98c-.24-.51-.59-.89-1.05-1.13-.46-.24-1.04-.36-1.72-.36h-1.47v6.96Z"/><path class="m" d="M551.94,339.11v-10.91h4.3c.83,0,1.53,.16,2.12,.47,.58,.31,1.03,.75,1.33,1.3,.31,.56,.46,1.2,.46,1.92s-.16,1.36-.47,1.92-.76,.99-1.36,1.29c-.59,.31-1.31,.46-2.14,.46h-2.74v-1.85h2.37c.44,0,.81-.08,1.1-.23s.51-.37,.65-.64c.14-.28,.22-.59,.22-.95s-.07-.68-.22-.95c-.14-.27-.36-.48-.65-.63-.29-.15-.66-.23-1.11-.23h-1.56v9.02h-2.31Z"/><path class="m" d="M561.66,339.11v-10.91h7.35v1.9h-5.04v2.6h4.67v1.9h-4.67v2.61h5.07v1.9h-7.37Z"/></g><g><path class="m" d="M529.84,213.51v-10.91h4.3c.83,0,1.53,.16,2.12,.47,.58,.31,1.03,.75,1.33,1.3,.31,.56,.46,1.2,.46,1.92s-.16,1.36-.47,1.92-.76,.99-1.36,1.29c-.59,.31-1.31,.46-2.14,.46h-2.74v-1.85h2.37c.44,0,.81-.08,1.1-.23s.51-.37,.65-.64c.14-.28,.22-.59,.22-.95s-.07-.68-.22-.95c-.14-.27-.36-.48-.65-.63-.29-.15-.66-.23-1.11-.23h-1.56v9.02h-2.31Z"/><path class="m" d="M541.53,202.6l2.64,8.29h.1l2.64-8.29h2.56l-3.76,10.91h-2.97l-3.77-10.91h2.56Z"/><path class="m" d="M559.79,206.42h-2.33c-.04-.3-.13-.57-.26-.81-.13-.24-.3-.44-.51-.6s-.44-.29-.71-.38c-.27-.09-.56-.13-.87-.13-.56,0-1.06,.14-1.48,.42-.42,.28-.74,.68-.97,1.21-.23,.53-.35,1.17-.35,1.93s.12,1.43,.35,1.96c.23,.53,.56,.93,.98,1.2,.42,.27,.9,.41,1.45,.41,.31,0,.6-.04,.86-.12,.26-.08,.5-.2,.71-.36s.38-.35,.51-.58c.14-.23,.23-.49,.28-.78h2.33c-.06,.51-.21,.99-.45,1.46-.24,.46-.56,.88-.96,1.24-.4,.36-.88,.65-1.44,.86-.56,.21-1.18,.32-1.88,.32-.97,0-1.84-.22-2.61-.66-.76-.44-1.37-1.08-1.81-1.91-.44-.83-.66-1.84-.66-3.03s.22-2.2,.67-3.04c.45-.83,1.05-1.47,1.82-1.91,.77-.44,1.63-.66,2.59-.66,.63,0,1.22,.09,1.76,.27,.54,.18,1.02,.44,1.44,.78,.42,.34,.76,.75,1.03,1.24,.26,.49,.43,1.05,.51,1.68Z"/></g><g><path class="m" d="M529.84,170.6v-10.91h4.3c.83,0,1.53,.16,2.12,.47,.58,.31,1.03,.75,1.33,1.3,.31,.56,.46,1.2,.46,1.92s-.16,1.36-.47,1.92-.76,.99-1.36,1.29c-.59,.31-1.31,.46-2.14,.46h-2.74v-1.85h2.37c.44,0,.81-.08,1.1-.23s.51-.37,.65-.64c.14-.28,.22-.59,.22-.95s-.07-.68-.22-.95c-.14-.27-.36-.48-.65-.63-.29-.15-.66-.23-1.11-.23h-1.56v9.02h-2.31Z"/><path class="m" d="M539.56,170.6v-10.91h4.3c.83,0,1.53,.16,2.12,.47,.58,.31,1.03,.75,1.33,1.3,.31,.56,.46,1.2,.46,1.92s-.16,1.36-.47,1.92-.76,.99-1.36,1.29c-.59,.31-1.31,.46-2.14,.46h-2.74v-1.85h2.37c.44,0,.81-.08,1.1-.23s.51-.37,.65-.64c.14-.28,.22-.59,.22-.95s-.07-.68-.22-.95c-.14-.27-.36-.48-.65-.63-.29-.15-.66-.23-1.11-.23h-1.56v9.02h-2.31Z"/></g><g><path class="m" d="M529.84,65.37v-10.91h4.3c.83,0,1.53,.16,2.12,.47,.58,.31,1.03,.75,1.33,1.3,.31,.56,.46,1.2,.46,1.92s-.16,1.36-.47,1.92-.76,.99-1.36,1.29c-.59,.31-1.31,.46-2.14,.46h-2.74v-1.85h2.37c.44,0,.81-.08,1.1-.23s.51-.37,.65-.64c.14-.28,.22-.59,.22-.95s-.07-.68-.22-.95c-.14-.27-.36-.48-.65-.63-.29-.15-.66-.23-1.11-.23h-1.56v9.02h-2.31Z"/><path class="m" d="M545.47,57.6c-.04-.43-.23-.76-.55-1-.32-.24-.76-.36-1.32-.36-.38,0-.69,.05-.95,.16-.26,.1-.46,.25-.59,.43-.14,.18-.21,.39-.21,.63,0,.2,.03,.37,.12,.51,.09,.15,.22,.27,.38,.38,.16,.1,.34,.2,.55,.27,.21,.08,.43,.14,.67,.19l.98,.23c.48,.11,.91,.25,1.31,.43s.74,.4,1.03,.66c.29,.26,.52,.56,.68,.92,.16,.35,.24,.75,.25,1.21,0,.67-.17,1.25-.51,1.73-.34,.49-.82,.87-1.45,1.13-.63,.27-1.39,.4-2.28,.4s-1.65-.13-2.3-.4c-.65-.27-1.16-.67-1.52-1.2-.36-.53-.56-1.19-.57-1.97h2.23c.02,.37,.13,.67,.32,.91s.44,.43,.75,.55,.67,.18,1.07,.18,.73-.06,1.02-.17c.29-.11,.51-.27,.67-.47,.16-.2,.24-.43,.24-.7,0-.25-.07-.45-.22-.62s-.35-.31-.63-.43-.61-.22-1.01-.32l-1.19-.3c-.92-.22-1.65-.57-2.18-1.05-.53-.48-.8-1.12-.79-1.92,0-.66,.17-1.24,.53-1.73,.36-.49,.85-.88,1.47-1.16,.62-.28,1.33-.42,2.13-.42s1.52,.14,2.12,.42c.61,.28,1.08,.66,1.41,1.16,.34,.49,.51,1.07,.52,1.72h-2.21Z"/></g></g><g id="c"><g><line class="l" x1="100.19" y1="415.9" x2="100.19" y2="413.4"/><line class="i" x1="100.19" y1="408.4" x2="100.19" y2="30.56"/><line class="l" x1="100.19" y1="28.06" x2="100.19" y2="25.56"/></g><g><line class="l" x1="136.73" y1="415.9" x2="136.73" y2="413.4"/><line class="i" x1="136.73" y1="408.4" x2="136.73" y2="30.56"/><line class="l" x1="136.73" y1="28.06" x2="136.73" y2="25.56"/></g><g><line class="l" x1="173.41" y1="415.9" x2="173.41" y2="413.4"/><line class="i" x1="173.41" y1="408.4" x2="173.41" y2="30.56"/><line class="l" x1="173.41" y1="28.06" x2="173.41" y2="25.56"/></g><g><line class="l" x1="228.25" y1="419.41" x2="228.25" y2="416.91"/><line class="i" x1="228.25" y1="411.91" x2="228.25" y2="34.08"/><line class="l" x1="228.25" y1="31.57" x2="228.25" y2="29.07"/></g><g><line class="l" x1="264.66" y1="419.41" x2="264.66" y2="416.91"/><line class="i" x1="264.66" y1="411.91" x2="264.66" y2="34.08"/><line class="l" x1="264.66" y1="31.57" x2="264.66" y2="29.07"/></g><g><line class="l" x1="320.13" y1="419.41" x2="320.13" y2="416.91"/><line class="i" x1="320.13" y1="411.91" x2="320.13" y2="34.08"/><line class="l" x1="320.13" y1="31.57" x2="320.13" y2="29.07"/></g><g><line class="l" x1="355.9" y1="419.41" x2="355.9" y2="416.91"/><line class="i" x1="355.9" y1="411.91" x2="355.9" y2="34.08"/><line class="l" x1="355.9" y1="31.57" x2="355.9" y2="29.07"/></g><g><line class="l" x1="393.02" y1="419.41" x2="393.02" y2="416.91"/><line class="i" x1="393.02" y1="411.91" x2="393.02" y2="34.08"/><line class="l" x1="393.02" y1="31.57" x2="393.02" y2="29.07"/></g></g><g id="d"><polyline class="h" points="98.89 50.3 136.73 50.3 173.41 48.96 227.61 53.3 264.15 52.37 319.8 54.69 355.9 53.16 393.02 67.29"/><polyline class="e" points="100.19 85.26 136.73 94.25 173.41 100.2 228.25 120.26 264.66 116.96 320.13 131.93 355.9 135.04 393.02 141.85"/><polyline class="k" points="393.02 188.43 355.9 188.43 320.13 195.1 264.66 173.67 228.25 189.49 173.41 169.74 136.73 170.6 100.19 169.03"/><polyline class="f" points="100.19 240.47 136.73 244.46 173.41 247.65 228.39 320 264.66 260.11 320.13 301.78 355.9 282.46 392.3 282.04"/><polyline class="j" points="393.02 391.64 355.9 364.44 320.13 366.53 264.66 339.74 228.25 343.61 173.41 335.32 136.73 340.44 100.19 341.38"/></g></svg>