<?xml version="1.0" encoding="utf-8"?>
<!-- Generator: Adobe Illustrator 26.2.1, SVG Export Plug-In . SVG Version: 6.00 Build 0)  -->
<svg version="1.2" baseProfile="tiny" xmlns="http://www.w3.org/2000/svg" xmlns:xlink="http://www.w3.org/1999/xlink" x="0px"
	 y="0px" width="529.8px" height="367px" viewBox="0 0 529.8 367" overflow="visible" xml:space="preserve">
<g id="Layer_1">
	<image width="1460" height="1143" xlink:href="sensor_cavity3.png"  transform="matrix(0.1974 0 0 0.1974 122.1555 73.0051)">
	</image>
</g>
<g id="Layer_3">
	<line fill="none" stroke="#000000" stroke-miterlimit="10" x1="337.2" y1="229.6" x2="337.2" y2="73"/>
	<g>
		<line fill="none" stroke="#000000" stroke-miterlimit="10" x1="263.1" y1="246.5" x2="263.1" y2="243.5"/>
		
			<line fill="none" stroke="#000000" stroke-miterlimit="10" stroke-dasharray="1.0019,2.0039" x1="263.1" y1="241.5" x2="263.1" y2="239.5"/>
		
			<line fill="none" stroke="#000000" stroke-miterlimit="10" stroke-dasharray="6.0116,2.0039,1.0019,2.0039" x1="263.1" y1="238.5" x2="263.1" y2="30.1"/>
		<line fill="none" stroke="#000000" stroke-miterlimit="10" x1="263.1" y1="29" x2="263.1" y2="26"/>
	</g>
	<line fill="none" stroke="#000000" stroke-miterlimit="10" x1="230.9" y1="191.9" x2="133.2" y2="191.9"/>
	<line fill="none" stroke="#000000" stroke-miterlimit="10" x1="229.8" y1="232.5" x2="83.1" y2="232.5"/>
	<line fill="none" stroke="#000000" stroke-miterlimit="10" x1="173.5" y1="129" x2="84.3" y2="129"/>
	<g>
		<line fill="none" stroke="#000000" stroke-miterlimit="10" x1="329.3" y1="78.9" x2="269.4" y2="78.9"/>
		<g>
			<polygon points="327.8,73.9 336.4,78.9 327.8,83.9 			"/>
		</g>
		<g>
			<polygon points="270.9,73.9 262.2,78.9 270.9,83.9 			"/>
		</g>
	</g>
	<g>
		<line fill="none" stroke="#000000" stroke-miterlimit="10" x1="143.7" y1="225.4" x2="143.7" y2="198.8"/>
		<g>
			<polygon points="148.7,223.9 143.7,232.5 138.7,223.9 			"/>
		</g>
		<g>
			<polygon points="148.7,200.3 143.7,191.6 138.7,200.3 			"/>
		</g>
	</g>
	<g>
		<line fill="none" stroke="#000000" stroke-miterlimit="10" x1="87.2" y1="225.4" x2="87.2" y2="136.1"/>
		<g>
			<polygon points="92.2,223.9 87.2,232.5 82.2,223.9 			"/>
		</g>
		<g>
			<polygon points="92.2,137.6 87.2,129 82.2,137.6 			"/>
		</g>
	</g>
	<g>
		<path d="M282.7,51.2c0.9,1.5,2.7,1.3,4.3,1.3c1.8,0,3.6,0,5.4,0c-0.4-0.9-0.7-1.7-1.1-2.6c-1,1-1.6,2.3-2.1,3.6
			c-0.5,1.4-1,2.8-1.5,4.1c-1,2.9-1.8,5.8-2.4,8.8c-0.4,1.9,2.5,2.7,2.9,0.8c0.6-2.8,1.3-5.5,2.2-8.2c0.4-1.3,0.9-2.6,1.4-3.9
			c0.4-1.1,0.8-2.3,1.7-3.2c0.9-0.9,0.2-2.6-1.1-2.6c-1.4,0-2.7,0-4.1,0c-0.6,0-1.3,0-1.9,0c-0.3,0-0.6,0-0.9,0c-0.1,0-0.2,0-0.2,0
			c-0.3-0.1-0.3,0,0.1,0.2C284.3,48,281.7,49.5,282.7,51.2L282.7,51.2z"/>
	</g>
	<g>
		<path d="M298.6,53.3c-0.5,3.1-0.8,6.2-0.6,9.3c0.1,1.6,2.6,2.1,2.9,0.4c0.5-2.6,1-5.2,1.5-7.8c0.1-0.5,0.3-1.1,0.3-1.5
			c-0.1,0.5-0.5,0.4-1.4,0c0,0.2,0.1,0.2,0.1,0.2c0.1,0.3,0.2,0.6,0.3,0.8c0.5,1.1,1,2.1,1.6,3c0.6,0.9,1.4,2.2,2.4,2.7
			c1.4,0.8,2.7-0.3,2.9-1.7c0.3-2.6,0.4-5.2,0.5-7.8c-0.9,0.4-1.7,0.7-2.6,1.1c3,3.9,5.1,8.4,6.2,13.2c0.8-0.5,1.7-1,2.5-1.5
			c-0.6-0.5-0.9-1.1-1-1.9c-0.2-0.8-1.1-1.3-1.8-1c-0.8,0.2-1.2,1-1,1.8c0.2,1.2,0.9,2.4,1.8,3.2c1.1,1,2.8,0,2.5-1.5
			c-1.2-5.3-3.6-10.2-7-14.5c-0.9-1.1-2.5-0.1-2.6,1.1c-0.1,1.3-0.2,2.7-0.3,4c0,0.6-0.1,1.3-0.1,1.9c0,0.3,0,0.6-0.1,0.9
			c0,0.2,0,0.4,0,0.6c-0.1,0.5,0,0.4,0.2-0.2c0.2-0.1,0.4-0.3,0.7-0.4c-0.1,0-0.1,0-0.2,0c0.3,0,0.5,0,0.8,0
			c0.2,0.1-0.1-0.2-0.2-0.3c-0.1-0.2-0.3-0.3-0.4-0.5c-0.2-0.3-0.5-0.6-0.7-0.9c-0.5-0.7-0.9-1.5-1.3-2.2c-0.3-0.7-0.5-1.6-1.1-2.1
			c-0.7-0.7-1.8-0.9-2.7-0.4c-0.7,0.4-1.1,1.3-1.2,2.1c-0.2,1-0.4,1.9-0.6,2.9c-0.4,2-0.8,4-1.1,6c1,0.1,2,0.3,2.9,0.4
			c-0.1-2.8,0-5.7,0.5-8.5c0.1-0.8-0.2-1.6-1-1.8C299.7,52,298.7,52.5,298.6,53.3L298.6,53.3z"/>
	</g>
	<g>
		<path d="M316.9,51.5c0.3,3,0.2,6.1-0.1,9.1c-0.2,1.7,2.6,2,2.9,0.4c0.8-3.6,1.7-7.3,2.7-10.8c-1,0-1.9,0-2.9,0
			c0.7,1.9,1.4,3.7,2.1,5.6c0.3,0.9,0.6,1.9,1.4,2.4c0.8,0.5,1.8,0.5,2.5-0.2c1.1-1.1,1.1-3.3,1.1-4.8c0-1.5-0.1-3.2,0.6-4.6
			c-0.9,0-1.7,0-2.6,0c1.5,3.2,3.1,6.3,4.6,9.5c0.8,1.6,1.5,3.1,2.3,4.7c0.4,0.7,0.7,1.5,1.4,2c0.8,0.5,1.7,0.5,2.4-0.2
			c1.4-1.4-0.7-3.5-2.1-2.1c0,0-0.1,0.1-0.1,0.1c0.4-0.1,0.7-0.3,1.1-0.4c0.5,0.4,0.7,0.4,0.4,0c-0.1-0.2-0.2-0.4-0.3-0.6
			c-0.1-0.3-0.3-0.6-0.4-0.8c-0.3-0.7-0.6-1.3-1-2c-0.6-1.3-1.2-2.5-1.9-3.8c-1.3-2.6-2.5-5.2-3.8-7.8c-0.5-1-2.1-1-2.6,0
			c-0.8,1.5-1,3.1-1,4.8c0,0.8,0,1.6,0,2.4c0,0.3,0,0.7-0.1,1c0,0.2-0.1,0.3-0.1,0.5c0,0.5-0.1,0.1,0.1,0c0.3-0.1,0.5-0.1,0.8-0.2
			c0.5,0,0.7,0.6,0.5,0c-0.1-0.3-0.2-0.6-0.3-0.9c-0.2-0.6-0.4-1.2-0.7-1.8c-0.4-1.2-0.9-2.4-1.3-3.5c-0.5-1.3-2.5-1.5-2.9,0
			c-1,3.6-1.9,7.2-2.7,10.8c1,0.1,2,0.3,2.9,0.4c0.3-3,0.4-6,0.1-9.1c-0.1-0.8-0.6-1.5-1.5-1.5C317.7,50,316.9,50.7,316.9,51.5
			L316.9,51.5z"/>
	</g>
	<g>
		<path d="M105.5,210.9c0.5,2.7,1,5.4,1.6,8.1c0.8-0.5,1.7-1,2.5-1.5c-0.2-0.2-0.3-0.4-0.5-0.6c-0.5-0.6-1.6-0.6-2.1,0
			c-0.6,0.6-0.5,1.5,0,2.1c0.2,0.2,0.3,0.4,0.5,0.6c0.4,0.5,1.3,0.6,1.8,0.2c0.6-0.4,0.8-1,0.7-1.7c-0.5-2.7-1-5.4-1.6-8.1
			c-0.1-0.8-1.1-1.3-1.8-1C105.7,209.3,105.3,210.1,105.5,210.9L105.5,210.9z"/>
	</g>
	<g>
		<path d="M105.4,212.4c-0.3,0.4-0.7,0.7-1,1.1c-0.3,0.2,0.3-0.2-0.1,0c-0.1,0.1-0.2,0.1-0.3,0.2c-0.1,0-0.1,0.1-0.2,0.1
			c0.2-0.1,0.2-0.1,0.1-0.1c-0.1,0-0.4,0.1-0.2,0.1c0.1,0,0.1,0,0,0c-0.1,0-0.2,0-0.2,0c-0.3,0,0.3,0.1,0,0c0,0-0.3-0.1-0.3-0.1
			c0.2,0.1,0.2,0.1,0.1,0c0,0-0.1,0-0.1,0c-0.1,0-0.1-0.1-0.2-0.1c0.2,0.1,0.2,0.2,0.1,0.1c-0.1-0.1-0.1-0.1-0.2-0.2
			c0,0-0.2-0.2-0.2-0.3c0,0,0.2,0.3,0,0c-0.2-0.3-0.4-0.7-0.6-1.1c-0.2-0.3,0.1,0.2,0,0c-0.1-0.1-0.1-0.3-0.2-0.4
			c-0.1-0.3-0.2-0.5-0.3-0.8c-0.4-1.1-0.8-2.3-1.1-3.5c-0.2-0.8-1.1-1.3-1.8-1c-0.8,0.3-1.2,1-1,1.8c0.3,1.4,0.8,2.7,1.3,4
			c0.5,1.1,0.9,2.3,1.7,3.2c0.9,1.1,2.3,1.5,3.6,1.3c1.3-0.2,2.3-1.2,3.2-2.2c0.5-0.6,0.6-1.5,0-2.1
			C107,211.9,105.9,211.8,105.4,212.4L105.4,212.4z"/>
	</g>
	<g>
		<path d="M114.4,211.6c0.4,2.2,0.8,4.4,1.2,6.6c0.1,0.7,1,1.2,1.6,1.1c0.7-0.1,1.4-0.7,1.3-1.5c-0.2-2.3-0.5-4.6-0.7-6.9
			c-0.2,0.4-0.5,0.9-0.7,1.3c-0.3,0.1-0.6,0.1-0.9,0c-0.1-0.1-0.1-0.1,0,0c0.1,0.2,0.3,0.4,0.5,0.5c0.3,0.4,0.6,0.7,1,1.1
			c0.6,0.7,1.3,1.4,1.9,2.1c0.7,0.8,2.3,0.4,2.5-0.7c0.3-1.9,0.3-3.7,0-5.6c-0.9,0.4-1.8,0.8-2.7,1.2c1.4,2,2.8,4.1,4.2,6.1
			c0.4,0.6,1.3,1,2.1,0.5c0.6-0.4,1-1.4,0.5-2.1c-1.4-2-2.8-4.1-4.2-6.1c-0.4-0.6-1.2-0.9-1.9-0.6c-0.7,0.3-1,1-0.9,1.8
			c0.1,0.5,0.1,1.3,0.1,2c0,0.7-0.1,1.4-0.2,2c0.8-0.2,1.7-0.4,2.5-0.7c-0.9-0.9-1.7-1.9-2.6-2.8c-0.5-0.5-0.9-1.1-1.5-1.4
			c-0.7-0.5-1.6-0.4-2.3,0.1c-0.8,0.6-0.6,1.6-0.5,2.4c0.1,0.6,0.1,1.2,0.2,1.9c0.1,1.3,0.3,2.5,0.4,3.8c1-0.1,2-0.3,2.9-0.4
			c-0.4-2.2-0.8-4.4-1.2-6.6c-0.1-0.8-1.1-1.3-1.8-1C114.6,210,114.2,210.8,114.4,211.6L114.4,211.6z"/>
	</g>
	<g>
		<path d="M125.8,210.5c0.6,2,1.2,4.1,1.8,6.1c0.2,0.7,0.9,1.2,1.6,1.1c0.7-0.1,1.4-0.7,1.3-1.5c-0.1-1.2-0.2-2.4-0.3-3.6
			c0-0.6-0.1-1.1-0.1-1.7c0-0.2,0-0.5-0.1-0.7c0-0.1,0-0.2,0-0.3c0-0.2,0-0.2,0,0c-0.2,0.2-0.8,1.2-1.2,0.4c0,0,0.3,0.3,0.4,0.4
			c0.4,0.4,0.7,0.8,1.1,1.2c0.8,0.9,1.6,1.8,2.3,2.6c0.4,0.5,1.3,0.6,1.8,0.2c0.6-0.3,0.8-1,0.7-1.7c-0.4-1.7-0.6-3.4-0.7-5.1
			c-0.4,0.5-0.7,1-1.1,1.4c-0.2,0-0.3-0.1-0.5-0.1c0,0,0,0,0,0.1c0,0,0.4,0.4,0.2,0.3c0.2,0.3,0.4,0.6,0.6,0.8
			c0.5,0.6,0.9,1.2,1.4,1.8c0.9,1.2,1.8,2.3,2.7,3.5c0.8-0.6,1.6-1.2,2.4-1.8c-0.2-0.2-0.4-0.5-0.6-0.7c-0.5-0.6-1.6-0.5-2.1,0
			c-0.6,0.6-0.5,1.5,0,2.1c0.2,0.2,0.4,0.5,0.6,0.7c0.5,0.6,1.4,0.5,2,0.1c0.5-0.4,0.8-1.3,0.4-1.9c-1.1-1.5-2.3-3-3.4-4.4
			c-0.6-0.8-1.2-1.6-1.8-2.3c-0.6-0.8-1.6-1.3-2.6-1c-0.6,0.2-1.1,0.8-1.1,1.4c0.1,2,0.4,4,0.8,5.9c0.8-0.5,1.7-1,2.5-1.5
			c-1-1.1-2-2.2-3-3.3c-0.5-0.5-0.9-1.1-1.5-1.4c-0.8-0.4-1.8-0.4-2.5,0.3c-1,0.9-0.8,2.3-0.7,3.6c0.1,1.5,0.2,3.1,0.3,4.6
			c1-0.1,2-0.3,2.9-0.4c-0.6-2-1.2-4.1-1.8-6.1C128.1,207.8,125.2,208.6,125.8,210.5L125.8,210.5z"/>
	</g>
	<g>
		<path d="M14.9,208c0.3,4.3,1.1,8.6,2.5,12.7c0.3,0.8,1,1.3,1.8,1c0.7-0.2,1.3-1.1,1-1.8c-1.3-3.8-2.1-7.8-2.4-11.9
			c-0.1-0.8-0.6-1.5-1.5-1.5C15.7,206.5,14.9,207.1,14.9,208L14.9,208z"/>
	</g>
	<g>
		<path d="M26.9,208.7c-1.4,1.7-2.2,3.6-2.5,5.8c-0.1,1,0,2,0.2,3c0.2,1,0.6,2.3,1.5,3c0.6,0.5,1.5,0.6,2.2,0.2
			c0.6-0.3,0.9-0.9,1.3-1.5c0.7-1,1.5-2.1,2.2-3.1c0.7-1,1.5-2.1,2.2-3.1c0.7-1.1,1.2-2.2,0.7-3.5c-0.5-1.3-1.8-2.1-3.1-2.2
			c-1.4-0.1-2.7,0.5-3.8,1.3c-0.6,0.5-1,1.3-0.5,2.1c0.4,0.6,1.4,1,2.1,0.5c0.6-0.4,1.2-0.9,1.9-1c0,0,0.4,0,0.3,0
			c-0.1,0,0.4,0.2,0.1,0.1c0.1,0,0.4,0.2,0.2,0.1c0,0,0.2,0.2,0.1,0.1c-0.1-0.1,0.1,0.1,0.1,0.1c0.1,0.1,0-0.1,0,0c0,0.1,0,0,0,0
			c0-0.2,0,0,0,0c-0.2,0.4-0.5,0.8-0.8,1.1c-0.5,0.8-1.1,1.6-1.6,2.3c-0.5,0.8-1.1,1.5-1.6,2.3c-0.3,0.4-0.5,0.8-0.8,1.1
			c-0.1,0.2-0.2,0.3-0.4,0.5c-0.4,0.5-0.1,0.1-0.1,0.1c0.1,0.3,1.3-0.4,1.3,0c0,0-0.2-0.4-0.1-0.2c-0.1-0.2-0.1-0.3-0.2-0.5
			c-0.1-0.4-0.2-0.7-0.3-1.1c0-0.2,0,0,0,0c0-0.1,0-0.2,0-0.2c0-0.2,0-0.3,0-0.5c0-0.4,0-0.7,0-1.1c0-0.1,0-0.2,0-0.2
			c0,0.2,0-0.1,0-0.2c0-0.2,0.1-0.4,0.1-0.5c0.1-0.4,0.2-0.8,0.4-1.1c0.1-0.2,0,0,0,0c0.1-0.1,0.1-0.2,0.2-0.4
			c0.1-0.2,0.2-0.3,0.3-0.5c0.1-0.2,0.2-0.4,0.3-0.5c0,0,0.1-0.2,0.1-0.1c-0.1,0.1,0.2-0.2,0.2-0.2c0.5-0.6,0.6-1.5,0-2.1
			C28.5,208.2,27.4,208.1,26.9,208.7L26.9,208.7z"/>
	</g>
	<g>
		<path d="M40.2,212.2c0.8,2.5,1.4,5.1,1.7,7.8c0.1,0.8,0.6,1.5,1.5,1.5c0.8,0,1.5-0.7,1.5-1.5c0-1.5,0-3,0-4.6c0-0.7,0-1.5,0-2.2
			c0-0.4,0-0.8,0-1.2c0-0.2,0-0.3,0-0.5c0-0.1,0-0.2,0-0.4c0-0.3-0.1-0.2-0.2,0.3c-0.2,0.1-0.4,0.3-0.7,0.4c-0.3,0.1-0.5,0-0.7-0.2
			c0.1,0.1,0.1,0.2,0.1,0.1c0,0,0.2,0.4,0.3,0.5c0.3,0.4,0.5,0.9,0.8,1.3c0.5,0.9,1.1,1.7,1.6,2.6c0.3,0.4,0.8,0.8,1.3,0.7
			c1.8-0.2,2.3-1.7,2.2-3.3c-0.1-1.6-0.1-3.2-0.2-4.9c-0.9,0.3-1.9,0.5-2.8,0.8c1.7,2.8,3.5,5.6,5.5,8.2c0.5,0.7,1.3,1,2.1,0.5
			c0.6-0.4,1-1.4,0.5-2.1c-1.9-2.7-3.8-5.4-5.5-8.2c-0.7-1.2-2.8-0.8-2.8,0.8c0,1.2,0.1,2.3,0.1,3.5c0,0.5,0,1.1,0.1,1.6
			c0,0,0,0.7,0,0.4c0,0.1,0,0.2-0.1,0.3c0.1-0.3,0.4-0.5,0.8-0.6c0.4,0.2,0.9,0.5,1.3,0.7c-0.9-1.4-1.7-2.8-2.6-4.1
			c-0.4-0.7-0.9-1.3-1.7-1.5c-1-0.3-2,0.2-2.3,1.1c-0.3,0.7-0.2,1.7-0.2,2.5c0,0.8,0,1.6,0,2.5c0,1.6,0,3.3-0.1,4.9c1,0,2,0,3,0
			c-0.3-2.9-0.9-5.8-1.8-8.6c-0.2-0.8-1-1.3-1.8-1C40.5,210.5,40,211.4,40.2,212.2L40.2,212.2z"/>
	</g>
	<g>
		<path d="M56.1,208.9c0.5,2.4,1.2,4.7,2,7c0.6,1.5,3,1.4,2.9-0.4c-0.1-1.6-0.1-3.2-0.2-4.7c0-0.8-0.1-1.5-0.1-2.3
			c0-0.4,0-0.7,0-1.1c0-0.2,0-0.5,0-0.7c0-0.4,0-0.5-0.1-0.2c-0.2,0.2-0.4,0.4-0.5,0.5c0,0,0,0,0,0c-0.3,0-0.5,0-0.8,0
			c0.4,0.1,0.8,0.6,1.1,0.9c0.5,0.4,0.9,0.9,1.4,1.3c0.9,0.9,1.9,1.8,2.8,2.7c0.9,0.9,2.6,0.3,2.6-1.1c0-1.1-0.1-2.3-0.1-3.4
			c0-0.5,0-1,0-1.5c0-0.4-0.1-1.1,0-1.4c-0.1,0.2-0.3,0.4-0.4,0.7c0,0,0.1-0.1,0.1-0.1c-0.2,0.1-0.4,0.3-0.7,0.4c0,0,0,0,0,0
			c-0.3-0.1-0.5-0.1-0.8-0.2c0.4,0.2,0.7,0.6,1,1c0.4,0.4,0.7,0.8,1.1,1.2c0.8,0.9,1.5,1.8,2.3,2.7c1.4,1.7,2.8,3.5,4.2,5.3
			c0.5,0.6,1.3,1,2.1,0.5c0.6-0.4,1-1.4,0.5-2.1c-2.6-3.4-5.3-6.8-8.2-10c-0.7-0.7-1.4-1.5-2.5-1.5c-1.1,0-1.8,1-1.9,2
			c-0.2,2.1,0.1,4.3,0.2,6.5c0.9-0.4,1.7-0.7,2.6-1.1c-1.4-1.3-2.7-2.6-4.1-3.9c-1.1-1.1-2.8-2.8-4.3-1.3c-0.6,0.6-0.6,1.5-0.6,2.4
			c0,0.9,0.1,1.9,0.1,2.8c0.1,1.9,0.1,3.7,0.2,5.6c1-0.1,2-0.3,2.9-0.4c-0.9-2.3-1.5-4.6-2-7C58.6,206.2,55.7,207,56.1,208.9
			L56.1,208.9z"/>
	</g>
	<line fill="none" stroke="#000000" stroke-miterlimit="10" x1="295.6" y1="194.6" x2="295.6" y2="115"/>
	<g>
		<line fill="none" stroke="#000000" stroke-miterlimit="10" x1="288.1" y1="119.7" x2="270.3" y2="119.7"/>
		<g>
			<polygon points="286.7,114.7 295.3,119.7 286.7,124.7 			"/>
		</g>
		<g>
			<polygon points="271.8,114.7 263.1,119.7 271.8,124.7 			"/>
		</g>
	</g>
	<g>
		<path d="M297.2,97.9c-0.7,2.7-1,5.6-0.7,8.4c0.1,0.6,0.4,1.3,1.1,1.4c0.6,0.1,1.4-0.1,1.7-0.7c1.1-2.2,1.9-4.6,2.3-7
			c0-0.3,0.1-0.7,0.1-1.1c-0.1,0.4,0,0,0-0.1c0.1-0.3,0,0.1,0,0c0-0.2,0.2-0.2,0,0c-0.1,0.2-0.3,0.2-0.6,0.2c-0.4,0.1-0.7,0-0.9-0.4
			c-0.1,0-0.1-0.2,0,0c0,0.1,0.1,0.2,0.1,0.4c0.3,1.3,0.5,2.6,0.8,3.8c0.3,1.3,2.1,1.4,2.7,0.4c0.7-1.3,1.4-2.5,2.2-3.8
			c-0.9,0-1.7,0-2.6,0c0,0.1,0.1,0.2,0.1,0.3c0.1,0.2-0.1-0.2,0,0c0,0.2,0.1,0.3,0.2,0.5c0,0.2,0.1,0.4,0.1,0.6
			c-0.1-0.4,0,0.2,0,0.3c0.1,0.8,0,1.5,0.1,2.3c0.1,1.7,0.4,3.5,1.7,4.6c0.6,0.5,1.5,0.6,2.1,0c0.5-0.6,0.6-1.6,0-2.1
			c-0.1-0.1-0.2-0.3-0.4-0.4c-0.1-0.1,0.2,0.3,0,0c0-0.1-0.1-0.1-0.1-0.2c0-0.1-0.1-0.1-0.1-0.2c0.2,0.3,0,0.1,0,0
			c-0.1-0.2-0.1-0.3-0.1-0.5c0-0.1,0-0.1,0-0.2c0,0-0.1-0.4,0-0.1c0,0.2,0-0.1,0-0.1c0-0.1,0-0.2,0-0.3c0-0.4,0-0.7,0-1.1
			c0-1.7-0.1-3.3-0.9-4.8c-0.5-1-2-1-2.6,0c-0.7,1.3-1.4,2.5-2.2,3.8c0.9,0.1,1.8,0.2,2.7,0.4c-0.2-0.8-0.3-1.5-0.5-2.3
			c-0.1-0.7-0.2-1.4-0.5-2.1c-0.3-0.9-1.1-1.6-2.1-1.6c-0.9,0-1.6,0.6-1.9,1.4c-0.1,0.3-0.3,0.6-0.3,0.9c0,0.2-0.1,0.5-0.1,0.8
			c0,0.1,0,0.1,0,0c0,0.1,0,0.2,0,0.3c-0.1,0.7-0.3,1.4-0.4,2.1c-0.2,0.7-0.4,1.4-0.7,2.1c-0.2,0.6-0.5,1.1-0.8,1.8
			c0.9,0.3,1.9,0.5,2.8,0.8c-0.3-2.7-0.1-5.1,0.6-7.6c0.2-0.8-0.2-1.7-1-1.8C298.2,96.6,297.4,97,297.2,97.9L297.2,97.9z"/>
	</g>
	<g>
		<path d="M308.5,98.5c-0.1,3.1-0.1,6.2-0.2,9.2c0,1.7,2.4,2,2.9,0.4c1.2-3.5,2.2-7.1,3.1-10.7c-0.3,0.3-0.7,0.7-1,1
			c-0.4,0.1-0.8,0-0.9-0.3c0-0.1,0-0.1,0,0c0,0.1,0.1,0.1,0,0c0,0,0,0.1,0,0.1c0.1,0.3,0.2,0.7,0.2,1c0.2,0.7,0.3,1.4,0.5,2.2
			c0.3,1.4,0.7,2.9,1,4.3c0.1,0.6,0.7,1,1.2,1.1c0.5,0.1,1.3-0.2,1.5-0.7c1-2.3,2-4.7,3-7c-0.9-0.1-1.8-0.2-2.7-0.4
			c0.8,3.2,1.6,6.4,2.4,9.6c0.2,0.8,1.1,1.3,1.8,1c0.8-0.2,1.2-1.1,1-1.8c-0.8-3.2-1.6-6.4-2.4-9.6c-0.1-0.6-0.7-1-1.2-1.1
			c-0.5-0.1-1.3,0.2-1.5,0.7c-1,2.3-2,4.7-3,7c0.9,0.1,1.8,0.2,2.7,0.4c-0.4-1.9-0.9-3.8-1.3-5.6c-0.4-1.7-0.8-4.4-3.3-3.8
			c-0.5,0.1-0.9,0.6-1,1c-0.9,3.6-1.9,7.2-3.1,10.7c1,0.1,2,0.3,2.9,0.4c0.1-3.1,0.1-6.2,0.2-9.2c0-0.8-0.7-1.5-1.5-1.5
			C309.1,97,308.5,97.7,308.5,98.5L308.5,98.5z"/>
	</g>
	<g>
		<path d="M307.8,14c-2.6-0.1-4.6,1.8-5.4,4.1c-0.4,1.1-0.5,2.4-0.5,3.5c0,1.3,0.3,2.6,1.5,3.3c1.1,0.7,2.5,0.3,3.6-0.1
			c1-0.4,2.1-0.8,3-1.3c1.8-1,3.6-2.6,4.5-4.5c0.3-0.8,0.5-1.6,0.2-2.4c-0.3-0.8-0.9-1.3-1.5-1.7c-1.2-0.7-2.6-1.2-4-1.4
			c-0.8-0.1-1.6,0.2-1.8,1c-0.2,0.7,0.2,1.7,1,1.8c0.8,0.1,1.8,0.4,2.5,0.7c0.4,0.2,0.8,0.3,1.1,0.6c-0.1-0.1,0,0,0,0.1
			c0-0.1-0.1-0.1-0.1-0.2c0-0.2,0.1,0,0,0c0,0.1,0,0.1,0,0c0,0.1,0,0.1,0,0.2c0-0.1,0.1-0.2,0,0.1c0,0.1-0.1,0.2-0.2,0.3
			c-0.1,0.2-0.2,0.3-0.3,0.4c0,0.1-0.3,0.4-0.2,0.2c-0.1,0.2-0.3,0.3-0.4,0.5c-0.3,0.3-0.5,0.5-0.8,0.8c0,0-0.2,0.2,0,0
			c-0.1,0-0.1,0.1-0.2,0.1c-0.2,0.1-0.4,0.3-0.6,0.4c-0.3,0.2-0.6,0.4-1,0.6c-0.2,0.1-0.3,0.2-0.5,0.2c-0.1,0-0.2,0.1-0.3,0.1
			c0,0-0.4,0.2-0.2,0.1c0.1-0.1-0.1,0.1-0.2,0.1c-0.1,0-0.1,0.1-0.2,0.1c-0.2,0.1-0.4,0.1-0.6,0.2c-0.4,0.1-0.8,0.2-1.2,0.3
			c-0.1,0-0.3,0,0,0c-0.1,0-0.2,0-0.2,0c-0.2,0,0,0,0.1,0c0,0,0.2,0.1,0.1,0.1c-0.1,0,0,0,0,0c-0.1-0.1,0-0.1,0,0
			c0-0.1,0-0.2-0.1-0.3c0.1,0.2,0,0,0-0.1c0-0.4,0-0.8,0-1.2c0-0.5,0-0.6,0.1-1.1c0.1-0.4,0.2-0.9,0.4-1.1c0.2-0.5,0.3-0.6,0.6-0.9
			c0.1-0.1,0.1-0.1,0.2-0.2c0,0,0.1-0.1,0.1-0.1c-0.1,0.1-0.1,0.1,0,0c0.2-0.1,0.4-0.2,0.6-0.3c-0.2,0.1,0.3-0.1,0.3-0.1
			c0.3-0.1,0.1,0,0,0c0.1,0,0.3,0,0.4,0c0.8,0,1.5-0.7,1.5-1.5C309.3,14.7,308.7,14,307.8,14L307.8,14z"/>
	</g>
	<g>
		<path d="M321.4,14.2c-0.3,2.8-0.6,5.6-1,8.4c-0.2,1.5,2.1,2,2.8,0.8c0.5-1,1.1-2.1,1.6-3.1c0.3-0.5,0.5-1,0.8-1.5
			c0.1-0.3,0.3-0.5,0.4-0.8c0.3-0.6,0.1,0.1-0.6-0.1c-0.4-0.5-0.7-1-1.1-1.4c0.1,2.1,0.6,4.1,1.6,5.9c0.3,0.5,0.9,0.8,1.5,0.7
			c0.6-0.1,1-0.5,1.2-1.1c0.4-1.1,0.9-2.2,1.4-3.3c0.3-0.6,0.6-1.1,0.9-1.7c0.1-0.2,0.2-0.4,0.4-0.6c-0.1,0.1,0.1-0.1,0.1-0.1
			c0.1,0.1-0.6,0-0.4,0c-0.4,0-0.4-0.2-0.2,0.1c0.1,0.2,0.2,0.5,0.3,0.7c0.2,0.5,0.4,1,0.6,1.5c0.3,1.1,0.5,2.2,0.6,3.3
			c0,0.8,0.7,1.5,1.5,1.5c0.8,0,1.5-0.7,1.5-1.5c-0.1-1.6-0.3-3.2-0.9-4.7c-0.5-1.5-1.2-3.5-3-3.7c-1.9-0.3-2.8,1.5-3.5,3
			c-0.8,1.6-1.5,3.2-2.1,4.8c0.9-0.1,1.8-0.2,2.7-0.4c-0.8-1.3-1.2-2.8-1.2-4.4c0-0.6-0.5-1.3-1.1-1.4c-1.9-0.4-2.7,1.4-3.4,2.8
			c-0.7,1.4-1.4,2.8-2.1,4.2c0.9,0.3,1.9,0.5,2.8,0.8c0.3-2.8,0.6-5.6,1-8.4c0.1-0.8-0.8-1.5-1.5-1.5
			C322.1,12.7,321.5,13.4,321.4,14.2L321.4,14.2z"/>
	</g>
	<g>
		<path d="M337.1,13.6c0.2,2.9,0.4,5.9,0.5,8.8c0.1,1.6,2.5,2.1,2.9,0.4c0.4-1.5,0.8-2.9,1.4-4.3c0.2-0.6,0.5-1.3,0.8-1.9
			c0,0,0.2-0.4,0.2-0.4c-0.5,0.2-0.8,0.1-0.8-0.1c0,0.1,0,0.1,0.1,0.2c0.1,0.4,0.3,0.9,0.3,1.4c0.1,0.5,0.1,1.1,0.2,1.6
			c0.2,1.2,0.8,2.2,1.8,3c0.8,0.6,2-0.1,2.2-0.9c0.4-1.3,0.9-2.6,1.5-3.9c0.3-0.6,0.7-1.3,1-1.9c0.1-0.2,0.4-0.5,0.5-0.7
			c0.2-0.3-0.1-0.3-0.7-0.1c0.1,0,0.1,0,0.1,0.2c0.2,0.6,0.7,1.3,1,1.9c0.3,0.6,0.6,1.2,0.8,1.9c0.5,1.3,0.9,2.7,1.2,4.1
			c0.4,1.9,3.3,1.1,2.9-0.8c-0.4-1.9-1-3.7-1.8-5.5c-0.4-0.9-0.8-1.7-1.2-2.6c-0.4-0.8-0.9-1.6-1.8-1.9c-2.1-0.7-3.3,1.6-4.1,3.1
			c-0.9,1.7-1.7,3.6-2.2,5.4c0.7-0.3,1.5-0.6,2.2-0.9c-0.6-0.5-0.6-2.2-0.7-3c-0.3-1.5-1-3.3-2.8-3.3c-1.9,0-2.6,2-3.2,3.5
			c-0.7,1.7-1.3,3.4-1.7,5.2c1,0.1,2,0.3,2.9,0.4c-0.2-2.9-0.4-5.9-0.5-8.8C340,11.7,337,11.7,337.1,13.6L337.1,13.6z"/>
	</g>
	<line fill="none" stroke="#000000" stroke-miterlimit="10" x1="367" y1="137.3" x2="367" y2="26.9"/>
	<g>
		<line fill="none" stroke="#000000" stroke-miterlimit="10" x1="359.8" y1="36.9" x2="270.3" y2="36.9"/>
		<g>
			<polygon points="358.4,31.9 367,36.9 358.4,41.9 			"/>
		</g>
		<g>
			<polygon points="271.8,31.9 263.1,36.9 271.8,41.9 			"/>
		</g>
	</g>
	<g>
		<path d="M274.2,100.5c0.9-1.6,3-2.3,4.5-1.5c0.8,0.4,1.5,1.1,1.8,1.9c0.4,1,0.3,2-0.1,3.1c-0.5,1.2-1.2,2.2-2,3.2
			c-0.6,0.8-1.1,1.4-2.2,1.3c-2.2-0.3-4.4-1.7-4.9-3.9c-0.6-2.8,2.3-4.7,4.2-6.1c0.7-0.5,1-1.3,0.5-2.1c-0.4-0.7-1.4-1-2.1-0.5
			c-2.8,2-6,4.6-5.7,8.4c0.3,3.7,3.3,6.3,6.7,7.1c1.9,0.4,3.7,0.1,5-1.4c1.1-1.2,2.1-2.7,2.8-4.2c0.7-1.6,1.1-3.4,0.7-5.1
			c-0.4-1.5-1.4-2.9-2.7-3.8c-3.1-2.1-7.4-0.9-9.2,2.2C270.7,100.7,273.2,102.2,274.2,100.5L274.2,100.5z"/>
	</g>
	<g>
		<path d="M280.1,91.4c-0.6,1.7-1.6,3.3-2.4,4.9c-0.8,1.6-1.6,3.3-2.4,4.9c-1.6,3.4-3.1,6.8-4.6,10.3c-0.3,0.8,0.3,1.6,1,1.8
			c0.9,0.2,1.5-0.3,1.8-1c1.4-3.5,3-6.9,4.6-10.3c1.6-3.3,3.5-6.4,4.7-9.8C283.7,90.4,280.8,89.6,280.1,91.4L280.1,91.4z"/>
	</g>
	<g>
		<path d="M288.2,100.5c0.1-0.1,0.3-0.1,0.4-0.2c-0.2,0.1,0.1,0,0.2,0c0.1,0,0.3-0.1,0.4-0.1c0,0,0.2,0,0.1,0c-0.2,0,0.1,0,0.2,0
			c0.1,0,0.3,0,0.4,0c0.1,0,0.1,0,0.2,0c0,0,0.2,0,0.1,0c-0.1,0,0.2,0.1,0.3,0.1c0.2,0,0,0,0,0c0,0,0.1,0,0.1,0.1
			c0,0-0.1-0.1-0.1-0.1c0.1,0,0.1,0.2,0,0c0,0-0.1-0.1-0.1-0.2c0.1,0.2,0-0.1,0-0.2c0-0.1,0.1-0.1,0.1-0.2c0.1-0.1,0,0,0,0
			c0,0,0.2-0.1,0.1-0.1c0,0-0.3,0.1-0.1,0.1c0.2-0.1-0.3,0.1-0.1,0c0.1-0.1,0.1,0,0,0c-0.1,0-0.2,0-0.3,0c-0.4,0-0.7,0.1-1,0.3
			c-0.9,0.5-1.2,1.7-0.7,2.6c0.3,0.7,1,0.9,1.6,1.3c0.3,0.1,0.5,0.3,0.7,0.5c0.1,0.1,0,0,0,0c0.1,0,0.1,0.1,0.2,0.1
			c0.1,0.1,0.2,0.2,0.3,0.3c0,0,0.1,0.1,0.1,0.1c0.1,0.1,0,0,0,0c0,0.1,0.1,0.1,0.1,0.2c0.1,0.1,0,0,0-0.1c0,0,0.1,0.2,0,0.1
			c0-0.2,0,0,0,0.1c0,0,0-0.3,0-0.1c0,0.1,0-0.1,0.1-0.1c0,0,0.1-0.2,0.2-0.1c0,0-0.2,0.1-0.2,0.1c0,0-0.2,0.1,0,0
			c0.2-0.1-0.1,0-0.1,0c-0.3,0.1-0.7,0.2-1.1,0.3c-0.2,0-0.4,0.1-0.5,0.1c-0.1,0-0.2,0-0.2,0c-0.3,0,0.2,0-0.1,0
			c-0.4,0-0.8,0.1-1.2,0.1c-0.8,0-1.5,0.7-1.5,1.5c0,0.8,0.7,1.5,1.5,1.5c0.9,0,1.8-0.1,2.7-0.3c0.7-0.2,1.6-0.3,2.2-0.8
			c0.9-0.6,1.4-1.5,1.3-2.5c-0.1-0.9-0.6-1.7-1.2-2.4c-0.6-0.6-1.3-1-2-1.4c-0.1,0-0.3-0.2-0.4-0.2c0.1,0,0.2,0.2,0.2,0.2
			c-0.1,0.2-0.1,0.5-0.2,0.7c0.1,0.5,0,0.7-0.4,0.8c0,0,0.1,0,0.1,0c0.2,0-0.3,0.1-0.1,0c0.3-0.1,0.5,0,0.8-0.1
			c0.9-0.2,1.7-0.9,2-1.8c0.3-0.9,0-2-0.7-2.7c-1.5-1.5-4.1-1.1-5.8-0.2c-0.7,0.4-1,1.4-0.5,2.1
			C286.6,100.6,287.4,100.9,288.2,100.5L288.2,100.5z"/>
	</g>
	<g>
		<path d="M274.9,56.2C274.9,56.6,275,56.2,274.9,56.2C274.8,56.4,275,56.1,274.9,56.2c-0.1,0.2,0.2-0.2,0.3-0.3
			c-0.3,0.2,0.5-0.2,0.2-0.1c0.1,0,0.2,0,0.3-0.1c0.3-0.1-0.2,0,0.1,0c0.1,0,0.2,0,0.3,0c-0.2,0,0.1,0,0.1,0c0.1,0,0.2,0.1,0.4,0.1
			c-0.1,0-0.2-0.1,0.1,0c0.1,0.1,0.2,0.1,0.3,0.2c0,0,0.4,0.3,0.2,0.2c0.1,0.1,0.4,0.4,0.6,0.5c0.7,0.7,1.1,1.4,1.3,2.3
			c0.1,0.6-0.1,1.3-0.6,1.8c-0.1,0.1-0.2,0.2-0.3,0.3c0,0-0.3,0.2-0.1,0.1c-0.2,0.1-0.4,0.3-0.6,0.4c-0.4,0.2-0.9,0.4-1.5,0.5
			c-0.3,0.1-0.6,0.1-0.9,0.2c0.3,0-0.2,0-0.3,0c-0.2,0-0.5,0-0.7,0c-0.1,0-0.2,0-0.3,0c-0.4,0,0.2,0.1-0.2,0c-0.2,0-0.4-0.1-0.6-0.2
			c-0.2-0.1,0.3,0.2-0.1,0c-0.1,0-0.2-0.1-0.2-0.1c-0.2-0.1-0.1-0.1,0,0c-0.1-0.1-0.2-0.2-0.3-0.2c-0.2-0.2,0.1,0.3-0.1-0.1
			c0,0-0.2-0.4-0.1-0.2c-0.1-0.2-0.1-0.4-0.2-0.6c0,0-0.1-0.5-0.1-0.3c0,0.2,0-0.3,0-0.2c0-0.2,0-0.4,0-0.6c0-0.1,0-0.2,0-0.4
			c0-0.1,0-0.1,0,0c0-0.1,0-0.1,0-0.2c0.1-0.3,0.1-0.5,0.2-0.8c0-0.1,0.1-0.2,0.1-0.3c0.1-0.4-0.1,0.2,0.1-0.2
			c0.1-0.2,0.2-0.4,0.3-0.6c0.1-0.1,0.1-0.2,0.2-0.3c0-0.1,0.1-0.1,0.1-0.2c-0.1,0.1-0.1,0.1,0,0c0.2-0.2,0.3-0.4,0.5-0.6
			c0.1-0.1,0.1-0.1,0.2-0.2c0,0,0.4-0.3,0.1-0.1c0.2-0.1,0.4-0.3,0.6-0.4c0.1-0.1,0.2-0.1,0.3-0.2c0.1,0,0.1-0.1,0.2-0.1
			c-0.1,0.1-0.1,0.1,0,0c0.8-0.3,1.3-1,1-1.8c-0.2-0.7-1.1-1.3-1.8-1c-2.5,1-4.5,3.1-5.1,5.8c-0.3,1.4-0.3,2.9,0.2,4.2
			c0.6,1.4,1.7,2.4,3.2,2.8c1.4,0.4,2.9,0.2,4.3-0.1c1.5-0.3,2.9-1,3.9-2.1c1.1-1.2,1.6-2.8,1.3-4.4c-0.2-1.5-1.2-2.9-2.2-4
			c-1.2-1.2-2.8-2-4.6-1.7c-1.7,0.3-3,1.6-3.2,3.3c-0.1,0.8,0.8,1.5,1.5,1.5C274.3,57.7,274.8,57,274.9,56.2L274.9,56.2z"/>
	</g>
	<g>
		<path d="M276.1,48.5c-0.8,3.7-1.6,7.3-2.4,11c-0.4,1.7-0.8,3.4-1.5,5c-0.6,1.6-1.2,3-1.3,4.8c-0.1,1.9,2.9,1.9,3,0
			c0.1-1.6,0.9-3.1,1.5-4.6c0.6-1.5,0.9-3.1,1.3-4.7c0.8-3.5,1.6-7.1,2.3-10.6C279.4,47.5,276.5,46.6,276.1,48.5L276.1,48.5z"/>
	</g>
	<g>
		<path d="M279.3,14.6C279.3,14.6,279.3,14.6,279.3,14.6c0.4-0.1,0.9-0.2,1.4-0.3c0,0-0.1,0-0.1,0c0.3,0.2,0.6,0.5,0.9,0.7
			c0,0,0-0.1-0.1-0.1c0.1,0.4,0.1,0.8,0.2,1.2c0-0.1,0-0.1,0-0.2c-0.1,0.2-0.3,0.4-0.4,0.7c0.1-0.1,0.2-0.2,0.4-0.2
			c-0.1,0-0.3,0,0.1,0c0.1,0,0.2,0,0.4,0c0.5,0,0.9,0.1,1.5,0.3c0.9,0.2,1.9,0.6,2.3,1.3c0.3,0.4,0.3,0.6,0.5,1.2
			c0,0.1,0,0.2,0.1,0.3c0.1,0.3,0,0.2,0,0.1c0,0.3,0.1,0.6,0.1,1c0,1,0.1,2.3-0.3,3.2c-0.1,0.4-0.3,0.5-0.5,0.7
			c-0.3,0.2-0.6,0.4-1,0.5c-0.2,0.1-0.5,0.1-0.7,0.2c-0.1,0-0.3,0-0.4,0.1c0.1,0,0.2,0-0.1,0c-0.6,0.1-1.2,0.1-1.7,0.1
			c-0.6,0-1.1,0-1.6-0.2c-0.4-0.1-0.9-0.4-1.1-0.6c-0.7-0.6-1.1-1.3-1.1-2.3c-0.1-2.4,1.9-4,3.9-4.7c0.8-0.3,1.3-1,1-1.8
			c-0.2-0.7-1.1-1.3-1.8-1c-3.2,1.1-6,3.6-6.1,7.2c0,1.7,0.6,3.5,1.9,4.7c1.3,1.3,3.1,1.8,4.9,1.8c3.1,0,7-0.7,7.6-4.4
			c0.5-3.1,0.5-7-2.3-9c-0.8-0.5-1.7-0.9-2.6-1.1c-0.9-0.2-1.8-0.5-2.7-0.4c-1.1,0.1-2.4,0.5-2.8,1.6c-0.3,0.7-0.1,1.5,0.5,2
			c0.7,0.5,1.5,0.4,2.1-0.2c0.6-0.5,0.5-1.6,0-2.1C280.8,14,279.9,14,279.3,14.6L279.3,14.6z"/>
	</g>
	<g>
		<path d="M286,9.1c-1.2,3.8-2.8,7.5-4.5,11.1c-1.7,3.5-3.5,7.1-4.7,10.8c-0.6,1.8,2.3,2.6,2.9,0.8c1.2-3.8,3.1-7.3,4.8-10.8
			c1.7-3.6,3.3-7.3,4.5-11.1C289.5,8,286.6,7.2,286,9.1L286,9.1z"/>
	</g>
	<g>
		<path d="M296.8,17.1c0.8-0.8,1.6-1.7,2.4-2.6c-0.9-0.4-1.7-0.7-2.6-1.1c0,2.2-0.1,4.4-0.3,6.6c-0.2,2.2-0.4,4.4,0.1,6.6
			c0.2,0.8,1.1,1.3,1.8,1c0.8-0.2,1.2-1.1,1-1.8c-0.4-2-0.2-4,0-6c0.2-2.1,0.3-4.2,0.3-6.3c0-1.2-1.7-2.1-2.6-1.1
			c-0.7,0.9-1.5,1.8-2.4,2.6C293.3,16.3,295.4,18.5,296.8,17.1L296.8,17.1z"/>
	</g>
	<g>
		<path d="M300.3,24.6c-1.3,0-2.6,0.1-3.9,0.3c-0.6,0.1-1.1,0.2-1.7,0.3c-0.1,0-0.3,0.1-0.4,0.1c0.3,0,0,0-0.1,0c-0.1,0-0.3,0-0.4,0
			c0.2,0,0.2,0,0,0c-0.1,0-0.2,0-0.2-0.1c-0.8-0.2-1.7,0.3-1.8,1c-0.2,0.8,0.2,1.6,1,1.8c1.4,0.4,2.7,0,4-0.3c0.2,0,0.3-0.1,0.5-0.1
			c0,0,0.5-0.1,0.1,0c0.3,0,0.6-0.1,1-0.1c0.6-0.1,1.3-0.1,1.9-0.1c0.8,0,1.5-0.7,1.5-1.5C301.8,25.3,301.1,24.6,300.3,24.6
			L300.3,24.6z"/>
	</g>
</g>
<g id="Layer_2">
	<g>
		<path d="M457.6,242.5c0,0-0.1,0-0.1,0c0.5,0.4,1,0.7,1.4,1.1c0,0,0-0.1,0-0.1c-0.1,0.4-0.1,0.8-0.2,1.2c0,0,0-0.1,0.1-0.1
			c-0.3,0.2-0.6,0.5-0.9,0.7c0,0,0.1,0,0.1,0c-0.5-0.1-1-0.3-1.5-0.4c-0.1-0.5-0.2-0.6-0.2-0.2c0,0.2,0,0.4,0,0.7c0,0.4,0,0.9,0,1.3
			c0,0.7,0,1.5,0,2.2c0,1.7,0,3.4,0,5c0,3.3,0,6.6,0.1,9.9c0,1.9,3,1.9,3,0c-0.1-4.4-0.2-8.8-0.3-13.3c-0.1-2.1-0.1-4.1-0.2-6.2
			c0-0.3-0.2-1.4,0-1.6c0,0,0.9-0.1,1-0.1c0.9,0,1.8,0.3,2.6,0.6c2.1,0.9,7.3,3.4,4.9,6.4c-2.4,3-6.8,0.9-9.4-0.4
			c-1.7-0.8-3.2,1.7-1.5,2.6c3.4,1.7,7.2,3.3,10.9,1.6c3.2-1.5,4.6-5,2.9-8.2c-0.9-1.6-2.5-2.8-4.1-3.6c-1.7-0.9-3.6-1.8-5.5-1.9
			c-1.7-0.2-4,0.4-4.5,2.3c-0.2,0.9-0.1,1.9,0,2.8c0,1.2,0.1,2.4,0.1,3.5c0.1,5.2,0.3,10.3,0.4,15.5c1,0,2,0,3,0
			c-0.1-4.6-0.2-9.2-0.1-13.8c0-1.1,0-2.2,0.1-3.3c0-1,0.2-2.1-0.1-3.1c-0.3-0.9-1.2-1.4-2.1-1.1c-1,0.3-1.2,1.2-1.1,2.1
			c0.1,0.7,0.8,1,1.4,1.1c0,0,0.1,0,0.1,0C459.5,245.7,459.5,242.7,457.6,242.5L457.6,242.5z"/>
	</g>
	<g>
		<path d="M478.1,247.9c0.9,0.2,1.8,0.1,2.6-0.4c1.3-0.8,0.7-2.7-0.8-2.8c-4.3-0.2-8.6,2.4-10.4,6.2c-0.5,1-0.8,2-1,3.1
			c-0.2,1.6,0.3,2.7,1.5,3.7c1.9,1.4,4.2,2.2,6.5,2.4c2.7,0.3,5.4-0.2,7.8-1.4c0.7-0.4,0.9-1.4,0.5-2.1c-0.4-0.7-1.3-0.9-2.1-0.5
			c-3.1,1.5-6.9,1.4-9.9-0.2c-0.5-0.3-1.5-0.6-1.4-1.3c0-0.7,0.3-1.5,0.6-2.1c0.7-1.4,1.7-2.7,3-3.5c1.5-1,3.2-1.5,4.9-1.4
			c-0.3-0.9-0.5-1.9-0.8-2.8c-0.2,0.1-0.1,0.1-0.3,0.1c-0.8-0.2-1.6,0.2-1.8,1C476.9,246.8,477.3,247.7,478.1,247.9L478.1,247.9z"/>
	</g>
	<g>
		<path d="M485,244.5c1.1,4.7,1.4,9.5,0.9,14.2c1-0.1,2-0.3,2.9-0.4c-0.4-2-0.5-4-0.3-6c0.1-0.8-0.8-1.5-1.5-1.5
			c-0.9,0-1.4,0.7-1.5,1.5c-0.3,2.3-0.1,4.6,0.4,6.8c0.2,0.7,0.9,1.2,1.6,1.1c0.8-0.1,1.2-0.7,1.3-1.5c0.5-5,0.1-10.1-1-15
			C487.5,241.8,484.6,242.6,485,244.5L485,244.5z"/>
	</g>
	<g>
		<path d="M488.4,244.8c0.1-0.5,1.2-0.4,1.7-0.4c1.1,0,2.5,0,3.5,0.7c0.8,0.6,0.8,1.4,0.2,2.2c-0.8,1-2.1,1.3-3.3,1.7
			c-1.6,0.5-1.4,3,0.4,2.9c3.5-0.2,7.4,2.1,8.1,5.7c0.2,0.8-0.1,1-0.8,1.1c-1.1,0.2-2.2,0-3.3-0.1c-2.5-0.3-4.9-0.9-7.2-1.8
			c-0.8-0.3-1.6,0.3-1.8,1c-0.2,0.8,0.3,1.6,1,1.8c3.1,1.2,6.3,1.8,9.6,2c1.2,0.1,2.5,0.1,3.7-0.5c1.3-0.7,2-2.1,1.8-3.5
			c-0.5-5.3-6.2-9.1-11.1-8.8c0.1,1,0.3,2,0.4,2.9c2-0.6,4.2-1.4,5.3-3.4c1-1.9,0.7-4.1-0.9-5.5c-1.6-1.4-3.9-1.6-6-1.6
			c-1.8,0.1-3.8,0.7-4.2,2.6C485.1,245.9,488,246.7,488.4,244.8L488.4,244.8z"/>
	</g>
	<g>
		<path d="M403.9,115c-0.1-1.1,0.6-1.8,1.3-2.5c0.4-0.4,0.9-0.8,1.4-1.2c0.2-0.1,0.4-0.3,0.6-0.4c-0.1,0,0.6-0.2,0.5-0.1
			c-0.1,0.1,0-0.5-0.1,0.1c0-0.2-0.1,0.3-0.1,0.3c-0.1,0.2-0.1,0.4-0.2,0.7c-0.3,1-0.6,2.1,0,3c0.6,1.2,1.9,1.3,3.1,1.6
			c1,0.2,1.9,0.6,2.8,1.2c1.6,1.1,1.8,2.9,0.4,4.3c-2.1,2.1-5.5,1.6-8.1,1.2c-0.8-0.1-1.5,0.8-1.5,1.5c0,0.9,0.7,1.4,1.5,1.5
			c3.4,0.4,7,0.7,9.7-1.6c2.4-2,3.1-5.5,1.1-8c-0.9-1.1-2.2-1.8-3.5-2.4c-0.6-0.2-1.1-0.4-1.7-0.6c-0.3-0.1-0.6-0.1-1-0.2
			c0.2,0.1-0.3-0.1-0.3-0.1c-0.1,0.2,0.4,0.3,0.2,0.1c0,0,0,0.1,0,0.1c0-0.2,0-0.2,0-0.1c-0.1,0.2,0.1-0.3,0.1-0.3
			c0.1-0.2,0.1-0.4,0.2-0.7c0.2-0.6,0.4-1.2,0.4-1.9c0-1.6-1.3-2.9-2.9-2.9c-1.8,0-3.3,1.4-4.5,2.5c-1.3,1.3-2.4,2.9-2.2,4.7
			c0.1,0.8,0.7,1.5,1.5,1.5C403.2,116.5,404,115.8,403.9,115L403.9,115z"/>
	</g>
	<g>
		<path d="M417.4,107.1c0.6,5.1,1.6,10.2,3,15.2c0.4,1.6,3.2,1.3,2.9-0.4c-0.4-2.8-0.8-5.6-1.4-8.4c-0.3-1.4-0.6-2.7-1-4.1
			c-0.2-0.6-0.3-1.3-0.5-1.9c-0.2-0.5-0.5-1.3-0.5-1.8c-0.1,0.3-0.1,0.5-0.2,0.8c0,0,0,0,0,0c-0.2,0.1-0.4,0.3-0.7,0.4
			c1.1-0.4,2.6-0.5,3.7-0.3c1,0.1,1.8,0.5,2.6,1.1c1.6,1.1,2.8,2.8,3.6,4.6c0.5,1.1,1.6,3.7,0.4,4.8c-0.7,0.6-2.1,0.4-2.9,0.3
			c-1.3-0.1-2.6-0.3-3.9-0.6c-1.9-0.4-2.7,2.5-0.8,2.9c1.9,0.4,3.9,0.7,5.8,0.8c1.7,0,3.4-0.4,4.4-1.9c1.8-2.6,0.4-6.4-1-8.8
			c-1.5-2.7-3.8-5.1-6.8-5.9c-1.8-0.5-3.8-0.4-5.6,0.1c-1,0.2-1.7,1-1.7,2c0,0.9,0.4,1.9,0.7,2.8c1.3,4.3,2.2,8.8,2.8,13.3
			c1-0.1,2-0.3,2.9-0.4c-1.3-4.7-2.3-9.5-2.8-14.4c-0.1-0.8-0.6-1.5-1.5-1.5C418.2,105.6,417.3,106.3,417.4,107.1L417.4,107.1z"/>
	</g>
	<g>
		<path d="M441.9,107.2c1.6,5.6,3.2,11.3,4.7,17c0.5,1.9,3.4,1.1,2.9-0.8c-0.9-3.4-1.8-6.7-2.7-10.1c-0.4-1.4-0.9-2.9-1.1-4.3
			c-0.1-0.8-0.2-2,0.6-2.5c0.9-0.5,2.2,0.1,3,0.5c0.8,0.5,2.2,1.4,2.3,2.5c0,1.1-1.3,1.9-2.2,2.4c-1.3,0.7-2.8,1-4.3,1
			c-1.9,0-1.9,3,0,3c2.9,0.1,6.3-1,8.2-3.2c1-1.2,1.5-2.7,1.1-4.2c-0.4-1.4-1.5-2.5-2.7-3.4c-2.2-1.6-5.6-2.6-7.8-0.4
			c-2.1,2.2-1.1,5.4-0.5,8c1,3.9,2.1,7.8,3.1,11.7c1-0.3,1.9-0.5,2.9-0.8c-1.5-5.7-3.1-11.3-4.7-17
			C444.3,104.5,441.4,105.3,441.9,107.2L441.9,107.2z"/>
	</g>
	<g>
		<path d="M457.6,109.6c0.9,2.7,1.5,5.5,1.9,8.3c1-0.1,2-0.3,2.9-0.4c-0.7-2.8-1.6-5.6-2.2-8.4c-0.2-1-0.3-2.3,0.3-3.2
			c0.4-0.6,1.2-0.9,1.9-0.9c1.6,0,2.8,2,1.8,3.4c-0.5,0.7-1.2,1-2,1.1c-1.7,0.2-2.6,1.8-1.6,3.3c0.8,1.2,2.6,1.9,3.9,2.4
			c1.4,0.6,2.9,1.1,4.4,1.4c0.8,0.2,1.6-0.2,1.8-1c0.2-0.7-0.2-1.7-1-1.8c-1.3-0.3-2.6-0.6-3.8-1.1c-0.6-0.2-1.1-0.5-1.7-0.8
			c-0.3-0.1-0.6-0.4-0.9-0.5c-0.5-0.1-0.1-0.3-0.1,0.1c-0.1,0.3-0.1,0.5-0.2,0.8c-0.1,0.2-0.9,0.3-0.4,0.4c0.1,0,0.3,0,0.4,0
			c0.3,0,0.5-0.1,0.8-0.2c0.5-0.2,1-0.4,1.5-0.7c0.9-0.7,1.7-1.6,2-2.7c0.8-2.2-0.3-4.6-2.1-5.9c-1.8-1.3-4.3-1.1-6,0.1
			c-2.1,1.6-2.4,4.1-2,6.6c0.5,2.9,1.5,5.8,2.3,8.7c0.2,0.7,0.9,1.2,1.6,1.1c0.7-0.1,1.4-0.7,1.3-1.5c-0.4-3.1-1-6.1-2-9.1
			C459.9,107,457,107.8,457.6,109.6L457.6,109.6z"/>
	</g>
	<g>
		<path d="M470.1,105.2c0.7,3.1,1.7,6.1,2.8,9c0.3,0.7,1,1.3,1.8,1c0.8-0.3,1.2-1,1-1.8c-0.1-0.3-0.1-0.6-0.2-0.8
			c-0.2-0.8-1.1-1.3-1.8-1c-0.8,0.3-1.2,1-1,1.8c0.1,0.3,0.1,0.6,0.2,0.8c1-0.3,1.9-0.5,2.9-0.8c-1.2-2.9-2.1-5.9-2.8-9
			c-0.2-0.8-1.1-1.3-1.8-1C470.3,103.6,469.9,104.4,470.1,105.2L470.1,105.2z"/>
	</g>
	<g>
		<path d="M477.1,103.7c0.9,3.3,2.2,6.5,3.8,9.5c0.7,1.3,2.7,0.7,2.8-0.8c0.1-3.1,0-6.3-0.2-9.4c-0.6,0.5-1.3,1-1.9,1.4
			c1.6,0.5,2.6,2.4,3.6,3.6c1.4,1.6,3.7,3.5,5.9,2.2c2-1.2,2.7-4,2.6-6.2c-0.2-2.6-1.4-4.9-2.6-7.2c-0.9-1.7-3.5-0.2-2.6,1.5
			c0.9,1.7,2,3.5,2.2,5.4c0.1,0.9,0,1.7-0.3,2.6c-0.1,0.4-0.5,1.3-1,1.3c-0.6,0-1.3-0.9-1.6-1.3c-0.5-0.6-1-1.2-1.5-1.8
			c-1.1-1.3-2.2-2.4-3.8-3c-0.9-0.3-2,0.5-1.9,1.4c0.2,3.1,0.3,6.3,0.2,9.4c0.9-0.3,1.9-0.5,2.8-0.8c-1.5-2.8-2.7-5.7-3.5-8.8
			C479.5,101.1,476.6,101.8,477.1,103.7L477.1,103.7z"/>
	</g>
	<g>
		<path d="M498.5,95.9c2.1,4.2,3.5,8.7,4.1,13.3c0.9-0.4,1.8-0.8,2.7-1.2c-0.4-0.7-0.7-1.6-0.8-2.4c-0.1-0.8-0.6-1.5-1.5-1.5
			c-0.7,0-1.6,0.7-1.5,1.5c0.2,1.4,0.5,2.7,1.2,3.9c0.3,0.7,1.2,0.9,1.9,0.6c0.7-0.3,1-1,0.9-1.8c-0.7-4.9-2.2-9.6-4.4-14
			c-0.4-0.7-1.4-0.9-2.1-0.5C498.3,94.3,498.1,95.2,498.5,95.9L498.5,95.9z"/>
	</g>
	<g>
		<path d="M509.8,93.6c0.4-0.3,0.7-0.6,1.1-0.9c1.2-1-0.1-2.8-1.5-2.5c-5,1.2-10,2.2-15.1,2.8c0.4,0.9,0.7,1.7,1.1,2.6
			c0.1-0.1,0.2-0.2,0.4-0.3c0.6-0.5,0.5-1.6,0-2.1c-0.6-0.6-1.5-0.5-2.1,0c-0.1,0.1-0.2,0.2-0.4,0.3c-0.9,0.8-0.2,2.7,1.1,2.6
			c5.4-0.7,10.7-1.7,15.9-2.9c-0.5-0.8-1-1.7-1.5-2.5c-0.4,0.3-0.7,0.6-1.1,0.9c-0.6,0.5-0.5,1.6,0,2.1
			C508.3,94.2,509.2,94.1,509.8,93.6L509.8,93.6z"/>
	</g>
	<g>
		<path d="M245.9,316.7c0-0.3,0-0.5,0-0.8c-1,0-2,0-3,0c0,3.3,0,6.5,0,9.8c0,0.8,0,1.5,0,2.3c0,0.8-0.1,1.7,0.3,2.3
			c0.5,0.9,1.6,1.1,2.4,0.5c0.6-0.5,0.9-1.5,0.4-2.2c-0.4-0.6-1-0.8-1.7-0.7c0,0,0,0-0.1,0c-0.8,0.1-1.2,1.1-1,1.8
			c0.2,0.9,1,1.2,1.8,1c0,0,0,0,0.1,0c-0.6-0.2-1.1-0.5-1.7-0.7c0,0,0,0,0,0c-0.1-0.3-0.1-0.5-0.2-0.8c0-0.1,0-0.2,0-0.2
			c0.1-0.2,0.3-0.4,0.4-0.7c0,0,0,0-0.1,0.1c0.4-0.1,0.7-0.3,1.1-0.4c0,0-0.1,0-0.1,0c0.3,0.1,0.5,0.1,0.8,0.2c0,0-0.1,0-0.1-0.1
			c0.2,0.2,0.4,0.4,0.5,0.5c0.1,0.4,0.1,0.4,0.1,0.1c0-0.1,0-0.2,0-0.3c0-0.3,0-0.6,0-0.9c0-0.5,0-1.1,0-1.6c0-1.1,0-2.3,0-3.4
			c0-2.3,0-4.5,0-6.8c0-1.9-3-1.9-3,0c0,0.3,0,0.5,0,0.8C242.9,318.6,245.9,318.6,245.9,316.7L245.9,316.7z"/>
	</g>
	<g>
		<path d="M248.8,322.2c-0.1,2.2-0.2,4.4-0.3,6.7c0,0.7,0.6,1.4,1.3,1.5c0.7,0.1,1.5-0.3,1.6-1.1c0.4-2.5,0.8-5,1.8-7.4
			c-0.9,0.1-1.8,0.2-2.7,0.4c1.1,1.4,2.2,2.8,3.5,4c1.1,1.1,2.6,2.9,4.4,2.5c2.2-0.5,1.6-3.4,1.6-5c0-1.9,0-3.7,0-5.6
			c0-0.8-0.7-1.5-1.5-1.5c-0.8,0-1.5,0.7-1.5,1.5c0,1.5,0,3,0,4.5c0,0.7,0,1.4,0,2.1c0,0.4,0,0.7,0,1.1c0,0.1,0,0.5,0,0.6
			c-0.1-0.3,0.4-0.6,0.7-0.6c0,0,0.3,0,0.3,0c0,0-0.4-0.2-0.2-0.1c-0.1-0.1-0.4-0.4-0.6-0.5c-0.5-0.5-1-1-1.5-1.5
			c-0.9-1-1.8-1.9-2.6-3c-0.8-1.1-2.2-0.9-2.7,0.4c-0.9,2.4-1.4,4.9-1.8,7.4c1,0.1,2,0.3,2.9,0.4c0.1-2.2,0.2-4.4,0.3-6.7
			c0-0.8-0.7-1.5-1.5-1.5C249.4,320.7,248.8,321.4,248.8,322.2L248.8,322.2z"/>
	</g>
	<g>
		<path d="M274.2,315.2c-2.6-2.1-6-0.8-8.1,1.4c-2,2.2-3.2,5.1-3.3,8.1c0,1.6,0.5,3.2,2,4c1.3,0.7,2.7,0.7,4.1,0.5
			c2.9-0.5,6-2.1,7.8-4.5c1-1.5,1.1-3.7-0.6-4.8c-0.9-0.6-1.9-0.4-2.9-0.2c-1,0.2-1.9,0.5-2.9,0.7c-1.9,0.5-1.1,3.4,0.8,2.9
			c0.6-0.2,1.3-0.3,1.9-0.5c0.2,0,1.6-0.3,1.6-0.4c0,0-0.4-0.3-0.2-0.1c0.1,0.1,0-0.1,0,0c0.1,0.2,0.1-0.2,0,0.1
			c0,0.2-0.1,0.4-0.4,0.7c-1.4,1.5-3.2,2.5-5.2,2.9c-0.4,0.1-0.8,0.2-1.2,0.2c-0.2,0-0.5,0-0.7,0c-0.3,0,0.2,0-0.1,0
			c-0.1,0-0.3-0.1-0.4-0.1c0,0-0.4-0.2-0.2-0.1c0.1,0.1-0.1-0.1-0.2-0.1c-0.2-0.1,0.1,0.1,0,0c0,0-0.2-0.3-0.1-0.1
			c0.1,0.1-0.1-0.2,0-0.1c0,0.1-0.1-0.4-0.1-0.3c0-0.1,0-0.5,0-0.6c0-2,0.7-3.9,1.9-5.5c0.6-0.8,1.3-1.5,2.3-1.9
			c0.2-0.1,0.4-0.1,0.6-0.2c0.4-0.1,0.2-0.1,0.6-0.1c0.1,0,0.2,0,0.3,0c-0.2,0,0.2,0,0.2,0.1c0.1,0,0.3,0.1,0.3,0.1
			c0.6,0.5,1.5,0.6,2.1,0C274.8,316.8,274.9,315.7,274.2,315.2L274.2,315.2z"/>
	</g>
	<g>
		<path d="M281.2,320.6c-0.9,2.5-1.8,4.9-2.7,7.4c1,0.3,1.9,0.5,2.9,0.8c0.5-1.6,1.1-3.2,1.7-4.8c0.3-0.8,0.6-1.6,0.9-2.4
			c0.1-0.4,0.3-0.7,0.4-1.1c0,0,0.2-0.5,0.1-0.3c-0.1,0.1-0.1,0.1,0,0c-0.2,0.2-0.3,0.2-0.6,0.2c-0.3-0.1-0.5-0.1-0.8-0.2
			c-0.1,0-0.1-0.1-0.2-0.1c-0.1-0.2-0.3-0.4-0.4-0.7c0.5,2.5,1.4,4.8,2.6,7.1c0.5,1.1,1.2,2.1,1.9,3.1c0.5,0.7,1,1.2,1.9,1.2
			c1,0,1.7-0.7,1.8-1.7c0.1-0.8-0.8-1.5-1.5-1.5c-0.9,0-1.4,0.7-1.5,1.5c0,0,0,0.1,0,0.1c0.1-0.3,0.1-0.5,0.2-0.8c0,0,0,0,0,0.1
			c0.2-0.2,0.4-0.4,0.5-0.5c0,0,0,0-0.1,0c0.3-0.1,0.5-0.1,0.8-0.2c-0.1,0-0.2,0,0.2,0.1c0.1,0,0.2,0,0.2,0.1c0,0,0.1,0.1,0.1,0.1
			c0,0,0.1,0.2,0,0c-0.1-0.1-0.1-0.2-0.2-0.3c-0.2-0.3-0.4-0.6-0.6-1c-0.4-0.6-0.8-1.3-1.1-2c-0.7-1.3-1.2-2.5-1.6-4
			c-0.2-0.7-0.4-1.5-0.6-2.2c-0.4-1.2-1.8-1.5-2.7-0.9c-0.9,0.5-1.1,1.5-1.5,2.4c-0.3,0.8-0.6,1.6-0.9,2.4c-0.7,1.8-1.3,3.6-1.9,5.4
			c-0.2,0.8,0.3,1.6,1,1.8c0.8,0.2,1.6-0.3,1.8-1c0.9-2.5,1.8-4.9,2.7-7.4c0.3-0.8-0.3-1.6-1-1.8
			C282.2,319.4,281.4,319.9,281.2,320.6L281.2,320.6z"/>
	</g>
	<g>
		<path d="M286.5,323.9c-1.5,0.2-3,0.5-4.5,1c-0.4,0.1-0.7,0.3-0.9,0.7c-0.2,0.3-0.3,0.8-0.2,1.2c0.2,0.7,1.1,1.3,1.8,1
			c1.2-0.4,2.4-0.7,3.7-0.9c-0.1,0-0.3,0-0.4,0.1c0.1,0,0.3,0,0.4,0c0.4,0,0.8-0.1,1.1-0.4c0.3-0.3,0.5-0.7,0.4-1.1
			c0-0.4-0.1-0.8-0.4-1.1C287.3,324.1,286.9,323.9,286.5,323.9L286.5,323.9z"/>
	</g>
	<g>
		<path d="M296.2,310.9C296.2,310.9,296.2,310.9,296.2,310.9c0.2,0.5,0.4,1.1,0.6,1.7c0,0,0-0.1,0-0.1c-0.3,0.3-0.7,0.7-1,1
			c0,0,0.1,0,0.1,0c-0.6-0.2-1.1-0.5-1.7-0.7c0,0,0.1,0.1,0.1,0.1c-0.1-0.3-0.1-0.5-0.2-0.8c0,1.3-0.3,2.8-0.5,4.1
			c-0.2,1.4-0.4,2.8-0.6,4.3c-0.4,2.9-0.9,5.7-1.4,8.5c1,0.1,2,0.3,2.9,0.4c0.3-2.7,0.7-5.4,1.2-8.1c0.2-1.3,0.5-2.6,0.8-4
			c0.1-0.7,0.3-1.3,0.5-2c0.1-0.4,0.2-0.7,0.3-1.1c0-0.1,0.1-0.2,0.1-0.4c0.2-0.4,0-0.4-0.4,0c-0.3-0.1-0.5-0.1-0.8-0.2
			c-0.1-0.2-0.1-0.2,0,0c0.1,0.2,0.1,0.3,0.1,0.5c0.1,0.3,0.1,0.7,0.2,1.1c0.1,0.8,0.3,1.6,0.5,2.5c0.4,1.6,0.8,3.3,1.3,4.9
			c1,3.2,2.2,6.3,3.6,9.4c0.5,1.1,2.1,0.9,2.6,0c0.6-1,0.6-2.2,0-3.3c-1.1-1.6-3.7-0.1-2.6,1.5c0.1,0.2,0.2,0,0,0.2
			c0.9,0,1.7,0,2.6,0c-1.5-3.2-2.7-6.6-3.7-10c-0.5-1.7-0.9-3.5-1.2-5.2c-0.3-1.4-0.3-3.2-1.7-3.9c-1.6-0.9-2.9,0.5-3.4,1.9
			c-0.5,1.7-0.9,3.6-1.3,5.4c-0.7,3.6-1.3,7.3-1.7,10.9c-0.2,1.7,2.6,2.1,2.9,0.4c0.6-3.1,1.1-6.3,1.5-9.5c0.2-1.6,0.4-3.1,0.6-4.7
			c0.1-0.7,0.2-1.5,0.3-2.2c0.1-0.7,0.3-1.6-0.2-2.2c-0.4-0.5-1-0.9-1.7-0.7c-0.6,0.2-1,0.6-1.2,1.2c-0.1,0.6,0.1,1.4,0.7,1.7
			c0,0,0,0,0.1,0C296.5,314.4,298,311.8,296.2,310.9L296.2,310.9z"/>
	</g>
	<g>
		<path d="M300,320.8c-1.6,0.1-3.1,0.2-4.7,0.3c-0.4,0-0.8,0.1-1.1,0.4c-0.3,0.3-0.5,0.7-0.4,1.1c0,0.8,0.7,1.6,1.5,1.5
			c1.6-0.1,3.1-0.2,4.7-0.3c0.4,0,0.8-0.1,1.1-0.4c0.3-0.3,0.5-0.7,0.4-1.1C301.5,321.5,300.8,320.7,300,320.8L300,320.8z"/>
	</g>
	<g>
		<path d="M310.9,322.1c0.6-2.2-1.8-3.3-3.6-3.2c-1.7,0.1-3.7,0.7-4.2,2.5c-0.3,1.1,0,2.2,0.8,3c0.7,0.8,1.7,1.1,2.7,1.4
			c0.2,0.1,0.4,0.1,0.7,0.2c0,0,0.4,0.1,0.2,0.1c-0.2-0.1,0.1,0.1,0.1,0.1c0.2,0.1,0.3,0.2,0.5,0.3c0,0,0.3,0.2,0.1,0.1
			c-0.1-0.1,0.1,0.1,0.2,0.2c0.1,0.1,0.3,0.3,0.4,0.4c0.2,0.2,0.1,0.1,0,0c0.1,0.1,0.1,0.2,0.2,0.2c0.1,0.2,0.2,0.4,0.3,0.6
			c0.1,0.2-0.1-0.2,0,0c0,0.1,0.1,0.2,0.1,0.3c0.1,0.4,0,0.1,0,0c0,0,0.2-0.5,0.3-0.4c0,0-0.6,0.3-0.6,0.3c0,0-0.3,0.1-0.5,0.2
			c-0.3,0.1-0.5,0.2-0.8,0.2c-0.5,0.1-0.7,0.1-1.2,0.2c-0.3,0-0.5,0-0.8,0c-0.1,0-0.2,0-0.3,0c-0.3,0,0.1,0-0.3,0
			c-0.8-0.1-1.7,0.2-1.8,1c-0.2,0.7,0.2,1.7,1,1.8c1.8,0.3,3.7,0.2,5.5-0.5c1-0.4,2.2-0.9,2.5-2.1c0.3-1-0.2-2-0.6-2.9
			c-0.9-1.5-2.3-2.6-4-3.1c-0.4-0.1-0.8-0.2-1.2-0.4c0.1,0,0.1,0.1-0.1,0c-0.1,0-0.2-0.1-0.2-0.1c0.2,0.2-0.3-0.3-0.1,0
			c-0.2-0.2-0.1-0.3-0.1,0c0,0-0.1-0.3,0,0c0,0.2,0,0,0-0.1c0.1-0.2-0.1,0.3,0,0.1c0.1-0.1-0.1,0.1-0.1,0.1c0,0,0.1-0.1,0.1-0.1
			c-0.2,0.2-0.1,0.1,0,0c0.1,0,0.1-0.1,0.2-0.1c0.1-0.1-0.2,0.1,0,0c0.2-0.1,0.3-0.1,0.5-0.1c0.1,0,0.6-0.1,0.3-0.1
			c0.2,0,0.3,0,0.5,0c0.1,0,0.2,0,0.2,0c0,0,0.4,0,0.2,0c-0.2,0,0,0,0,0c0.1,0,0.2,0.1,0.4,0.1c0,0-0.2-0.1-0.1,0
			c0.2,0.1,0.1,0.1,0,0c0.1,0.2,0-0.1,0-0.1c-0.1-0.2-0.1-0.4-0.1-0.6c-0.2,0.8,0.2,1.7,1,1.8C309.8,323.3,310.6,322.9,310.9,322.1
			L310.9,322.1z"/>
	</g>
	<g>
		<path d="M247.6,341.6c0.4,0,0.7,0,1.1-0.1c-0.1-1-0.3-2-0.4-2.9c-0.9,0.3-1.8,0.7-2.8,1c-1,0.4-2,0.9-2.3,2
			c-0.5,2.2,1.7,3.5,3.1,4.6c0.7,0.5,1.5,1,2.1,1.5c0.5,0.4,1.1,0.9,1.2,1.5c0-0.2-0.1,0.3,0,0c0,0.1-0.1,0.4,0,0.2
			c0,0.1-0.1,0.1-0.1,0.2c-0.1,0.2,0.1-0.1,0,0c-0.1,0.1-0.4,0.3-0.2,0.2c-0.6,0.4-0.9,0.5-1.6,0.6c0.2,0-0.3,0-0.4,0
			c-0.2,0-0.5,0-0.7,0c-0.5,0-1,0-1.4-0.1c-1-0.2-2-0.4-3-0.8c-0.7-0.3-1.6-0.2-2.1,0.5c-0.4,0.6-0.2,1.7,0.5,2.1
			c3.1,1.4,7.9,2.4,10.8-0.2c1.4-1.3,1.5-3.4,0.4-4.9c-1.2-1.6-3-2.6-4.6-3.8c-0.4-0.3-0.7-0.5-1-0.8c-0.1-0.1-0.1-0.1,0-0.1
			c-0.1-0.2,0-0.1-0.1,0c0,0-0.1,0.4-0.2,0.4c0,0,2.8-1.1,3.1-1.2c0.7-0.3,1.2-0.9,1.1-1.6c-0.1-0.7-0.7-1.4-1.5-1.3
			c-0.4,0-0.7,0-1.1,0.1c-0.8,0.1-1.5,0.6-1.5,1.5C246.1,340.9,246.8,341.7,247.6,341.6L247.6,341.6z"/>
	</g>
	<g>
		<path d="M259.2,340.4c-1.9,0.9-4.1,2.2-5.1,4.2c-0.6,1.1-0.8,2.4-0.4,3.7c0.4,1.2,1.2,2.2,2.2,2.9c1.2,0.8,2.6,1,4,0.7
			c0.8-0.2,1.3-1.1,1-1.8c-0.3-0.8-1-1.3-1.8-1c-0.1,0-0.6,0-0.2,0c-0.1,0-0.2,0-0.3,0c-0.1,0-0.2,0-0.2,0c0.2,0,0.2,0,0.1,0
			c-0.1-0.1-0.3-0.1-0.4-0.1c-0.1,0-0.4-0.2-0.1,0c-0.1-0.1-0.3-0.1-0.4-0.2c-0.1-0.1-0.2-0.1-0.3-0.2c0.3,0.2,0,0-0.1-0.1
			c-0.1-0.1-0.2-0.2-0.3-0.3c-0.3-0.3,0.1,0.2,0-0.1c-0.1-0.1-0.1-0.2-0.2-0.3c0-0.1-0.2-0.5-0.1-0.1c0-0.1-0.1-0.2-0.1-0.3
			c0-0.1,0-0.1,0-0.2c0,0.2,0,0.2,0,0.1c0-0.1,0-0.2,0-0.3c0-0.3-0.1,0.3,0-0.1c0-0.1,0.1-0.3,0.1-0.4c0-0.1,0.2-0.4,0-0.1
			c0.1-0.2,0.3-0.5,0.4-0.7c0.2-0.3-0.2,0.2,0-0.1c0.1-0.1,0.2-0.2,0.3-0.3c0.2-0.2,0.4-0.4,0.6-0.5c0.3-0.2-0.1,0.1,0.1-0.1
			c0.1-0.1,0.2-0.1,0.3-0.2c0.2-0.2,0.5-0.3,0.7-0.5c0.5-0.3,1-0.6,1.5-0.8c0.7-0.3,1-1.4,0.5-2.1C260.8,340.2,260,340,259.2,340.4
			L259.2,340.4z"/>
	</g>
	<g>
		<path d="M259.6,343.6c-1.7,0-3.3,0-5,0c-0.8,0-1.5,0.7-1.5,1.5c0,0.8,0.7,1.5,1.5,1.5c1.7,0,3.3,0,5,0c0.8,0,1.5-0.7,1.5-1.5
			C261.1,344.3,260.5,343.6,259.6,343.6L259.6,343.6z"/>
	</g>
	<g>
		<path d="M263.2,343.3c-0.2,2.8-0.2,5.6,0,8.4c0.1,0.7,0.5,1.4,1.3,1.5c0.7,0.1,1.5-0.3,1.6-1.1c0.5-2.2,1-4.4,1.7-6.6
			c0.2-0.6,0.3-1.1,0.5-1.7c0.2-0.5,0.2-0.3-0.5-0.1c-0.7,0.2-0.6,0-0.4,0.3c0.5,0.7,0.9,1.5,1.3,2.3c0.7,1.6,2.2,4.4,4.4,3.7
			c1-0.3,1.7-1.4,2.1-2.3c0.4-0.9,0.6-1.8,0.8-2.8c0.2-2.1-0.2-4.3-0.8-6.3c-0.5-1.9-3.4-1.1-2.9,0.8c0.4,1.7,0.8,3.3,0.7,5.1
			c0,0.7-0.2,1.4-0.5,2c-0.1,0.2-0.2,0.3-0.3,0.5c0,0-0.3,0.3-0.3,0.4c0-0.3,1.1,0.4,0.9-0.1c0-0.1-0.1-0.1-0.2-0.2
			c-0.1-0.1-0.2-0.3-0.3-0.4c-1-1.4-1.4-3.1-2.5-4.4c-0.7-0.9-1.9-1.6-3.1-1c-1,0.6-1.2,1.8-1.5,2.8c-0.7,2.4-1.4,4.9-1.9,7.3
			c1,0.1,2,0.3,2.9,0.4c-0.2-2.8-0.2-5.6,0-8.4c0.1-0.8-0.7-1.5-1.5-1.5C263.9,341.8,263.3,342.5,263.2,343.3L263.2,343.3z"/>
	</g>
	<g>
		<path d="M281.1,342.8c0.7-0.1,1.3-0.2,2-0.3c-0.3-1-0.5-1.9-0.8-2.9c-1.6,0.5-3.3,1.4-4.4,2.8c-0.8,0.9-1,2.2-0.1,3.2
			c0.5,0.6,1.3,0.8,2,0.9c0.2,0,0.3,0,0.5,0.1c0.2,0-0.2,0,0,0c0.2,0,0.3,0.1,0.5,0.1c0.4,0.1,0.8,0.2,1.1,0.3c0.2,0.1-0.2-0.1,0,0
			c0.1,0,0.1,0.1,0.2,0.1c0.2,0.1,0.3,0.2,0.5,0.3c0.2,0.1,0.3,0.2,0.5,0.3c0.1,0.1,0.4,0.3,0.2,0.2c0.3,0.2,0.6,0.5,0.8,0.7
			c0.1,0.1,0.2,0.3,0.4,0.4c-0.2-0.2,0.1,0.2,0.2,0.2c0.1,0.2,0.2,0.3,0.3,0.5c0.1,0.2,0,0.1,0,0c0.2-0.3-0.1-0.8,0.4-0.9
			c-0.1,0-0.3,0.2-0.4,0.2c-0.2,0.1,0.2-0.1,0,0c-0.1,0-0.2,0.1-0.3,0.1c-0.1,0-0.2,0-0.3,0.1c-0.3,0.1,0.1,0-0.1,0
			c-0.2,0-0.4,0-0.7,0c-0.2,0-0.4,0-0.6,0c0.2,0,0,0,0,0c-0.1,0-0.3-0.1-0.4-0.1c-0.9-0.2-1.8-0.5-2.6-0.9c-0.7-0.3-1.7,0.3-1.8,1
			c-0.2,0.9,0.3,1.5,1,1.8c1.6,0.6,3.3,1.2,5,1.1c1-0.1,1.9-0.3,2.7-0.8c0.5-0.3,1-0.8,1.1-1.3c0.2-0.6,0-1.3-0.3-1.8
			c-0.8-1.4-2-2.7-3.4-3.5c-0.7-0.4-1.5-0.8-2.3-1c-0.4-0.1-0.8-0.2-1.1-0.2c0.1,0-0.6-0.1-0.2,0c0.2,0,0,0-0.1,0
			c-0.2,0-0.3-0.1-0.5-0.1c0.2,0,0.2,0.1,0.1,0c-0.2-0.1,0.1,0.1,0.1,0.1c0.1,0.2,0.1,0.3,0.1,0.5c0,0.1,0,0.2,0,0.3
			c0,0,0-0.1,0.1-0.1c-0.1,0-0.1,0.1,0,0c0.1-0.1,0.2-0.2,0.3-0.3c0.1-0.1,0.3-0.3,0.5-0.4c-0.2,0.1,0,0,0.1,0
			c0.1-0.1,0.2-0.2,0.4-0.3c0.2-0.1,0.4-0.2,0.6-0.3c0.1,0,0.2-0.1,0.3-0.1c0,0,0.3-0.2,0.1-0.1c0.2-0.1,0.5-0.2,0.7-0.3
			c0.7-0.2,1.3-1.1,1-1.8c-0.3-0.8-1-1.2-1.8-1c-0.7,0.1-1.3,0.2-2,0.3c-0.8,0.1-1.3,1.1-1,1.8C279.5,342.6,280.3,342.9,281.1,342.8
			L281.1,342.8z"/>
	</g>
	<g>
		<path d="M293,342.5c-2.5,0.2-4.5,2.1-4.7,4.6c-0.3,2.3,1.4,4.5,3.5,5.2c1.3,0.4,2.7,0.2,3.9-0.2c1.1-0.3,2.1-0.7,3-1.4
			c1-0.7,1.7-1.7,2-2.9c0.3-1.2,0.1-2.5-0.5-3.6c-1.3-2.4-4.4-3.1-6.7-1.9c-0.7,0.4-1,1.4-0.5,2.1c0.5,0.7,1.3,0.9,2.1,0.5
			c0.3-0.1,0,0,0,0c0.1,0,0.2-0.1,0.2-0.1c0.1,0,0.2,0,0.3-0.1c0.2-0.1-0.3,0,0,0c0.2,0,0.3,0,0.5,0c0.1,0,0.3,0,0.1,0
			c-0.2,0,0.2,0,0.2,0c0.2,0,0.3,0.1,0.5,0.1c0.2,0.1-0.2-0.1,0,0c0.1,0.1,0.2,0.1,0.3,0.1c0.1,0,0.1,0.1,0.2,0.1
			c-0.1,0-0.2-0.2,0,0c0.1,0.1,0.1,0.1,0.2,0.2c0,0,0.2,0.3,0.1,0.1c-0.1-0.2,0.1,0.2,0.1,0.2c0,0.1,0.1,0.1,0.1,0.2
			c0-0.1-0.1-0.3,0,0c0,0.1,0.1,0.2,0.1,0.2c0,0.1,0.1,0.6,0.1,0.2c0,0.2,0,0.4,0,0.6c0,0.1-0.1,0.3,0,0c0,0.1,0,0.2-0.1,0.2
			c0,0.2-0.1,0.3-0.2,0.5c0.1-0.3-0.1,0.1-0.1,0.2c-0.1,0.2,0,0.1,0,0c-0.1,0.1-0.2,0.2-0.3,0.3c-0.1,0.1-0.1,0.1-0.2,0.2
			c0.2-0.2,0,0,0,0c-0.2,0.1-0.3,0.2-0.5,0.3c-0.1,0.1-0.2,0.1-0.3,0.2c0,0-0.3,0.1-0.1,0.1c0.2-0.1-0.1,0-0.1,0.1
			c-0.1,0-0.2,0.1-0.3,0.1c-0.4,0.1-0.8,0.3-1.3,0.4c-0.5,0.1-0.6,0.2-1.2,0.1c0,0-0.4,0-0.2,0c0.1,0-0.1,0-0.1,0
			c-0.1,0-0.2-0.1-0.3-0.1c0.1,0,0.3,0.1,0,0c-0.1-0.1-0.3-0.2-0.4-0.2c-0.1,0-0.2-0.2,0,0c-0.1-0.1-0.2-0.2-0.3-0.3
			c-0.1-0.1-0.1-0.1-0.2-0.2c-0.1-0.1-0.1-0.2,0,0c-0.1-0.1-0.2-0.3-0.3-0.4c0-0.1-0.1-0.1-0.1-0.2c0.1,0.3,0,0.1,0,0
			c0-0.1,0-0.2-0.1-0.2c0-0.1,0-0.4,0-0.1c0-0.2,0-0.4,0-0.6c0,0.1-0.1,0.3,0,0c0-0.1,0-0.2,0.1-0.3c0,0,0.1-0.3,0-0.1
			c-0.1,0.2,0.1-0.2,0.1-0.2c0-0.1,0.1-0.1,0.1-0.2c0.1-0.1,0.2-0.2,0,0c0.1-0.2,0.3-0.3,0.4-0.4c0.2-0.2,0,0,0,0
			c0.1-0.1,0.2-0.1,0.3-0.2c0.1,0,0.1-0.1,0.2-0.1c-0.2,0.1,0,0,0.1,0c0.1,0,0.2,0,0.2-0.1c0.1,0,0.4-0.1,0.1,0
			c0.8-0.1,1.5-0.6,1.5-1.5C294.5,343.2,293.8,342.4,293,342.5L293,342.5z"/>
	</g>
	<g>
		<path d="M301.4,342.9c0.7,2.6,1.3,5.3,1.6,8c1-0.1,2-0.3,2.9-0.4c-0.3-2.3-0.5-4.7-0.6-7c0-0.8-0.1-1.8,0-2.5
			c0.1-0.4,0.1-0.7,0.3-1c0.1-0.1,0.3-0.3,0.5-0.3c0.4-0.1,1.1,0.2,1.5,0.7c0.6,0.7,0.8,1.5,1,2.4c0.1,0.3,0.1,0.7,0.2,1
			c-0.1,0.2-0.1,0.2,0.1,0c0,0,0,0,0.1,0c0,0-0.4,0.1-0.2,0.1c-1,0.1-1.9,0-2.8,0.6c-0.9,0.6-0.9,1.6-0.3,2.4c1.2,1.5,3.1,2.2,5,2.6
			c0.9,0.2,1.8,0.4,2.6,0.7c0.7,0.2,1.3,0.6,1.9,1.2c0.4-0.9,0.7-1.7,1.1-2.6c-0.4,0-0.8,0.1-1.2,0.1c-0.8,0.1-1.5,0.6-1.5,1.5
			c0,0.7,0.7,1.6,1.5,1.5c0.4,0,0.8-0.1,1.2-0.1c1.3-0.1,2-1.5,1.1-2.6c-1.3-1.5-3.3-2-5.1-2.5c-0.9-0.2-1.8-0.4-2.6-0.7
			c-0.6-0.2-1.2-0.7-1.7-1.3c-0.1,0.8-0.2,1.6-0.3,2.4c0.2-0.2,0.4-0.2,0.7-0.2c0.5,0,1,0,1.4-0.2c1.1-0.3,1.9-1.2,2.1-2.3
			c0.2-1.1-0.1-2.2-0.4-3.3c-0.3-1.1-0.8-2.1-1.6-2.9c-1.5-1.6-4.1-2-5.8-0.6c-1.6,1.3-1.7,3.5-1.6,5.4c0.1,2.8,0.3,5.6,0.7,8.3
			c0.2,1.7,3.1,1.3,2.9-0.4c-0.3-3-0.9-5.9-1.7-8.8C303.8,340.2,300.9,341,301.4,342.9L301.4,342.9z"/>
	</g>
	<g>
		<path d="M379.9,310.2c0-0.3,0-0.5,0-0.8c-1,0-2,0-3,0c0.1,3.2,0,6.4-0.2,9.6c-0.1,1.4,1.7,1.9,2.6,1.1c1.6-1.4,1.2-3.9,1.2-5.9
			c0-1.2,0-2.4,0.1-3.6c0-0.6,0.1-1.2,0.1-1.9c0-0.3,0-0.5,0.1-0.8c0-0.1,0-0.2,0-0.3c0.1-0.4,0-0.3-0.4,0.2c-0.3,0-0.5,0-0.8,0
			c-0.3-0.3-0.4-0.4-0.3-0.3c0.1,0.2,0.1,0.3,0.2,0.5c0.1,0.2,0.2,0.5,0.2,0.7c0.2,0.6,0.4,1.1,0.6,1.7c0.4,1.1,0.9,2.1,1.4,3.2
			c1,1.8,2.7,4.5,5,4.5c1.4,0,2.2-1.1,2.3-2.4c0.1-1.4,0-2.9,0-4.4c0-2.9,0-5.8-0.1-8.7c0-1.9-3-1.9-3,0c0.1,3,0.1,6.1,0.1,9.1
			c0,0.7,0,1.5,0,2.2c0,0.4,0,0.7,0,1.1c0,0.1,0,0.3,0,0.4c0.1,0.4,0.7-0.6,0.7-0.5c0,0-0.3-0.2-0.3-0.2c-0.2-0.2-0.4-0.4-0.6-0.6
			c-0.4-0.4-0.7-0.8-1-1.3c-0.6-1-1.1-2.1-1.6-3.2c-0.4-1.2-0.7-2.4-1.3-3.6c-0.6-1.2-2.2-1.9-3.3-0.8c-1,1-0.9,2.7-1,4
			c-0.1,1.7-0.2,3.3-0.2,5c0,0.8,0,1.5,0,2.3c0,0.4,0,0.9-0.3,1.2c0.9,0.4,1.7,0.7,2.6,1.1c0.2-3.2,0.3-6.4,0.2-9.6
			c-0.1-1.9-3-1.9-3,0c0,0.3,0,0.5,0,0.8C377,312.2,380,312.2,379.9,310.2L379.9,310.2z"/>
	</g>
	<g>
		<path d="M396.3,307.1c0.1-0.5,0.2-0.9,0.5-1.3c-0.9-0.4-1.7-0.7-2.6-1.1c-0.1,3.8-0.4,7.7-0.8,11.5c1,0,2,0,3,0c0-0.5,0-1.1,0-1.6
			c0-1.9-3-1.9-3,0c0,0.5,0,1.1,0,1.6c0,0.8,0.7,1.5,1.5,1.5c0.9,0,1.4-0.7,1.5-1.5c0.4-3.8,0.7-7.6,0.8-11.5c0-1.2-1.7-2.1-2.6-1.1
			c-0.6,0.8-1.1,1.6-1.3,2.6c-0.1,0.8,0.2,1.6,1,1.8C395.1,308.4,396.1,307.9,396.3,307.1L396.3,307.1z"/>
	</g>
	<g>
		<path d="M400.7,304.4c-0.2,4.1-0.4,8.1-0.7,12.2c1,0,2,0,3,0c0-2.3,0.1-4.5,0.4-6.8c0.1-1.1,0.3-2.1,0.5-3.1
			c0.1-0.7,0.2-1.3,1-1.4c1.3-0.2,2.6,0.6,3.3,1.7c0.4,0.6,0.5,1.2,0.5,1.9c0,0.4-0.3,1-0.6,1.4c-0.5,0.6-1.1,1-1.7,1.2
			c-0.8,0.2-1.3,0.3-2,0c-1.8-0.6-2.6,2.3-0.8,2.9c2.5,0.8,4.8,2.2,6.7,4.1c0.2-0.8,0.4-1.7,0.7-2.5c-0.2,0.1-0.4,0.1-0.6,0.2
			c-1.9,0.5-1.1,3.4,0.8,2.9c0.2-0.1,0.4-0.1,0.6-0.2c1.1-0.3,1.5-1.7,0.7-2.5c-2.3-2.2-5-3.9-8-4.9c-0.3,1-0.5,1.9-0.8,2.9
			c4.4,1.4,9.5-3,7.9-7.6c-0.7-2.2-2.7-4-5-4.4c-1.3-0.2-2.7-0.1-3.8,0.7c-1.2,0.9-1.5,2.3-1.7,3.6c-0.6,3.3-0.9,6.6-0.9,9.9
			c0,1.9,2.9,1.9,3,0c0.3-4.1,0.5-8.1,0.7-12.2C403.8,302.5,400.8,302.5,400.7,304.4L400.7,304.4z"/>
	</g>
	<g>
		<path d="M381.8,330c0,0,0-0.1,0-0.1c-0.1,0.2-0.3,0.4-0.4,0.7c0,0-0.1,0.1-0.1,0.1c-0.3,0.1-0.5,0.1-0.8,0.2
			c-0.1,0-0.3-0.1-0.4-0.1c-0.2-0.2-0.4-0.4-0.5-0.5c-0.2-0.4,0-0.5-0.1-0.2c0,0.2,0,0.3-0.1,0.5c0,0.4-0.1,0.7-0.1,1.1
			c-0.1,0.8-0.2,1.6-0.3,2.3c-0.2,1.5-0.3,3.1-0.5,4.6c-0.1,0.8,0.8,1.5,1.5,1.5c3.8,0,7.7,0,11.5,0c1.9,0,1.9-3,0-3
			c-3.8,0-7.7,0-11.5,0c0.5,0.5,1,1,1.5,1.5c0.2-2.2,0.5-4.5,0.7-6.7c0.1-1,0.5-2.3-0.1-3.2c-0.8-1.2-3-1.1-3.3,0.5
			c-0.1,0.8,0.2,1.6,1,1.8C380.7,331.2,381.7,330.8,381.8,330L381.8,330z"/>
	</g>
	<g>
		<path d="M397.6,324.1c-1.8-0.3-3.4,0.4-4.7,1.7c-1.1,1.2-2,2.8-2.4,4.5c-0.4,1.8-0.1,3.7,1.1,5.2c1.1,1.3,2.7,2.1,4.3,2.5
			c2,0.5,4.2,0.5,6.2-0.1c0.8-0.2,1.3-1.1,1-1.8c-0.2-0.8-1.1-1.3-1.8-1c-1.6,0.5-3.2,0.5-4.8,0.1c-0.8-0.2-1.3-0.4-2-0.9
			c-0.4-0.2-0.9-0.8-1-1.2c-0.2-0.6-0.3-1.3-0.1-1.8c0.2-0.8,0.4-1.4,0.8-2.1c0.2-0.3,0.4-0.6,0.5-0.8c0.1-0.1,0.2-0.2,0.3-0.4
			c0.1-0.1,0.2-0.2,0.2-0.2c0.1-0.1,0.2-0.1,0.1-0.1c0.1-0.1,0.3-0.2,0.4-0.3c0.1-0.1,0.2-0.1,0.3-0.1c-0.1,0-0.1,0,0.1,0
			c0.1,0,0.5-0.1,0.2-0.1c0.1,0,0.6,0,0.4,0c0.8,0.1,1.6-0.2,1.8-1C398.9,325.3,398.4,324.3,397.6,324.1L397.6,324.1z"/>
	</g>
	<g>
		<path d="M397.9,330.7c-2.2-1.1-4.9-1-7,0.3c-0.7,0.4-1,1.4-0.5,2.1c0.4,0.7,1.3,1,2.1,0.5c0.2-0.1,0.5-0.2,0.6-0.3
			c-0.2,0.1-0.3,0.1-0.1,0c0.1,0,0.1,0,0.2-0.1c0.1,0,0.2-0.1,0.3-0.1c0.2-0.1,0.5-0.1,0.7-0.2c0.1,0,0.1,0,0.2,0
			c-0.3,0-0.3,0-0.1,0c0.1,0,0.2,0,0.3,0c0.2,0,0.4,0,0.7,0c0.1,0,0.2,0,0.4,0c-0.4,0-0.1,0,0,0c0.2,0,0.4,0.1,0.6,0.2
			c0.1,0,0.2,0.1,0.3,0.1c0.1,0.1,0.1,0-0.1,0c0.1,0,0.1,0,0.2,0.1c0.4,0.2,0.7,0.3,1.2,0.2c0.3-0.1,0.7-0.4,0.9-0.7
			C398.8,332,398.7,331,397.9,330.7L397.9,330.7z"/>
	</g>
	<g>
		<path d="M403.4,324.3c0.2,3.9,0.3,7.8,0.2,11.7c1,0,2,0,3,0c0-0.5,0-0.9,0-1.4c0-1.9-3-1.9-3,0c0,0.5,0,0.9,0,1.4c0,1.9,3,1.9,3,0
			c0.1-3.9,0-7.8-0.2-11.7c0-0.8-0.7-1.5-1.5-1.5C404.1,322.8,403.3,323.5,403.4,324.3L403.4,324.3z"/>
	</g>
	<g>
		<path d="M406.2,325.7c0,0.2,0,0.4-0.1,0.5c-0.1,0.2-0.2,0.1,0,0c0.2-0.1-0.2,0.1,0,0c0.1,0,0.1,0,0.2-0.1c0.1,0,0.1,0,0.2,0
			c0.2-0.1-0.4,0,0.1,0c0.4,0,0.7,0,1.1,0c0.2,0,0.3,0,0.5,0c0,0,0.4,0,0.2,0c-0.1,0,0.2,0,0.2,0c0.3,0.1,0.7,0.2,1,0.3
			c-0.1-0.1,0.2,0.1,0.3,0.2c0.1,0,0.4,0.3,0.3,0.2c0.1,0.1,0.3,0.2,0.4,0.4c0.1,0.1,0.3,0.4,0.2,0.2c0.2,0.3,0.4,0.6,0.5,0.9
			c0.1,0.2,0,0,0.1,0.2c0.1,0.2,0.1,0.3,0.2,0.5c0.1,0.4,0.2,0.7,0.2,1.1c0,0.1,0.1,0.5,0.1,0.3c0,0.2,0,0.3,0.1,0.5
			c0,0.4,0.1,0.8,0.1,1.2c0,0.3,0,0.7,0,1c0-0.2,0,0.1,0,0.2c0,0.1,0,0.2-0.1,0.3c0.1-0.2,0,0,0,0c0.2-0.2-0.2,0.2-0.1,0.1
			c0,0-0.1,0-0.1,0c0,0-0.3,0.1-0.2,0.1c0.1,0-0.1,0-0.1,0c-0.2,0-0.4,0-0.6,0c-2.1-0.1-4.2-0.3-6.3-0.4c-0.8-0.1-1.5,0.7-1.5,1.5
			c0,0.9,0.7,1.4,1.5,1.5c1.2,0.1,2.4,0.2,3.6,0.2c1.1,0.1,2.2,0.2,3.3,0.2c1.2-0.1,2.4-0.6,3.1-1.6c0.6-0.9,0.7-2,0.6-3
			c-0.1-1.9-0.3-4-1.3-5.7c-1.1-1.9-3-3-5.2-3.2c-1-0.1-2.3-0.2-3.3,0.2c-1.3,0.5-2.4,1.6-2,3.1
			C403.9,328.3,406.8,327.5,406.2,325.7L406.2,325.7z"/>
	</g>
	<g>
		<path d="M370.7,302.9c-7.5-6.8-12-16.3-16.8-25.1c-2.6-4.7-5.6-9.3-6.9-14.5c-1.4-5.2-1.9-10.7-3-16c-1.3-6.1-3-12.2-5-18.1
			c-0.4-1.2-2-1.5-2.7-0.4c-1.6,2.6-2.9,5.2-4,8c1,0.3,1.9,0.5,2.9,0.8c0.7-2.7,1.8-5.1,3.4-7.3c-0.8,0.1-1.6,0.2-2.4,0.3
			c2.9,2.6,5.2,5.6,7,9c0.7-0.7,1.4-1.4,2.1-2.1c-3.3-1.8-7-2.7-10.8-2.5c0.5,0.5,1,1,1.5,1.5c-0.1,0.2-0.3,0.4-0.4,0.6
			c1.9,0.1,1.9-2.9,0-3c-1.5-0.1-2.4,1-2.6,2.4c-0.1,0.8,0.8,1.5,1.5,1.5c3.3-0.2,6.4,0.5,9.3,2.1c1.3,0.8,2.7-0.7,2.1-2.1
			c-1.9-3.6-4.4-6.9-7.4-9.6c-0.8-0.7-1.8-0.5-2.4,0.3c-1.7,2.4-3,5.1-3.7,8c-0.5,1.9,2.2,2.5,2.9,0.8c1-2.5,2.3-5,3.7-7.3
			c-0.9-0.1-1.8-0.2-2.7-0.4c1.8,5.4,3.4,10.9,4.6,16.5c1.2,5.4,1.9,10.9,3.1,16.3c1.2,5.4,4,10.1,6.6,14.8
			c2.6,4.7,5.1,9.5,7.9,14.1c2.9,4.8,6.1,9.5,10.3,13.3C370,306.3,372.1,304.2,370.7,302.9L370.7,302.9z"/>
	</g>
	<g>
		<path d="M266.5,307.5c4.1-8.7,5.8-18.1,5.5-27.7c-0.3-9.9-2.2-19.7-3.7-29.5c-0.8-5.6-1.7-11.1-2.5-16.7c-0.2-1.5-2.5-1.3-2.9,0
			c-0.5,2-1.6,3.6-3.2,5c0.8,0.5,1.7,1,2.5,1.5c0.4-1.8,1.5-3.1,3.2-3.8c-0.6-0.1-1.2-0.2-1.8-0.2c1.8,1.6,3.2,3.5,4.3,5.6
			c0.7-0.7,1.4-1.4,2.1-2.1c-3.2-1.4-6.6-1.7-10-0.7c-1.8,0.6-1.1,3.4,0.8,2.9c2.5-0.8,5.2-0.7,7.7,0.4c1.4,0.6,2.8-0.6,2.1-2.1
			c-1.2-2.4-2.8-4.5-4.8-6.2c-0.5-0.5-1.2-0.5-1.8-0.2c-2.3,1-4,3.1-4.6,5.6c-0.4,1.5,1.4,2.4,2.5,1.5c1.9-1.7,3.3-3.8,3.9-6.3
			c-1,0-1.9,0-2.9,0c1.4,9.5,2.9,19,4.3,28.5c1.4,9.4,2.7,19,1.2,28.5c-0.8,5.1-2.3,10-4.5,14.6
			C263.1,307.7,265.6,309.3,266.5,307.5L266.5,307.5z"/>
	</g>
	<g>
		<path d="M378.2,173.7c9.6-1.4,19.5-3.4,27.5-9.1c7.7-5.4,13.3-13.3,17.4-21.7c2.6-5.3,4.7-10.8,6.6-16.3c-1-0.3-1.9-0.5-2.9-0.8
			c-0.1,0.5-0.2,1.1-0.4,1.6c-0.4,1.9,2.5,2.7,2.9,0.8c0.1-0.5,0.2-1.1,0.4-1.6c0.4-1.9-2.2-2.6-2.9-0.8c-3.3,9.1-6.8,18.2-12.6,26
			c-5.4,7.4-12.6,12.8-21.3,15.6c-5.1,1.6-10.3,2.5-15.6,3.3C375.4,171.1,376.3,174,378.2,173.7L378.2,173.7z"/>
	</g>
	<g>
		<path d="M378,169.9c-1.4,0.3-1.6,2.3-0.3,3c0.7,0.4,1.5,0.2,2.1-0.4c0.3-0.3,0.6-0.8,0.8-1.1c1-1.5,2-2.9,3-4.4
			c-0.9-0.3-1.9-0.5-2.8-0.8c-0.2,3.4,0.2,6.8,1,10.1c0.3,1.1,1.7,1.4,2.5,0.7c0.7-0.7,0.8-1.8,0.3-2.7c-0.5-0.7-1.1-1.2-1.9-1.6
			c-1.6-0.7-3.3-1.3-5-1.8c-0.8-0.2-1.7,0.3-1.8,1c-0.2,0.8,0.2,1.6,1,1.8c1.2,0.3,2.3,0.7,3.5,1.2c0.4,0.2,0.9,0.3,1.4,0.6
			c0.1,0,0.3,0.2,0.1,0c0,0,0.3,0.2,0.2,0.1c-0.1-0.1,0-0.1,0,0.1c0-0.1,0-0.1-0.1-0.2c0.1-0.3,0-0.6,0.2-0.8
			c0.8,0.2,1.7,0.4,2.5,0.7c-0.8-3.1-1.1-6.1-0.9-9.3c0-0.6-0.5-1.3-1.1-1.4c-0.7-0.2-1.3,0.1-1.7,0.7c-0.6,0.9-1.2,1.7-1.8,2.6
			c-0.3,0.4-0.6,0.8-0.9,1.3c-0.1,0.2-0.3,0.4-0.4,0.6c-0.1,0.1-0.1,0.2-0.2,0.3c0,0.1-0.1,0.1-0.1,0.2c-0.1,0.1-0.1,0.1,0,0
			c0.2-0.1,0.4-0.3,0.7-0.4c0,0-0.1,0-0.1,0c0.4,0.1,0.8,0.1,1.2,0.2c0,0,0,0-0.1,0c0.2,0.2,0.4,0.4,0.5,0.5c0,0,0,0,0-0.1
			c0.1,0.3,0.1,0.5,0.2,0.8c0,0,0-0.1,0-0.1c-0.1,0.3-0.1,0.5-0.2,0.8c0,0,0,0,0-0.1c-0.3,0.2-0.6,0.5-0.9,0.7c0,0,0,0,0.1,0
			c0.8-0.2,1.3-1.1,1-1.8C379.6,170.2,378.9,169.7,378,169.9L378,169.9z"/>
	</g>
	<g>
		<path d="M414.7,243.4c2.8-0.3,5.3,1.1,7.9,2c2.7,0.9,5.6,1.6,8.4,2.2c5.9,1.3,11.8,2.6,17.7,3.9c1.9,0.4,2.7-2.5,0.8-2.9
			c-6.1-1.3-12.1-2.6-18.2-4c-2.8-0.6-5.6-1.3-8.4-2.2c-2.7-0.9-5.3-2.2-8.2-1.9C412.8,240.6,412.8,243.6,414.7,243.4L414.7,243.4z"
			/>
	</g>
	<g>
		<path d="M415.3,242.9c1.7-1.9,3.6-3.7,5.6-5.2c-0.9-0.4-1.7-0.7-2.6-1.1c-0.1,3.3-0.1,6.5-0.2,9.8c0.9-0.3,1.9-0.5,2.8-0.8
			c-1.4-2.4-3.6-4.2-6.2-5.2c-0.6-0.2-1.4,0.2-1.7,0.7c-0.3,0.6-0.2,1.3,0.2,1.8c1.8,1.9,3.9,3.4,6.2,4.7c0-0.9,0-1.7,0-2.6
			c-0.2,0.2,0.1,0,0.2,0c0.2,0,0.7,0.4,0.4,0.1c-0.5-0.6-1.6-0.6-2.1,0c-0.6,0.6-0.6,1.5,0,2.1c0.7,0.8,2.1,1,3,0.3
			c0.4-0.3,0.7-0.7,0.7-1.3c0-0.5-0.3-1.1-0.7-1.3c-2.2-1.1-3.9-2.4-5.6-4.2c-0.5,0.8-1,1.7-1.5,2.5c0,0,0.4,0.2,0.2,0.1
			c0.1,0.1,0.2,0.1,0.3,0.2c0.3,0.1,0.5,0.3,0.7,0.4c0.2,0.1,0.5,0.3,0.7,0.5c0.1,0,0.3,0.2,0.1,0.1c0.1,0.1,0.2,0.2,0.4,0.3
			c0.9,0.8,1.4,1.4,2,2.4c0.8,1.3,2.8,0.7,2.8-0.8c0.1-3.3,0.1-6.5,0.2-9.8c0-0.6-0.4-1.2-0.9-1.4c-0.6-0.2-1.1-0.1-1.6,0.3
			c-2,1.6-3.9,3.3-5.6,5.2c-0.5,0.6-0.6,1.5,0,2.1C413.8,243.5,414.8,243.5,415.3,242.9L415.3,242.9z"/>
	</g>
</g>
</svg>
