<svg id="Layer_1" data-name="Layer 1" xmlns="http://www.w3.org/2000/svg" viewBox="0 0 453.07 449.38"><defs><style>.cls-1{fill:#f6efe1;stroke:#231f20;stroke-miterlimit:10;stroke-width:2px;}.cls-2{fill:#231f20;}</style></defs><rect class="cls-1" x="14.26" y="63.05" width="140.08" height="68.44" rx="8.5"/><path class="cls-2" d="M71.32,93.55a1.87,1.87,0,0,0-.72-1.39,2.89,2.89,0,0,0-1.81-.5,3.7,3.7,0,0,0-1.3.2,1.68,1.68,0,0,0-.78.56,1.28,1.28,0,0,0-.27.81,1.19,1.19,0,0,0,.15.66,1.65,1.65,0,0,0,.49.5,3.68,3.68,0,0,0,.77.37,7.8,7.8,0,0,0,1,.29l1.43.32a10,10,0,0,1,2.19.72,5.81,5.81,0,0,1,1.59,1.06,4.31,4.31,0,0,1,1,1.42,4.94,4.94,0,0,1,.34,1.81,4.63,4.63,0,0,1-.8,2.7,4.94,4.94,0,0,1-2.26,1.73,9.41,9.41,0,0,1-3.55.6,9.8,9.8,0,0,1-3.64-.62,5.18,5.18,0,0,1-2.42-1.9,5.77,5.77,0,0,1-.88-3.23H65.7a2.45,2.45,0,0,0,.43,1.34,2.26,2.26,0,0,0,1.05.81,4,4,0,0,0,1.56.28,3.77,3.77,0,0,0,1.38-.22,2,2,0,0,0,.88-.61,1.39,1.39,0,0,0,.32-.89,1.2,1.2,0,0,0-.29-.81,2.37,2.37,0,0,0-.88-.59,10,10,0,0,0-1.49-.45l-1.74-.41a7.69,7.69,0,0,1-3.41-1.6,3.78,3.78,0,0,1-1.23-3,4.4,4.4,0,0,1,.83-2.7A5.41,5.41,0,0,1,65.42,89a8.2,8.2,0,0,1,3.37-.65,8.09,8.09,0,0,1,3.36.65,5.31,5.31,0,0,1,2.22,1.83,5,5,0,0,1,.8,2.73Z"/><path class="cls-2" d="M79.44,91.27A2.06,2.06,0,0,1,78,90.71,1.8,1.8,0,0,1,78,88a2.16,2.16,0,0,1,2.88,0,1.77,1.77,0,0,1,.6,1.35,1.74,1.74,0,0,1-.6,1.33A2,2,0,0,1,79.44,91.27Zm-2,13.93V92.72h4V105.2Z"/><path class="cls-2" d="M84,105.2v-2.27l5.78-7v-.08H84.16V92.72H94.48v2.49L89.12,102v.08h5.56v3.09Z"/><path class="cls-2" d="M102.72,105.44a6.92,6.92,0,0,1-3.38-.78,5.36,5.36,0,0,1-2.18-2.22A7.33,7.33,0,0,1,96.41,99a7.11,7.11,0,0,1,.76-3.38,5.58,5.58,0,0,1,2.15-2.26,6.41,6.41,0,0,1,3.28-.81A7,7,0,0,1,105,93a5.24,5.24,0,0,1,1.91,1.23,5.44,5.44,0,0,1,1.25,2,7.74,7.74,0,0,1,.45,2.73v1H97.79V97.61h7.15a2.15,2.15,0,0,0-.3-1.13,2,2,0,0,0-.8-.77,2.32,2.32,0,0,0-1.16-.28,2.48,2.48,0,0,0-1.2.29,2.3,2.3,0,0,0-1.16,2V100a2.81,2.81,0,0,0,.3,1.33,2.21,2.21,0,0,0,.85.89,2.63,2.63,0,0,0,1.32.32,2.93,2.93,0,0,0,1-.15,2,2,0,0,0,.74-.43,1.78,1.78,0,0,0,.46-.7l3.65.11a4.39,4.39,0,0,1-1,2.13,5,5,0,0,1-2,1.41A7.66,7.66,0,0,1,102.72,105.44Z"/><rect class="cls-1" x="244.31" y="63.05" width="140.08" height="68.44" rx="8.5"/><path class="cls-2" d="M291.36,96.88a9.55,9.55,0,0,1-1.05,4.66,7.26,7.26,0,0,1-2.86,2.9,8.21,8.21,0,0,1-4,1,8.12,8.12,0,0,1-4-1,7.24,7.24,0,0,1-2.85-2.9,10.82,10.82,0,0,1,0-9.3,7.17,7.17,0,0,1,2.85-2.9,8.72,8.72,0,0,1,8.07,0,7.26,7.26,0,0,1,2.86,2.9A9.51,9.51,0,0,1,291.36,96.88Zm-4.11,0a7.13,7.13,0,0,0-.46-2.74,3.57,3.57,0,0,0-1.31-1.7,3.61,3.61,0,0,0-5.44,1.7,8.42,8.42,0,0,0,0,5.49,3.7,3.7,0,0,0,1.32,1.7,4,4,0,0,0,4.12,0,3.62,3.62,0,0,0,1.31-1.7A7.19,7.19,0,0,0,287.25,96.88Z"/><path class="cls-2" d="M293.7,109.88V92.72h3.93v2.14h.12a4.72,4.72,0,0,1,.7-1.1,3.37,3.37,0,0,1,1.15-.86,3.8,3.8,0,0,1,1.69-.34,4.67,4.67,0,0,1,2.43.68,4.84,4.84,0,0,1,1.83,2.11,8.14,8.14,0,0,1,.7,3.62,8.3,8.3,0,0,1-.67,3.55,5,5,0,0,1-1.8,2.15,4.68,4.68,0,0,1-2.52.71,3.92,3.92,0,0,1-1.63-.31,3.36,3.36,0,0,1-1.16-.81,4.07,4.07,0,0,1-.72-1.08h-.08v6.7ZM297.59,99a5.21,5.21,0,0,0,.27,1.76,2.6,2.6,0,0,0,.79,1.15,1.92,1.92,0,0,0,1.24.42,1.88,1.88,0,0,0,1.24-.42,2.43,2.43,0,0,0,.78-1.15,5.22,5.22,0,0,0,.26-1.76,5.06,5.06,0,0,0-.26-1.74,2.49,2.49,0,0,0-.77-1.15,2,2,0,0,0-1.25-.41,2,2,0,0,0-1.24.4,2.62,2.62,0,0,0-.79,1.14A5.13,5.13,0,0,0,297.59,99Z"/><path class="cls-2" d="M315.38,92.72v2.93h-7.87V92.72Zm-6.22-3h4v11.55a1.26,1.26,0,0,0,.12.59.63.63,0,0,0,.35.31,1.27,1.27,0,0,0,.54.1,2.8,2.8,0,0,0,.48,0,3.22,3.22,0,0,0,.39-.08l.6,2.87c-.19.06-.46.12-.8.21a6.66,6.66,0,0,1-1.23.15,5.84,5.84,0,0,1-2.39-.33,3,3,0,0,1-1.52-1.23,3.81,3.81,0,0,1-.51-2.1Z"/><path class="cls-2" d="M319.41,91.27a2.05,2.05,0,0,1-1.44-.56A1.78,1.78,0,0,1,318,88a2.16,2.16,0,0,1,2.88,0,1.8,1.8,0,0,1,.59,1.35,1.77,1.77,0,0,1-.59,1.33A2.05,2.05,0,0,1,319.41,91.27Zm-2,13.93V92.72h4V105.2Z"/><path class="cls-2" d="M329.73,105.44a6.54,6.54,0,0,1-3.38-.82,5.43,5.43,0,0,1-2.17-2.26,7.9,7.9,0,0,1,0-6.72,5.58,5.58,0,0,1,2.17-2.27,6.67,6.67,0,0,1,3.37-.81,6.82,6.82,0,0,1,3,.63,4.73,4.73,0,0,1,2,1.76,5.13,5.13,0,0,1,.77,2.68h-3.71a2.48,2.48,0,0,0-.65-1.5,1.84,1.84,0,0,0-1.38-.55,2,2,0,0,0-1.21.39,2.46,2.46,0,0,0-.81,1.14,5.24,5.24,0,0,0-.29,1.85,5.36,5.36,0,0,0,.29,1.87,2.41,2.41,0,0,0,.81,1.14,2,2,0,0,0,1.21.39,2,2,0,0,0,1-.24,1.85,1.85,0,0,0,.7-.69,2.84,2.84,0,0,0,.35-1.12h3.71a5.4,5.4,0,0,1-.77,2.7,4.74,4.74,0,0,1-2,1.79A6.77,6.77,0,0,1,329.73,105.44Z"/><path class="cls-2" d="M341.08,105.41A5.24,5.24,0,0,1,339,105a3.21,3.21,0,0,1-1.45-1.22,3.63,3.63,0,0,1-.53-2.05,3.84,3.84,0,0,1,.36-1.75,3.09,3.09,0,0,1,1-1.17,4.89,4.89,0,0,1,1.48-.67,9.7,9.7,0,0,1,1.78-.32c.71-.06,1.29-.13,1.72-.2a2.54,2.54,0,0,0,.95-.32.7.7,0,0,0,.29-.59v0a1.16,1.16,0,0,0-.43-1,1.86,1.86,0,0,0-1.16-.34,2.2,2.2,0,0,0-1.27.34,1.52,1.52,0,0,0-.61,1l-3.66-.13a4.39,4.39,0,0,1,.84-2,4.44,4.44,0,0,1,1.87-1.41,7.06,7.06,0,0,1,2.86-.52,8,8,0,0,1,2.2.28,5.82,5.82,0,0,1,1.76.81A3.82,3.82,0,0,1,348.13,95a3.72,3.72,0,0,1,.41,1.76v8.48H344.8v-1.74h-.1a3.48,3.48,0,0,1-.85,1.08,3.28,3.28,0,0,1-1.21.65A5,5,0,0,1,341.08,105.41Zm1.23-2.6a2.43,2.43,0,0,0,1.15-.26,2.07,2.07,0,0,0,.83-.72,1.89,1.89,0,0,0,.31-1.06V99.58a2.7,2.7,0,0,1-.41.16c-.16.05-.34.1-.53.14l-.58.11-.58.09a3.69,3.69,0,0,0-.95.28,1.5,1.5,0,0,0-.61.48,1.26,1.26,0,0,0-.2.71,1.08,1.08,0,0,0,.44.94A1.91,1.91,0,0,0,342.31,102.81Z"/><path class="cls-2" d="M354.93,88.56V105.2h-4V88.56Z"/><rect class="cls-1" x="244.31" y="260.52" width="140.08" height="68.44" rx="8.5"/><path class="cls-2" d="M276.41,286.18V269.55H288v3.26h-7.58v3.41h7v3.28h-7v3.42H288v3.26Z"/><path class="cls-2" d="M294.5,269.55v16.63h-4V269.55Z"/><path class="cls-2" d="M302.85,286.42a6.88,6.88,0,0,1-3.37-.78,5.22,5.22,0,0,1-2.18-2.21,7.28,7.28,0,0,1-.76-3.44,7.14,7.14,0,0,1,.76-3.38,5.54,5.54,0,0,1,2.16-2.26,6.35,6.35,0,0,1,3.27-.81,6.83,6.83,0,0,1,2.44.42,5.25,5.25,0,0,1,1.91,1.22,5.76,5.76,0,0,1,1.25,2,7.64,7.64,0,0,1,.45,2.72v1H297.93v-2.3h7.15a2.32,2.32,0,0,0-.3-1.13,2.14,2.14,0,0,0-.8-.78,2.55,2.55,0,0,0-2.36,0,2.3,2.3,0,0,0-.84.8,2.23,2.23,0,0,0-.32,1.15V281a2.88,2.88,0,0,0,.3,1.34,2.12,2.12,0,0,0,.85.88,2.53,2.53,0,0,0,1.32.32,3.11,3.11,0,0,0,.95-.14,2,2,0,0,0,.74-.44,1.77,1.77,0,0,0,.47-.69l3.64.1a4.54,4.54,0,0,1-1,2.14,5,5,0,0,1-2,1.4A7.76,7.76,0,0,1,302.85,286.42Z"/><path class="cls-2" d="M316.64,286.42a6.7,6.7,0,0,1-3.39-.81,5.53,5.53,0,0,1-2.16-2.26,7.83,7.83,0,0,1,0-6.73,5.5,5.5,0,0,1,2.17-2.26,6.55,6.55,0,0,1,3.37-.82,6.82,6.82,0,0,1,3,.63,4.82,4.82,0,0,1,2,1.77,5.1,5.1,0,0,1,.77,2.67h-3.71a2.48,2.48,0,0,0-.65-1.5,1.84,1.84,0,0,0-1.38-.54,1.94,1.94,0,0,0-1.21.38,2.46,2.46,0,0,0-.81,1.14,5.24,5.24,0,0,0-.29,1.85,5.36,5.36,0,0,0,.29,1.87,2.36,2.36,0,0,0,.81,1.14,2,2,0,0,0,1.21.39,2,2,0,0,0,1-.24,1.85,1.85,0,0,0,.7-.69,2.84,2.84,0,0,0,.35-1.12h3.71a5.4,5.4,0,0,1-.77,2.7,4.68,4.68,0,0,1-2,1.79A6.64,6.64,0,0,1,316.64,286.42Z"/><path class="cls-2" d="M331.51,273.71v2.92h-7.87v-2.92Zm-6.22-3h4v11.54a1.26,1.26,0,0,0,.12.59.68.68,0,0,0,.35.32,1.45,1.45,0,0,0,.54.09,4.23,4.23,0,0,0,.48,0l.39-.08.6,2.87-.8.2a6.66,6.66,0,0,1-1.23.15,5.52,5.52,0,0,1-2.39-.33,3,3,0,0,1-1.52-1.23,3.78,3.78,0,0,1-.51-2.1Z"/><path class="cls-2" d="M333.54,286.18V273.71h3.86V276h.13a3.39,3.39,0,0,1,1.12-1.84,2.82,2.82,0,0,1,1.79-.6l.57,0a4,4,0,0,1,.54.11v3.45a4.33,4.33,0,0,0-.74-.15,6.46,6.46,0,0,0-.82-.06,2.58,2.58,0,0,0-1.27.32,2.21,2.21,0,0,0-.88.86,2.55,2.55,0,0,0-.32,1.31v6.77Z"/><path class="cls-2" d="M348.35,286.42a6.65,6.65,0,0,1-3.37-.81,5.5,5.5,0,0,1-2.17-2.26,7.85,7.85,0,0,1,0-6.74,5.5,5.5,0,0,1,2.17-2.26,7.44,7.44,0,0,1,6.75,0,5.5,5.5,0,0,1,2.17,2.26,7.85,7.85,0,0,1,0,6.74,5.5,5.5,0,0,1-2.17,2.26A6.69,6.69,0,0,1,348.35,286.42Zm0-3a1.72,1.72,0,0,0,1.21-.44,2.83,2.83,0,0,0,.76-1.21,6.47,6.47,0,0,0,0-3.63,2.86,2.86,0,0,0-.76-1.22,1.77,1.77,0,0,0-1.21-.44,1.87,1.87,0,0,0-1.25.44,2.79,2.79,0,0,0-.77,1.22,6.47,6.47,0,0,0,0,3.63,2.75,2.75,0,0,0,.77,1.21A1.82,1.82,0,0,0,348.38,283.42Z"/><path class="cls-2" d="M264.29,297h5l4.22,10.3h.2l4.22-10.3h5v16.64H279V303.42h-.14l-4,10.11h-2.5l-4-10.17h-.14v10.28h-3.91Z"/><path class="cls-2" d="M288.93,313.85a5.24,5.24,0,0,1-2.12-.41,3.19,3.19,0,0,1-1.45-1.21,3.67,3.67,0,0,1-.53-2.06,3.87,3.87,0,0,1,.36-1.75,3.15,3.15,0,0,1,1-1.16,4.67,4.67,0,0,1,1.48-.68,9.71,9.71,0,0,1,1.78-.31c.71-.07,1.29-.14,1.72-.21a2.37,2.37,0,0,0,.95-.32.69.69,0,0,0,.29-.59v0a1.14,1.14,0,0,0-.43-1,1.8,1.8,0,0,0-1.16-.34,2.12,2.12,0,0,0-1.27.34,1.49,1.49,0,0,0-.61.94l-3.66-.13a4.39,4.39,0,0,1,.84-2,4.53,4.53,0,0,1,1.87-1.41,7.23,7.23,0,0,1,2.86-.52,8.43,8.43,0,0,1,2.2.28,5.6,5.6,0,0,1,1.76.82,3.79,3.79,0,0,1,1.16,1.3,3.75,3.75,0,0,1,.41,1.76v8.49h-3.74V311.9h-.1a3.45,3.45,0,0,1-2.06,1.73A5.34,5.34,0,0,1,288.93,313.85Zm1.23-2.6a2.56,2.56,0,0,0,1.15-.26,2.24,2.24,0,0,0,.83-.72,1.92,1.92,0,0,0,.31-1.07V308a2.67,2.67,0,0,1-.41.17l-.53.13c-.19.05-.38.08-.58.12l-.58.09a3.7,3.7,0,0,0-1,.27,1.52,1.52,0,0,0-.61.49,1.23,1.23,0,0,0-.2.7,1.07,1.07,0,0,0,.44.94A1.85,1.85,0,0,0,290.16,311.25Z"/><path class="cls-2" d="M304.62,318.57a8.35,8.35,0,0,1-3-.49,4.73,4.73,0,0,1-2-1.36,3.69,3.69,0,0,1-.87-2l3.76-.21a1.47,1.47,0,0,0,.39.67,2.09,2.09,0,0,0,.76.44,3.61,3.61,0,0,0,1.1.15,2.69,2.69,0,0,0,1.65-.48,2,2,0,0,0,.66-1.69v-2.19h-.14a3,3,0,0,1-.72,1,3.34,3.34,0,0,1-1.19.71,4.53,4.53,0,0,1-1.63.26,5,5,0,0,1-2.49-.63,4.62,4.62,0,0,1-1.82-2,7.77,7.77,0,0,1-.67-3.47,8.19,8.19,0,0,1,.69-3.6,4.84,4.84,0,0,1,1.84-2.1,4.6,4.6,0,0,1,2.44-.69,3.9,3.9,0,0,1,1.68.34,3.57,3.57,0,0,1,1.16.87,4.15,4.15,0,0,1,.69,1.09H307v-2.13H311v12.52a4.43,4.43,0,0,1-.79,2.68,5.05,5.05,0,0,1-2.23,1.65A8.9,8.9,0,0,1,304.62,318.57Zm.12-8a2,2,0,0,0,1.24-.38,2.43,2.43,0,0,0,.79-1.1,4.79,4.79,0,0,0,.27-1.71,5.07,5.07,0,0,0-.27-1.75,2.38,2.38,0,0,0-.79-1.13,1.92,1.92,0,0,0-1.24-.4,2,2,0,0,0-1.25.4,2.47,2.47,0,0,0-.77,1.15,5,5,0,0,0-.27,1.73,4.79,4.79,0,0,0,.27,1.71,2.34,2.34,0,0,0,.78,1.1A2,2,0,0,0,304.74,310.57Z"/><path class="cls-2" d="M317.45,306.52v7.12h-4V301.16h3.78v2.29h.13a3.49,3.49,0,0,1,1.42-1.8,4.21,4.21,0,0,1,2.38-.66,4.32,4.32,0,0,1,2.28.59,4.05,4.05,0,0,1,1.51,1.64,5.24,5.24,0,0,1,.54,2.46v8h-4v-7.18a2.29,2.29,0,0,0-.52-1.62,1.89,1.89,0,0,0-1.47-.59,2.23,2.23,0,0,0-1.11.27,1.9,1.9,0,0,0-.73.78A2.82,2.82,0,0,0,317.45,306.52Z"/><path class="cls-2" d="M330,299.7a2,2,0,0,1-1.44-.55,1.77,1.77,0,0,1-.6-1.35,1.74,1.74,0,0,1,.6-1.33,2.13,2.13,0,0,1,2.88,0,1.8,1.8,0,0,1,0,2.68A2,2,0,0,1,330,299.7Zm-2,13.94V301.16h4v12.48Z"/><path class="cls-2" d="M345.37,305l-3.65.09a1.31,1.31,0,0,0-.31-.69,1.7,1.7,0,0,0-.65-.48,2.27,2.27,0,0,0-.93-.17,2.35,2.35,0,0,0-1.17.27.83.83,0,0,0-.48.75.79.79,0,0,0,.3.63,2.31,2.31,0,0,0,1.09.43l2.41.46a5.75,5.75,0,0,1,2.78,1.18,2.88,2.88,0,0,1,.92,2.2,3.56,3.56,0,0,1-.76,2.23,4.86,4.86,0,0,1-2.05,1.48,7.91,7.91,0,0,1-3,.52,7.17,7.17,0,0,1-4.22-1.1,4.11,4.11,0,0,1-1.76-2.95l3.93-.1a1.53,1.53,0,0,0,.67,1,2.5,2.5,0,0,0,1.39.36,2.39,2.39,0,0,0,1.24-.29.86.86,0,0,0,.49-.75.81.81,0,0,0-.37-.68,3,3,0,0,0-1.15-.4l-2.18-.42a5.18,5.18,0,0,1-2.79-1.26,3.2,3.2,0,0,1-.91-2.35,3.42,3.42,0,0,1,.67-2.14,4.14,4.14,0,0,1,1.91-1.36,8.16,8.16,0,0,1,2.94-.48,6.63,6.63,0,0,1,4,1.07A3.78,3.78,0,0,1,345.37,305Z"/><path class="cls-2" d="M347.63,313.64V301.16h3.78v2.29h.13a3.55,3.55,0,0,1,1.32-1.8,3.7,3.7,0,0,1,2.21-.66,3.75,3.75,0,0,1,2.23.67,2.89,2.89,0,0,1,1.17,1.79h.13a3.32,3.32,0,0,1,1.37-1.79,4.3,4.3,0,0,1,2.4-.67,3.82,3.82,0,0,1,2.87,1.14,4.23,4.23,0,0,1,1.11,3.1v8.41h-4v-7.5a2,2,0,0,0-.48-1.42,1.82,1.82,0,0,0-2.53,0,2.08,2.08,0,0,0-.46,1.43v7.45h-3.82V306.1a2,2,0,0,0-.47-1.37,1.66,1.66,0,0,0-1.25-.5,1.68,1.68,0,0,0-1.54.95,2.52,2.52,0,0,0-.22,1.07v7.39Z"/><rect class="cls-1" x="15.2" y="260.52" width="140.08" height="68.44" rx="8.5"/><path class="cls-2" d="M49.92,302.66H43.77V286h6.14a9.08,9.08,0,0,1,4.38,1,6.87,6.87,0,0,1,2.84,2.86,9.3,9.3,0,0,1,1,4.46,9.45,9.45,0,0,1-1,4.47,6.87,6.87,0,0,1-2.84,2.86A9.14,9.14,0,0,1,49.92,302.66Zm-2.13-3.42h2a5.25,5.25,0,0,0,2.36-.48,3.09,3.09,0,0,0,1.47-1.55,8.49,8.49,0,0,0,0-5.74,3.17,3.17,0,0,0-1.48-1.54,5.45,5.45,0,0,0-2.41-.47H47.79Z"/><path class="cls-2" d="M66.31,302.9a7,7,0,0,1-3.38-.77,5.3,5.3,0,0,1-2.18-2.22,7.37,7.37,0,0,1-.76-3.44,7.17,7.17,0,0,1,.77-3.38,5.51,5.51,0,0,1,2.15-2.26,6.4,6.4,0,0,1,3.27-.81,6.83,6.83,0,0,1,2.44.42,5.3,5.3,0,0,1,1.91,1.22,5.71,5.71,0,0,1,1.25,2,7.64,7.64,0,0,1,.45,2.72v1H61.38v-2.31h7.15a2.12,2.12,0,0,0-.3-1.13,2.07,2.07,0,0,0-.8-.78,2.34,2.34,0,0,0-1.16-.28,2.38,2.38,0,0,0-1.2.3,2.3,2.3,0,0,0-.84.8,2.36,2.36,0,0,0-.32,1.15v2.35a2.88,2.88,0,0,0,.3,1.34,2.21,2.21,0,0,0,.85.89,2.63,2.63,0,0,0,1.32.31,3.22,3.22,0,0,0,1-.14,2.36,2.36,0,0,0,.74-.43,1.86,1.86,0,0,0,.46-.7l3.65.1a4.56,4.56,0,0,1-1,2.14,5,5,0,0,1-2,1.4A7.74,7.74,0,0,1,66.31,302.9Z"/><path class="cls-2" d="M78.24,295.55v7.11h-4V290.19H78v2.29h.14a3.49,3.49,0,0,1,1.42-1.8A4.21,4.21,0,0,1,82,290a4.32,4.32,0,0,1,2.28.59,4.05,4.05,0,0,1,1.51,1.64,5.37,5.37,0,0,1,.54,2.46v8h-4v-7.17a2.29,2.29,0,0,0-.52-1.62,1.91,1.91,0,0,0-1.48-.59,2.12,2.12,0,0,0-1.1.28,1.76,1.76,0,0,0-.73.77A2.68,2.68,0,0,0,78.24,295.55Z"/><path class="cls-2" d="M99.67,294l-3.65.09a1.36,1.36,0,0,0-.31-.69,1.7,1.7,0,0,0-.65-.48,2.45,2.45,0,0,0-.93-.17A2.42,2.42,0,0,0,93,293a.82.82,0,0,0-.47.75.76.76,0,0,0,.3.63,2.42,2.42,0,0,0,1.09.43l2.4.46a5.75,5.75,0,0,1,2.79,1.18,2.88,2.88,0,0,1,.92,2.2,3.56,3.56,0,0,1-.76,2.23,4.86,4.86,0,0,1-2,1.48,8.12,8.12,0,0,1-3,.52A7.15,7.15,0,0,1,90,301.8a4.11,4.11,0,0,1-1.76-2.95l3.93-.1a1.53,1.53,0,0,0,.67,1,2.47,2.47,0,0,0,1.39.36,2.39,2.39,0,0,0,1.24-.29.86.86,0,0,0,.49-.75.8.8,0,0,0-.37-.68,3,3,0,0,0-1.15-.4l-2.18-.42a5.11,5.11,0,0,1-2.79-1.26,3.16,3.16,0,0,1-.91-2.35,3.36,3.36,0,0,1,.67-2.14,4.09,4.09,0,0,1,1.91-1.36,8.16,8.16,0,0,1,2.94-.48,6.7,6.7,0,0,1,4,1.06A3.81,3.81,0,0,1,99.67,294Z"/><path class="cls-2" d="M103.93,288.73a2,2,0,0,1-1.45-.55,1.81,1.81,0,0,1,0-2.69,2.16,2.16,0,0,1,2.88,0,1.79,1.79,0,0,1,.6,1.35,1.76,1.76,0,0,1-.6,1.34A2,2,0,0,1,103.93,288.73Zm-2,13.93V290.19h4v12.47Z"/><path class="cls-2" d="M115.46,290.19v2.92h-7.87v-2.92Zm-6.22-3h4v11.54a1.26,1.26,0,0,0,.12.59.7.7,0,0,0,.34.32,1.55,1.55,0,0,0,.55.09,4.23,4.23,0,0,0,.48,0l.39-.08.6,2.87-.8.2a6.89,6.89,0,0,1-1.23.15,5.52,5.52,0,0,1-2.39-.33,3,3,0,0,1-1.52-1.23,3.78,3.78,0,0,1-.51-2.1Z"/><path class="cls-2" d="M119.92,307.34a7.24,7.24,0,0,1-1.35-.11,6.37,6.37,0,0,1-1.09-.28l.88-2.89a4.33,4.33,0,0,0,1.06.23,1.53,1.53,0,0,0,.82-.15,1.18,1.18,0,0,0,.53-.65l.16-.37-4.44-12.93h4.16l2.3,8.9h.13l2.33-8.9h4.19l-4.71,13.67a5.92,5.92,0,0,1-1,1.81,4.29,4.29,0,0,1-1.6,1.23A5.77,5.77,0,0,1,119.92,307.34Z"/><path class="cls-2" d="M263.59,151.09v1.56h-6.36v-1.56Z"/><path class="cls-2" d="M266.77,159.14V144.59h1.76v6.48h7.76v-6.48h1.76v14.55h-1.76v-6.51h-7.76v6.51Z"/><path class="cls-2" d="M284.55,159.4a4.46,4.46,0,0,1-1.88-.4,3.17,3.17,0,0,1-1.34-1.14,3.24,3.24,0,0,1-.5-1.82,2.87,2.87,0,0,1,.37-1.52,2.65,2.65,0,0,1,1-.92,5.31,5.31,0,0,1,1.37-.5c.5-.11,1-.2,1.51-.27l1.61-.19a2.52,2.52,0,0,0,.91-.23.61.61,0,0,0,.29-.57v-.06a2.23,2.23,0,0,0-.57-1.63,2.32,2.32,0,0,0-1.73-.58,3.05,3.05,0,0,0-1.89.52,3.13,3.13,0,0,0-.95,1.12l-1.59-.56a3.8,3.8,0,0,1,1.14-1.56,4.24,4.24,0,0,1,1.56-.78,6.44,6.44,0,0,1,1.67-.22,7.14,7.14,0,0,1,1.21.12,4.25,4.25,0,0,1,1.33.51,3,3,0,0,1,1.07,1.16,4.34,4.34,0,0,1,.42,2.07v7.19h-1.67v-1.48h-.09a2.88,2.88,0,0,1-.56.76,3.36,3.36,0,0,1-1.06.69A4.08,4.08,0,0,1,284.55,159.4Zm.26-1.51a3.37,3.37,0,0,0,1.68-.39,2.73,2.73,0,0,0,1-1,2.61,2.61,0,0,0,.35-1.3v-1.53a1.06,1.06,0,0,1-.47.23,6.79,6.79,0,0,1-.82.18l-.9.12-.71.09a6.41,6.41,0,0,0-1.22.28,2.1,2.1,0,0,0-.91.56,1.42,1.42,0,0,0-.34,1,1.51,1.51,0,0,0,.65,1.32A2.89,2.89,0,0,0,284.81,157.89Z"/><path class="cls-2" d="M294.3,152.58v6.56h-1.68V148.23h1.62v1.71h.14a3.1,3.1,0,0,1,1.17-1.34,3.62,3.62,0,0,1,2-.51,4,4,0,0,1,1.93.45,3.11,3.11,0,0,1,1.3,1.36,5.08,5.08,0,0,1,.46,2.31v6.93h-1.68v-6.82a2.86,2.86,0,0,0-.66-2,2.4,2.4,0,0,0-1.84-.73,2.94,2.94,0,0,0-1.43.35,2.44,2.44,0,0,0-1,1A3.34,3.34,0,0,0,294.3,152.58Z"/><path class="cls-2" d="M308.45,159.37a4.26,4.26,0,0,1-2.41-.69,4.71,4.71,0,0,1-1.64-2,8,8,0,0,1,0-6,4.6,4.6,0,0,1,1.65-1.95,4.31,4.31,0,0,1,2.42-.69,3.49,3.49,0,0,1,1.69.35,3,3,0,0,1,.95.8c.22.29.39.53.52.72h.14v-5.37h1.68v14.55h-1.62v-1.68h-.2c-.13.2-.3.45-.53.75a3.19,3.19,0,0,1-1,.81A3.5,3.5,0,0,1,308.45,159.37Zm.22-1.51a2.76,2.76,0,0,0,1.71-.53,3.33,3.33,0,0,0,1.06-1.47,6.06,6.06,0,0,0,.36-2.17,5.91,5.91,0,0,0-.36-2.15,3,3,0,0,0-1.05-1.43,3.11,3.11,0,0,0-3.49,0,3.29,3.29,0,0,0-1.06,1.47,6.36,6.36,0,0,0,0,4.19,3.33,3.33,0,0,0,1.07,1.5A2.68,2.68,0,0,0,308.67,157.86Z"/><path class="cls-2" d="M330.09,150.67l-1.5.43a3,3,0,0,0-.42-.73,2.12,2.12,0,0,0-.74-.6,2.76,2.76,0,0,0-1.2-.23,2.86,2.86,0,0,0-1.67.46,1.36,1.36,0,0,0-.66,1.16,1.19,1.19,0,0,0,.45,1,3.7,3.7,0,0,0,1.43.61l1.61.4a4.34,4.34,0,0,1,2.18,1.08,2.54,2.54,0,0,1,.72,1.87,2.87,2.87,0,0,1-.53,1.68,3.61,3.61,0,0,1-1.5,1.16,5.51,5.51,0,0,1-2.23.43,4.85,4.85,0,0,1-2.76-.73,3.24,3.24,0,0,1-1.39-2.11l1.59-.4a2.2,2.2,0,0,0,.87,1.32,2.88,2.88,0,0,0,1.66.44,3.19,3.19,0,0,0,1.87-.5,1.46,1.46,0,0,0,.69-1.2,1.28,1.28,0,0,0-.4-1,2.53,2.53,0,0,0-1.22-.58l-1.82-.43a4.26,4.26,0,0,1-2.2-1.1,2.83,2.83,0,0,1-.17-3.51,3.48,3.48,0,0,1,1.42-1.12,5,5,0,0,1,2.06-.4,4.13,4.13,0,0,1,2.55.71A3.87,3.87,0,0,1,330.09,150.67Z"/><path class="cls-2" d="M337.25,159.37a4.75,4.75,0,0,1-2.59-.71,4.66,4.66,0,0,1-1.73-2,7.4,7.4,0,0,1,0-5.93,4.77,4.77,0,0,1,8.64,0,7.4,7.4,0,0,1,0,5.93,4.66,4.66,0,0,1-1.73,2A4.72,4.72,0,0,1,337.25,159.37Zm0-1.51a2.92,2.92,0,0,0,1.85-.57,3.42,3.42,0,0,0,1.07-1.52,5.81,5.81,0,0,0,.35-2,5.91,5.91,0,0,0-.35-2,3.37,3.37,0,0,0-1.07-1.52,3.2,3.2,0,0,0-3.7,0,3.45,3.45,0,0,0-1.07,1.52,5.91,5.91,0,0,0-.35,2,5.81,5.81,0,0,0,.35,2,3.51,3.51,0,0,0,1.07,1.52A2.92,2.92,0,0,0,337.25,157.86Z"/><path class="cls-2" d="M344.75,159.14V148.23h1.62v1.65h.11a2.66,2.66,0,0,1,1.08-1.32,3.24,3.24,0,0,1,1.77-.5h.46l.42,0v1.7l-.39-.06a4.26,4.26,0,0,0-.64,0,2.94,2.94,0,0,0-1.41.33,2.46,2.46,0,0,0-1.34,2.23v6.9Z"/><path class="cls-2" d="M357.62,148.23v1.42H352v-1.42Zm-4-2.61h1.68V156a2.13,2.13,0,0,0,.21,1.06,1.06,1.06,0,0,0,.54.47,2.28,2.28,0,0,0,.7.11,2.72,2.72,0,0,0,.45,0l.29,0,.34,1.5a2.26,2.26,0,0,1-.48.13,3.31,3.31,0,0,1-.77.07,3.41,3.41,0,0,1-1.39-.3,2.88,2.88,0,0,1-1.12-.93,2.66,2.66,0,0,1-.45-1.58Z"/><path class="cls-2" d="M361,146.41a1.17,1.17,0,0,1-.84-.33,1.08,1.08,0,0,1-.35-.8,1.1,1.1,0,0,1,.35-.81,1.23,1.23,0,0,1,1.68,0,1.06,1.06,0,0,1,.35.81,1,1,0,0,1-.35.8A1.17,1.17,0,0,1,361,146.41Zm-.85,12.73V148.23h1.67v10.91Z"/><path class="cls-2" d="M366.57,152.58v6.56h-1.68V148.23h1.62v1.71h.14a3.1,3.1,0,0,1,1.17-1.34,3.62,3.62,0,0,1,2-.51,4.05,4.05,0,0,1,1.94.45,3.15,3.15,0,0,1,1.29,1.36,5.08,5.08,0,0,1,.46,2.31v6.93h-1.68v-6.82a2.86,2.86,0,0,0-.66-2,2.4,2.4,0,0,0-1.84-.73,2.94,2.94,0,0,0-1.43.35,2.44,2.44,0,0,0-1,1A3.34,3.34,0,0,0,366.57,152.58Z"/><path class="cls-2" d="M381,163.46a6.44,6.44,0,0,1-2.09-.31,4.68,4.68,0,0,1-1.45-.81,4.34,4.34,0,0,1-.92-1.07l1.34-.94q.22.3.57.69a2.86,2.86,0,0,0,1,.67A3.59,3.59,0,0,0,381,162a3.52,3.52,0,0,0,2.18-.64,2.33,2.33,0,0,0,.86-2v-2.22h-.14a9,9,0,0,1-.52.74,3,3,0,0,1-1,.77,3.52,3.52,0,0,1-1.69.34,4.52,4.52,0,0,1-2.37-.63,4.36,4.36,0,0,1-1.66-1.81,6.41,6.41,0,0,1-.6-2.9,6.65,6.65,0,0,1,.59-2.92,4.54,4.54,0,0,1,1.64-1.94,4.39,4.39,0,0,1,2.42-.68,3.56,3.56,0,0,1,1.7.35,3,3,0,0,1,1,.8c.23.29.4.53.53.72h.17v-1.73h1.62v11.22a3.85,3.85,0,0,1-.64,2.29,3.63,3.63,0,0,1-1.7,1.3A6.5,6.5,0,0,1,381,163.46Zm-.06-6a3,3,0,0,0,1.71-.46,2.89,2.89,0,0,0,1.06-1.33,5.33,5.33,0,0,0,.36-2.07,5.56,5.56,0,0,0-.36-2.08,3,3,0,0,0-1-1.41,3.14,3.14,0,0,0-3.49,0,3.34,3.34,0,0,0-1.06,1.45,5.67,5.67,0,0,0-.35,2,5.22,5.22,0,0,0,.36,2,2.86,2.86,0,0,0,2.82,1.85Z"/><path class="cls-2" d="M263.59,175.09v1.56h-6.36v-1.56Z"/><path class="cls-2" d="M266.77,183.14V168.59h5.09a5.29,5.29,0,0,1,2.5.53,3.38,3.38,0,0,1,1.47,1.4,4,4,0,0,1,.49,1.94A3.26,3.26,0,0,1,276,174a2.61,2.61,0,0,1-.87,1,4.2,4.2,0,0,1-1.16.53v.14a2.82,2.82,0,0,1,1.34.47,3.34,3.34,0,0,1,1.13,1.22,4.3,4.3,0,0,1,0,3.91,3.41,3.41,0,0,1-1.57,1.39,6.56,6.56,0,0,1-2.79.51Zm1.76-8.15h3.27a3.24,3.24,0,0,0,1.44-.32,2.43,2.43,0,0,0,1-.88,2.36,2.36,0,0,0,.38-1.33,2.21,2.21,0,0,0-.67-1.63,2.86,2.86,0,0,0-2.11-.67h-3.33Zm0,6.59H272a3.63,3.63,0,0,0,2.45-.67,2.12,2.12,0,0,0,.73-1.63,2.62,2.62,0,0,0-.38-1.37,2.74,2.74,0,0,0-1.07-1,3.41,3.41,0,0,0-1.65-.38h-3.58Z"/><path class="cls-2" d="M286.43,178.68v-6.45h1.68v10.91h-1.68v-1.85h-.11a3.52,3.52,0,0,1-1.2,1.41,3.39,3.39,0,0,1-2,.58,3.64,3.64,0,0,1-1.82-.45,3.07,3.07,0,0,1-1.25-1.36,5.22,5.22,0,0,1-.46-2.31v-6.93h1.68v6.82a2.64,2.64,0,0,0,.67,1.9,2.24,2.24,0,0,0,1.72.71,2.89,2.89,0,0,0,2.36-1.3A2.92,2.92,0,0,0,286.43,178.68Z"/><path class="cls-2" d="M291.17,183.14V172.23h1.62v1.65h.12a2.66,2.66,0,0,1,1.08-1.32,3.2,3.2,0,0,1,1.76-.5h.46l.42,0v1.7l-.39-.06a4.23,4.23,0,0,0-.63,0,3,3,0,0,0-1.42.33,2.46,2.46,0,0,0-1.34,2.23v6.9Z"/><path class="cls-2" d="M300.29,176.58v6.56h-1.67V172.23h1.62v1.71h.14a3,3,0,0,1,1.16-1.34,3.65,3.65,0,0,1,2-.51,4,4,0,0,1,1.94.45,3.15,3.15,0,0,1,1.29,1.36,5.08,5.08,0,0,1,.46,2.31v6.93h-1.67v-6.82a2.86,2.86,0,0,0-.67-2,2.39,2.39,0,0,0-1.83-.73,2.91,2.91,0,0,0-1.43.35,2.52,2.52,0,0,0-1,1A3.34,3.34,0,0,0,300.29,176.58Z"/><path class="cls-2" d="M320.69,172.23v1.42H315v-1.42Zm-4-2.61h1.68V180a2.13,2.13,0,0,0,.21,1.06,1.06,1.06,0,0,0,.54.47,2.28,2.28,0,0,0,.7.11,2.72,2.72,0,0,0,.45,0l.29,0,.34,1.5a2.26,2.26,0,0,1-.48.13,3.31,3.31,0,0,1-.77.07,3.41,3.41,0,0,1-1.39-.3,2.81,2.81,0,0,1-1.12-.93,2.66,2.66,0,0,1-.45-1.58Z"/><path class="cls-2" d="M327.68,183.37a5.17,5.17,0,0,1-2.72-.7,4.63,4.63,0,0,1-1.75-2,6.63,6.63,0,0,1-.62-2.94,6.78,6.78,0,0,1,.62-3,4.81,4.81,0,0,1,1.72-2,4.59,4.59,0,0,1,2.58-.72,5.11,5.11,0,0,1,1.68.28,4.16,4.16,0,0,1,1.51.92,4.49,4.49,0,0,1,1.09,1.68,7.18,7.18,0,0,1,.41,2.57v.71h-8.41v-1.44h6.7a3.64,3.64,0,0,0-.36-1.65,2.82,2.82,0,0,0-1-1.15,2.94,2.94,0,0,0-1.58-.42,3,3,0,0,0-1.73.5,3.22,3.22,0,0,0-1.12,1.28,3.78,3.78,0,0,0-.39,1.69v1a4.58,4.58,0,0,0,.43,2.09,3,3,0,0,0,1.2,1.3,3.85,3.85,0,0,0,3,.25,2.38,2.38,0,0,0,.92-.57,2.6,2.6,0,0,0,.61-.94l1.62.45a3.64,3.64,0,0,1-.86,1.45,4.21,4.21,0,0,1-1.5,1A5.43,5.43,0,0,1,327.68,183.37Z"/><path class="cls-2" d="M342.48,174.67l-1.51.43a2.66,2.66,0,0,0-.41-.73,2.12,2.12,0,0,0-.74-.6A3.25,3.25,0,0,0,337,174a1.36,1.36,0,0,0-.66,1.16,1.19,1.19,0,0,0,.45,1,3.65,3.65,0,0,0,1.42.61l1.62.4a4.38,4.38,0,0,1,2.18,1.08,2.54,2.54,0,0,1,.72,1.87,2.81,2.81,0,0,1-.54,1.68,3.58,3.58,0,0,1-1.49,1.16,5.54,5.54,0,0,1-2.23.43,4.86,4.86,0,0,1-2.77-.73,3.22,3.22,0,0,1-1.38-2.11l1.59-.4a2.19,2.19,0,0,0,.86,1.32,2.92,2.92,0,0,0,1.67.44,3.13,3.13,0,0,0,1.86-.5,1.47,1.47,0,0,0,.7-1.2,1.31,1.31,0,0,0-.4-1,2.57,2.57,0,0,0-1.22-.58l-1.82-.43a4.26,4.26,0,0,1-2.2-1.1,2.62,2.62,0,0,1-.7-1.88,2.67,2.67,0,0,1,.52-1.63,3.58,3.58,0,0,1,1.43-1.12,5,5,0,0,1,2.06-.4,4.1,4.1,0,0,1,2.54.71A3.83,3.83,0,0,1,342.48,174.67Z"/><path class="cls-2" d="M350,172.23v1.42H344.3v-1.42Zm-4-2.61h1.68V180a2.13,2.13,0,0,0,.21,1.06,1.06,1.06,0,0,0,.54.47,2.28,2.28,0,0,0,.7.11,3,3,0,0,0,.46,0l.28,0,.34,1.5a2.26,2.26,0,0,1-.48.13,3.31,3.31,0,0,1-.77.07,3.41,3.41,0,0,1-1.39-.3,2.88,2.88,0,0,1-1.12-.93,2.66,2.66,0,0,1-.45-1.58Z"/><path class="cls-2" d="M353.33,170.41a1.17,1.17,0,0,1-.84-.33,1.08,1.08,0,0,1-.35-.8,1.1,1.1,0,0,1,.35-.81,1.23,1.23,0,0,1,1.68,0,1.06,1.06,0,0,1,.35.81,1,1,0,0,1-.35.8A1.17,1.17,0,0,1,353.33,170.41Zm-.85,12.73V172.23h1.67v10.91Z"/><path class="cls-2" d="M358.9,176.58v6.56h-1.68V172.23h1.62v1.71H359a3.1,3.1,0,0,1,1.17-1.34,3.62,3.62,0,0,1,2-.51,4.05,4.05,0,0,1,1.94.45,3.15,3.15,0,0,1,1.29,1.36,5.08,5.08,0,0,1,.46,2.31v6.93h-1.68v-6.82a2.86,2.86,0,0,0-.66-2,2.4,2.4,0,0,0-1.84-.73,2.94,2.94,0,0,0-1.43.35,2.44,2.44,0,0,0-1,1A3.34,3.34,0,0,0,358.9,176.58Z"/><path class="cls-2" d="M373.33,187.46a6.44,6.44,0,0,1-2.09-.31,4.68,4.68,0,0,1-1.45-.81,4.34,4.34,0,0,1-.92-1.07l1.34-.94q.23.3.57.69a2.86,2.86,0,0,0,1,.67,3.59,3.59,0,0,0,1.59.29,3.52,3.52,0,0,0,2.18-.64,2.33,2.33,0,0,0,.86-2v-2.22h-.14a9,9,0,0,1-.52.74,3,3,0,0,1-1,.77,3.52,3.52,0,0,1-1.69.34,4.52,4.52,0,0,1-2.37-.63,4.36,4.36,0,0,1-1.66-1.81,6.41,6.41,0,0,1-.6-2.9,6.65,6.65,0,0,1,.59-2.92,4.54,4.54,0,0,1,1.64-1.94,4.39,4.39,0,0,1,2.42-.68,3.56,3.56,0,0,1,1.7.35,3,3,0,0,1,1,.8c.23.29.4.53.53.72h.17v-1.73h1.62v11.22a3.85,3.85,0,0,1-.64,2.29,3.63,3.63,0,0,1-1.7,1.3A6.5,6.5,0,0,1,373.33,187.46Zm-.06-6A3,3,0,0,0,375,181a2.89,2.89,0,0,0,1.06-1.33,5.33,5.33,0,0,0,.36-2.07,5.56,5.56,0,0,0-.36-2.08,3,3,0,0,0-1.05-1.41,3.14,3.14,0,0,0-3.49,0,3.34,3.34,0,0,0-1.06,1.45,5.67,5.67,0,0,0-.35,2,5.22,5.22,0,0,0,.36,2,2.86,2.86,0,0,0,2.82,1.85Z"/><path class="cls-2" d="M263.59,199.09v1.56h-6.36v-1.56Z"/><path class="cls-2" d="M278.31,192.59v14.55H276.6l-7.93-11.42h-.14v11.42h-1.76V192.59h1.71L276.43,204h.14V192.59Z"/><path class="cls-2" d="M286.17,207.37a5.13,5.13,0,0,1-2.71-.7,4.65,4.65,0,0,1-1.76-2,6.63,6.63,0,0,1-.61-2.94,6.78,6.78,0,0,1,.61-3,4.88,4.88,0,0,1,1.72-2,4.63,4.63,0,0,1,2.58-.72,5.21,5.21,0,0,1,1.69.28,4.33,4.33,0,0,1,1.51.92,4.62,4.62,0,0,1,1.09,1.68,7.19,7.19,0,0,1,.4,2.57v.71h-8.41v-1.44H289a3.64,3.64,0,0,0-.37-1.65,2.76,2.76,0,0,0-1-1.15,2.89,2.89,0,0,0-1.58-.42,3,3,0,0,0-1.73.5,3.27,3.27,0,0,0-1.11,1.28,3.78,3.78,0,0,0-.39,1.69v1a4.72,4.72,0,0,0,.42,2.09,3.09,3.09,0,0,0,1.2,1.3,3.56,3.56,0,0,0,1.78.44,3.51,3.51,0,0,0,1.2-.19,2.34,2.34,0,0,0,.93-.57,2.45,2.45,0,0,0,.6-.94l1.62.45a3.64,3.64,0,0,1-.86,1.45,4.16,4.16,0,0,1-1.49,1A5.48,5.48,0,0,1,286.17,207.37Z"/><path class="cls-2" d="M296.46,207.4a4.43,4.43,0,0,1-1.88-.4,3.2,3.2,0,0,1-1.35-1.14,3.24,3.24,0,0,1-.49-1.82,2.78,2.78,0,0,1,.37-1.52,2.55,2.55,0,0,1,1-.92,5.31,5.31,0,0,1,1.37-.5c.5-.11,1-.2,1.51-.27l1.61-.19a2.52,2.52,0,0,0,.91-.23.59.59,0,0,0,.29-.57v-.06a2.23,2.23,0,0,0-.57-1.63,2.32,2.32,0,0,0-1.73-.58,3,3,0,0,0-1.88.52,3.07,3.07,0,0,0-1,1.12l-1.59-.56a3.8,3.8,0,0,1,1.14-1.56,4.32,4.32,0,0,1,1.56-.78,6.5,6.5,0,0,1,1.67-.22,7,7,0,0,1,1.21.12,4.25,4.25,0,0,1,1.33.51,3,3,0,0,1,1.07,1.16,4.22,4.22,0,0,1,.43,2.07v7.19h-1.68v-1.48h-.08a3.19,3.19,0,0,1-.57.76,3.36,3.36,0,0,1-1.06.69A4.06,4.06,0,0,1,296.46,207.4Zm.25-1.51a3.31,3.31,0,0,0,1.68-.39,2.66,2.66,0,0,0,1-1,2.61,2.61,0,0,0,.35-1.3v-1.53a1,1,0,0,1-.46.23,7,7,0,0,1-.83.18l-.9.12-.71.09a6.3,6.3,0,0,0-1.21.28,2,2,0,0,0-.91.56,1.42,1.42,0,0,0-.35,1,1.51,1.51,0,0,0,.65,1.32A2.94,2.94,0,0,0,296.71,205.89Z"/><path class="cls-2" d="M304.53,207.14V196.23h1.62v1.65h.11a2.66,2.66,0,0,1,1.08-1.32,3.23,3.23,0,0,1,1.76-.5h.46l.42,0v1.7l-.39-.06a4.23,4.23,0,0,0-.63,0,3,3,0,0,0-1.42.33,2.53,2.53,0,0,0-1,.91,2.44,2.44,0,0,0-.36,1.32v6.9Z"/><path class="cls-2" d="M318.45,194.41a1.17,1.17,0,0,1-.84-.33,1.05,1.05,0,0,1-.36-.8,1.07,1.07,0,0,1,.36-.81,1.17,1.17,0,0,1,.84-.33,1.2,1.2,0,0,1,.84.33,1.1,1.1,0,0,1,.35.81,1.08,1.08,0,0,1-.35.8A1.2,1.2,0,0,1,318.45,194.41Zm-.86,12.73V196.23h1.68v10.91Z"/><path class="cls-2" d="M324,200.58v6.56h-1.67V196.23H324v1.71h.14a3.08,3.08,0,0,1,1.16-1.34,3.67,3.67,0,0,1,2-.51,4,4,0,0,1,1.94.45,3.09,3.09,0,0,1,1.29,1.36,5.08,5.08,0,0,1,.47,2.31v6.93H329.3v-6.82a2.81,2.81,0,0,0-.67-2,2.38,2.38,0,0,0-1.83-.73,2.91,2.91,0,0,0-1.43.35,2.44,2.44,0,0,0-1,1A3.34,3.34,0,0,0,324,200.58Z"/><path class="cls-2" d="M338.9,196.23v1.42H333v-1.42Zm-4.12,10.91V194.72a2.68,2.68,0,0,1,.44-1.56,2.89,2.89,0,0,1,1.14-.94,3.79,3.79,0,0,1,1.49-.31,4.57,4.57,0,0,1,1,.1,3.92,3.92,0,0,1,.58.19l-.48,1.45-.35-.11a2.32,2.32,0,0,0-.59-.07,1.53,1.53,0,0,0-1.2.42,1.84,1.84,0,0,0-.36,1.23v12Z"/><path class="cls-2" d="M341.26,207.14V196.23h1.62v1.65H343a2.66,2.66,0,0,1,1.08-1.32,3.23,3.23,0,0,1,1.76-.5h.46l.42,0v1.7l-.38-.06a4.48,4.48,0,0,0-.64,0,3,3,0,0,0-1.42.33,2.53,2.53,0,0,0-1,.91,2.44,2.44,0,0,0-.36,1.32v6.9Z"/><path class="cls-2" d="M351.91,207.4A4.43,4.43,0,0,1,350,207a3.17,3.17,0,0,1-1.34-1.14,3.24,3.24,0,0,1-.5-1.82,2.78,2.78,0,0,1,.37-1.52,2.65,2.65,0,0,1,1-.92,5.23,5.23,0,0,1,1.36-.5c.5-.11,1-.2,1.51-.27l1.62-.19a2.58,2.58,0,0,0,.91-.23.61.61,0,0,0,.29-.57v-.06a2.2,2.2,0,0,0-.58-1.63,2.3,2.3,0,0,0-1.73-.58,3,3,0,0,0-1.88.52,3.27,3.27,0,0,0-1,1.12l-1.59-.56a4,4,0,0,1,1.14-1.56,4.37,4.37,0,0,1,1.57-.78,6.44,6.44,0,0,1,1.67-.22,7.14,7.14,0,0,1,1.21.12,4.25,4.25,0,0,1,1.33.51,3,3,0,0,1,1.07,1.16,4.34,4.34,0,0,1,.42,2.07v7.19h-1.67v-1.48h-.09a2.73,2.73,0,0,1-.57.76,3.25,3.25,0,0,1-1.06.69A4,4,0,0,1,351.91,207.4Zm.26-1.51a3.37,3.37,0,0,0,1.68-.39,2.7,2.7,0,0,0,1-1,2.52,2.52,0,0,0,.36-1.3v-1.53a1.12,1.12,0,0,1-.47.23,6.79,6.79,0,0,1-.82.18l-.91.12-.7.09a6.41,6.41,0,0,0-1.22.28,2,2,0,0,0-.91.56,1.42,1.42,0,0,0-.34,1,1.49,1.49,0,0,0,.65,1.32A2.89,2.89,0,0,0,352.17,205.89Z"/><path class="cls-2" d="M360,207.14V196.23h1.62v1.65h.11a2.66,2.66,0,0,1,1.08-1.32,3.23,3.23,0,0,1,1.76-.5H365l.41,0v1.7l-.38-.06a4.37,4.37,0,0,0-.64,0A3,3,0,0,0,363,198a2.48,2.48,0,0,0-1.33,2.23v6.9Z"/><path class="cls-2" d="M371.66,207.37a5.17,5.17,0,0,1-2.72-.7,4.63,4.63,0,0,1-1.75-2,6.63,6.63,0,0,1-.62-2.94,6.78,6.78,0,0,1,.62-3,4.86,4.86,0,0,1,1.71-2,4.64,4.64,0,0,1,2.59-.72,5.19,5.19,0,0,1,1.68.28,4.24,4.24,0,0,1,1.51.92,4.49,4.49,0,0,1,1.09,1.68,7.19,7.19,0,0,1,.4,2.57v.71h-8.41v-1.44h6.71a3.52,3.52,0,0,0-.37-1.65,2.8,2.8,0,0,0-1-1.15,2.94,2.94,0,0,0-1.58-.42,3,3,0,0,0-1.73.5,3.22,3.22,0,0,0-1.12,1.28,3.78,3.78,0,0,0-.39,1.69v1a4.58,4.58,0,0,0,.43,2.09,3,3,0,0,0,1.19,1.3,3.6,3.6,0,0,0,1.79.44,3.42,3.42,0,0,0,1.19-.19,2.34,2.34,0,0,0,.93-.57,2.45,2.45,0,0,0,.6-.94l1.62.45a3.52,3.52,0,0,1-.86,1.45,4.16,4.16,0,0,1-1.49,1A5.43,5.43,0,0,1,371.66,207.37Z"/><path class="cls-2" d="M382.85,207.37a4.28,4.28,0,0,1-2.41-.69,4.69,4.69,0,0,1-1.63-2,7.87,7.87,0,0,1,0-6,4.58,4.58,0,0,1,1.64-1.95,4.32,4.32,0,0,1,2.43-.69,3.44,3.44,0,0,1,1.68.35,3,3,0,0,1,1,.8q.33.44.51.72h.14v-5.37h1.68v14.55h-1.62v-1.68H386c-.12.2-.3.45-.52.75a3.24,3.24,0,0,1-1,.81A3.5,3.5,0,0,1,382.85,207.37Zm.23-1.51a2.74,2.74,0,0,0,1.7-.53,3.26,3.26,0,0,0,1.06-1.47,6.06,6.06,0,0,0,.36-2.17,6.13,6.13,0,0,0-.35-2.15,3.17,3.17,0,0,0-1.05-1.43,3.13,3.13,0,0,0-3.5,0,3.2,3.2,0,0,0-1.05,1.47,5.71,5.71,0,0,0-.35,2.08,5.91,5.91,0,0,0,.35,2.11,3.41,3.41,0,0,0,1.07,1.5A2.71,2.71,0,0,0,383.08,205.86Z"/><path class="cls-2" d="M32.21,151.09v1.56H25.85v-1.56Z"/><path class="cls-2" d="M35.4,159.14V144.59h5.08a5.33,5.33,0,0,1,2.51.53,3.38,3.38,0,0,1,1.47,1.4,4,4,0,0,1,.48,1.94,3.26,3.26,0,0,1-.33,1.55,2.61,2.61,0,0,1-.87,1,4,4,0,0,1-1.16.53v.14a2.75,2.75,0,0,1,1.34.47,3.34,3.34,0,0,1,1.13,1.22,3.8,3.8,0,0,1,.46,1.95,3.89,3.89,0,0,1-.5,2,3.37,3.37,0,0,1-1.57,1.39,6.5,6.5,0,0,1-2.79.51ZM37.16,151h3.26a3.24,3.24,0,0,0,1.44-.32,2.43,2.43,0,0,0,1-.88,2.28,2.28,0,0,0,.38-1.33,2.24,2.24,0,0,0-.66-1.63,2.88,2.88,0,0,0-2.12-.67H37.16Zm0,6.59h3.49a3.61,3.61,0,0,0,2.45-.67,2.12,2.12,0,0,0,.73-1.63,2.61,2.61,0,0,0-.37-1.37,2.77,2.77,0,0,0-1.08-1,3.4,3.4,0,0,0-1.64-.38H37.16Z"/><path class="cls-2" d="M51.39,159.4a4.43,4.43,0,0,1-1.88-.4,3.2,3.2,0,0,1-1.35-1.14,3.24,3.24,0,0,1-.49-1.82,2.78,2.78,0,0,1,.37-1.52,2.55,2.55,0,0,1,1-.92,5.44,5.44,0,0,1,1.37-.5c.5-.11,1-.2,1.51-.27l1.62-.19a2.51,2.51,0,0,0,.9-.23.59.59,0,0,0,.29-.57v-.06a2.23,2.23,0,0,0-.57-1.63,2.32,2.32,0,0,0-1.73-.58,3,3,0,0,0-1.88.52,3.07,3.07,0,0,0-1,1.12L48,150.65a3.8,3.8,0,0,1,1.14-1.56,4.4,4.4,0,0,1,1.56-.78,6.56,6.56,0,0,1,1.67-.22,7.25,7.25,0,0,1,1.22.12,4.29,4.29,0,0,1,1.32.51A3,3,0,0,1,56,149.88a4.22,4.22,0,0,1,.43,2.07v7.19H54.71v-1.48h-.08a3.19,3.19,0,0,1-.57.76,3.36,3.36,0,0,1-1.06.69A4.06,4.06,0,0,1,51.39,159.4Zm.25-1.51a3.31,3.31,0,0,0,1.68-.39,2.66,2.66,0,0,0,1-1,2.51,2.51,0,0,0,.35-1.3v-1.53a1,1,0,0,1-.46.23,7,7,0,0,1-.83.18l-.9.12-.7.09a6.24,6.24,0,0,0-1.22.28,2,2,0,0,0-.91.56,1.42,1.42,0,0,0-.35,1,1.51,1.51,0,0,0,.65,1.32A2.94,2.94,0,0,0,51.64,157.89Z"/><path class="cls-2" d="M61.13,144.59v14.55H59.46V144.59Z"/><path class="cls-2" d="M65.88,144.59v14.55H64.2V144.59Z"/><path class="cls-2" d="M69.8,146.41a1.17,1.17,0,0,1-.84-.33,1.05,1.05,0,0,1-.36-.8,1.07,1.07,0,0,1,.36-.81,1.17,1.17,0,0,1,.84-.33,1.2,1.2,0,0,1,.84.33,1.1,1.1,0,0,1,.35.81,1.08,1.08,0,0,1-.35.8A1.2,1.2,0,0,1,69.8,146.41Zm-.86,12.73V148.23h1.68v10.91Z"/><path class="cls-2" d="M81.42,150.67l-1.51.43a2.46,2.46,0,0,0-.42-.73,2,2,0,0,0-.74-.6,2.76,2.76,0,0,0-1.2-.23,2.83,2.83,0,0,0-1.66.46,1.35,1.35,0,0,0-.67,1.16,1.17,1.17,0,0,0,.46,1,3.58,3.58,0,0,0,1.42.61l1.62.4a4.42,4.42,0,0,1,2.18,1.08,2.53,2.53,0,0,1,.71,1.87,2.8,2.8,0,0,1-.53,1.68,3.61,3.61,0,0,1-1.5,1.16,5.51,5.51,0,0,1-2.23.43,4.85,4.85,0,0,1-2.76-.73,3.19,3.19,0,0,1-1.38-2.11l1.59-.4a2.19,2.19,0,0,0,.86,1.32,2.89,2.89,0,0,0,1.67.44,3.13,3.13,0,0,0,1.86-.5,1.46,1.46,0,0,0,.69-1.2,1.28,1.28,0,0,0-.4-1,2.53,2.53,0,0,0-1.22-.58l-1.82-.43a4.22,4.22,0,0,1-2.19-1.1,2.62,2.62,0,0,1-.7-1.88,2.67,2.67,0,0,1,.52-1.63,3.52,3.52,0,0,1,1.43-1.12,5,5,0,0,1,2-.4,4.13,4.13,0,0,1,2.55.71A3.83,3.83,0,0,1,81.42,150.67Z"/><path class="cls-2" d="M88.89,148.23v1.42H83.23v-1.42Zm-4-2.61h1.68V156a2.13,2.13,0,0,0,.21,1.06,1.06,1.06,0,0,0,.54.47,2.28,2.28,0,0,0,.7.11,2.81,2.81,0,0,0,.45,0l.29,0,.34,1.5a2.67,2.67,0,0,1-.48.13,3.31,3.31,0,0,1-.77.07,3.38,3.38,0,0,1-1.39-.3,2.81,2.81,0,0,1-1.12-.93,2.66,2.66,0,0,1-.45-1.58Z"/><path class="cls-2" d="M92.27,146.41a1.17,1.17,0,0,1-.84-.33,1.05,1.05,0,0,1-.36-.8,1.07,1.07,0,0,1,.36-.81,1.17,1.17,0,0,1,.84-.33,1.2,1.2,0,0,1,.84.33,1.1,1.1,0,0,1,.35.81,1.08,1.08,0,0,1-.35.8A1.2,1.2,0,0,1,92.27,146.41Zm-.85,12.73V148.23h1.67v10.91Z"/><path class="cls-2" d="M100.59,159.37a4.67,4.67,0,0,1-2.64-.73,4.75,4.75,0,0,1-1.71-2,6.91,6.91,0,0,1-.59-2.91,6.64,6.64,0,0,1,.61-2.93,4.81,4.81,0,0,1,1.72-2,4.63,4.63,0,0,1,2.58-.72,4.84,4.84,0,0,1,2.08.43,4,4,0,0,1,1.51,1.19,3.71,3.71,0,0,1,.73,1.79H103.2a2.54,2.54,0,0,0-2.61-1.91,2.92,2.92,0,0,0-1.71.51,3.43,3.43,0,0,0-1.15,1.43,5.3,5.3,0,0,0-.41,2.16,5.54,5.54,0,0,0,.41,2.2,3.25,3.25,0,0,0,1.13,1.45,2.9,2.9,0,0,0,1.73.52,2.87,2.87,0,0,0,1.19-.23,2.42,2.42,0,0,0,.9-.65,2.36,2.36,0,0,0,.52-1h1.68a3.9,3.9,0,0,1-2.17,3A4.73,4.73,0,0,1,100.59,159.37Z"/><path class="cls-2" d="M32.21,175.09v1.56H25.85v-1.56Z"/><path class="cls-2" d="M39.88,183.14H35.4V168.59h4.68a7.11,7.11,0,0,1,3.62.87A5.71,5.71,0,0,1,46,172a8.58,8.58,0,0,1,.81,3.88,8.74,8.74,0,0,1-.81,3.91,5.73,5.73,0,0,1-2.36,2.51A7.48,7.48,0,0,1,39.88,183.14Zm-2.72-1.56h2.61a5.78,5.78,0,0,0,3-.7,4.27,4.27,0,0,0,1.77-2,8.38,8.38,0,0,0,0-6.1,4.33,4.33,0,0,0-1.72-2,5.54,5.54,0,0,0-2.85-.68H37.16Z"/><path class="cls-2" d="M49.54,183.14V172.23h1.62v1.65h.12a2.56,2.56,0,0,1,1.08-1.32,3.2,3.2,0,0,1,1.76-.5h.46l.42,0v1.7l-.39-.06a4.26,4.26,0,0,0-.64,0,2.94,2.94,0,0,0-1.41.33,2.46,2.46,0,0,0-1.34,2.23v6.9Z"/><path class="cls-2" d="M63.86,178.68v-6.45h1.68v10.91H63.86v-1.85h-.11a3.52,3.52,0,0,1-1.2,1.41,3.39,3.39,0,0,1-2,.58,3.64,3.64,0,0,1-1.82-.45,3.07,3.07,0,0,1-1.25-1.36,5.22,5.22,0,0,1-.45-2.31v-6.93h1.67v6.82a2.68,2.68,0,0,0,.67,1.9,2.24,2.24,0,0,0,1.72.71,2.75,2.75,0,0,0,1.27-.32,2.78,2.78,0,0,0,1.1-1A3,3,0,0,0,63.86,178.68Z"/><path class="cls-2" d="M68.61,183.14V172.23h1.61v1.71h.15a2.65,2.65,0,0,1,1.1-1.36,3.24,3.24,0,0,1,1.82-.49,3.1,3.1,0,0,1,1.8.49,3.18,3.18,0,0,1,1.13,1.36h.11a3.15,3.15,0,0,1,1.26-1.35,3.89,3.89,0,0,1,2-.5A3.27,3.27,0,0,1,82,173a3.84,3.84,0,0,1,.93,2.84v7.3H81.25v-7.3a2.07,2.07,0,0,0-.66-1.73,2.48,2.48,0,0,0-1.56-.52,2.29,2.29,0,0,0-1.78.7,2.49,2.49,0,0,0-.63,1.75v7.1H74.91v-7.47a2,2,0,0,0-.6-1.5,2.18,2.18,0,0,0-1.56-.58,2.33,2.33,0,0,0-1.22.35,2.68,2.68,0,0,0-.9,1,2.87,2.87,0,0,0-.35,1.42v6.82Z"/><path class="cls-2" d="M32.21,349.33v1.56H25.85v-1.56Z"/><path class="cls-2" d="M43.35,346.47a2.24,2.24,0,0,0-1-1.67,4,4,0,0,0-2.23-.6,4.16,4.16,0,0,0-1.68.32,2.61,2.61,0,0,0-1.13.85,2.12,2.12,0,0,0-.4,1.25,1.75,1.75,0,0,0,.28,1,2.37,2.37,0,0,0,.72.69,4.42,4.42,0,0,0,.93.45,8.73,8.73,0,0,0,.88.28l1.48.4c.38.1.8.24,1.27.41a5.8,5.8,0,0,1,1.34.72,3.66,3.66,0,0,1,1.06,1.15,3.3,3.3,0,0,1,.42,1.72,3.87,3.87,0,0,1-.61,2.14,4.33,4.33,0,0,1-1.79,1.51,6.64,6.64,0,0,1-2.85.56,6.79,6.79,0,0,1-2.71-.5,4.37,4.37,0,0,1-1.79-1.41,4,4,0,0,1-.73-2.1h1.82a2.21,2.21,0,0,0,.56,1.36,2.83,2.83,0,0,0,1.23.8,5,5,0,0,0,1.62.26,4.75,4.75,0,0,0,1.81-.33,3.12,3.12,0,0,0,1.27-.92,2.2,2.2,0,0,0,.47-1.39,1.69,1.69,0,0,0-.41-1.18,3,3,0,0,0-1.06-.74,10.89,10.89,0,0,0-1.43-.5l-1.79-.51a6.62,6.62,0,0,1-2.7-1.4,3.07,3.07,0,0,1-1-2.38,3.55,3.55,0,0,1,.66-2.13,4.38,4.38,0,0,1,1.79-1.42,6.49,6.49,0,0,1,5,0,4.35,4.35,0,0,1,1.74,1.37,3.43,3.43,0,0,1,.67,2Z"/><path class="cls-2" d="M48.78,344.66a1.18,1.18,0,0,1-.85-.34,1.09,1.09,0,0,1,0-1.6,1.22,1.22,0,0,1,1.69,0,1.09,1.09,0,0,1,0,1.6A1.17,1.17,0,0,1,48.78,344.66Zm-.86,12.72V346.47H49.6v10.91Z"/><path class="cls-2" d="M54.34,350.82v6.56H52.67V346.47h1.62v1.71h.14a3.13,3.13,0,0,1,1.16-1.34,3.65,3.65,0,0,1,2-.51,4,4,0,0,1,1.94.45,3.12,3.12,0,0,1,1.29,1.37,5,5,0,0,1,.46,2.3v6.93H59.63v-6.81a2.87,2.87,0,0,0-.67-2,2.37,2.37,0,0,0-1.83-.72,2.81,2.81,0,0,0-1.43.35,2.47,2.47,0,0,0-1,1A3.29,3.29,0,0,0,54.34,350.82Z"/><path class="cls-2" d="M64.37,357.38V342.84h1.68v14.54Zm1.56-4,0-2.08h.34L71,346.47h2.07L68,351.62h-.14Zm5.37,4L67,352l1.19-1.17,5.2,6.56Z"/><path class="cls-2" d="M80.59,350.37v1.56H74.23v-1.56Z"/><path class="cls-2" d="M88.4,346.47v1.43H82.53v-1.43Zm-4.11,10.91V345a2.57,2.57,0,0,1,.44-1.56,2.68,2.68,0,0,1,1.14-.94,3.57,3.57,0,0,1,1.48-.31,4,4,0,0,1,1,.1,2.89,2.89,0,0,1,.58.18l-.48,1.45-.35-.11a2.29,2.29,0,0,0-.58-.06,1.51,1.51,0,0,0-1.2.42,1.79,1.79,0,0,0-.37,1.23v12Z"/><path class="cls-2" d="M92.44,342.84v14.54H90.76V342.84Z"/><path class="cls-2" d="M99.94,357.61a4.59,4.59,0,0,1-4.32-2.67A6.54,6.54,0,0,1,95,352a6.64,6.64,0,0,1,.62-3,4.62,4.62,0,0,1,4.32-2.68,4.75,4.75,0,0,1,2.59.71,4.69,4.69,0,0,1,1.73,2,6.64,6.64,0,0,1,.62,3,6.54,6.54,0,0,1-.62,2.95,4.59,4.59,0,0,1-4.32,2.67Zm0-1.5a2.92,2.92,0,0,0,1.85-.58,3.39,3.39,0,0,0,1.07-1.51,6.09,6.09,0,0,0,0-4.07,3.46,3.46,0,0,0-1.07-1.53,3.24,3.24,0,0,0-3.7,0A3.46,3.46,0,0,0,97,350,6.09,6.09,0,0,0,97,354a3.39,3.39,0,0,0,1.07,1.51A2.92,2.92,0,0,0,99.94,356.11Z"/><path class="cls-2" d="M110.65,357.64a4.42,4.42,0,0,1-1.88-.39,3.29,3.29,0,0,1-1.35-1.15,3.2,3.2,0,0,1-.49-1.81,2.8,2.8,0,0,1,.37-1.53,2.63,2.63,0,0,1,1-.92,5.86,5.86,0,0,1,1.37-.5c.5-.11,1-.2,1.51-.26l1.62-.2a2.43,2.43,0,0,0,.91-.23.6.6,0,0,0,.28-.57V350a2.26,2.26,0,0,0-.57-1.64,2.32,2.32,0,0,0-1.73-.58,3,3,0,0,0-1.88.53,3.18,3.18,0,0,0-1,1.12l-1.59-.57a3.76,3.76,0,0,1,1.14-1.55,4.4,4.4,0,0,1,1.56-.78,6.58,6.58,0,0,1,1.67-.23,6.35,6.35,0,0,1,1.22.13,3.77,3.77,0,0,1,1.32.51,2.92,2.92,0,0,1,1.07,1.15,4.26,4.26,0,0,1,.43,2.08v7.18H114v-1.47h-.08a3.41,3.41,0,0,1-.57.76,3.36,3.36,0,0,1-1.06.69A4.07,4.07,0,0,1,110.65,357.64Zm.25-1.51a3.31,3.31,0,0,0,1.68-.39,2.6,2.6,0,0,0,1-1,2.51,2.51,0,0,0,.35-1.3V351.9a.92.92,0,0,1-.46.23,7,7,0,0,1-.83.18l-.9.13-.7.09a5.59,5.59,0,0,0-1.22.27,2.13,2.13,0,0,0-.91.56,1.44,1.44,0,0,0-.35,1,1.5,1.5,0,0,0,.65,1.32A2.86,2.86,0,0,0,110.9,356.13Z"/><path class="cls-2" d="M123.46,346.47v1.43h-5.65v-1.43Zm-4-2.61h1.67v10.4a2.11,2.11,0,0,0,.21,1.06,1,1,0,0,0,.54.47,2,2,0,0,0,.7.12,2.86,2.86,0,0,0,.46,0l.28-.06.34,1.51a4.89,4.89,0,0,1-.48.13,4,4,0,0,1-.77.07,3.42,3.42,0,0,1-1.39-.31,2.71,2.71,0,0,1-1.12-.93,2.63,2.63,0,0,1-.44-1.58Z"/><path class="cls-2" d="M32.21,373.33v1.56H25.85v-1.56Z"/><path class="cls-2" d="M36,381.38H34.15l5.34-14.54H41.3l5.35,14.54H44.8l-4.35-12.24h-.11Zm.68-5.68h7.45v1.57H36.67Z"/><path class="cls-2" d="M49.66,368.66a1.18,1.18,0,0,1-.85-.34,1.09,1.09,0,0,1,0-1.6,1.22,1.22,0,0,1,1.69,0,1.09,1.09,0,0,1,0,1.6A1.17,1.17,0,0,1,49.66,368.66Zm-.86,12.72V370.47h1.68v10.91Z"/><path class="cls-2" d="M53.55,381.38V370.47h1.62v1.65h.11a2.6,2.6,0,0,1,1.08-1.31,3.15,3.15,0,0,1,1.76-.5h.46l.42,0V372l-.39-.07a4.23,4.23,0,0,0-.63-.05,3,3,0,0,0-1.42.33,2.6,2.6,0,0,0-1,.91,2.47,2.47,0,0,0-.36,1.32v6.9Z"/><path class="cls-2" d="M71.05,381.61a4.72,4.72,0,0,1-2.64-.72,4.78,4.78,0,0,1-1.71-2,7.29,7.29,0,0,1,0-5.84,4.81,4.81,0,0,1,1.72-2,4.59,4.59,0,0,1,2.58-.72,4.76,4.76,0,0,1,2.07.43A4,4,0,0,1,74.61,372a3.8,3.8,0,0,1,.73,1.79H73.66a2.58,2.58,0,0,0-.85-1.32,2.54,2.54,0,0,0-1.76-.58,2.93,2.93,0,0,0-1.72.51,3.25,3.25,0,0,0-1.14,1.42,5.37,5.37,0,0,0-.41,2.16,5.5,5.5,0,0,0,.4,2.2,3.37,3.37,0,0,0,1.14,1.46,3,3,0,0,0,1.73.52,3,3,0,0,0,1.18-.23,2.4,2.4,0,0,0,.91-.66,2.47,2.47,0,0,0,.52-1h1.68a3.86,3.86,0,0,1-2.17,3A4.76,4.76,0,0,1,71.05,381.61Z"/><path class="cls-2" d="M79.46,366.84v14.54H77.78V366.84Z"/><path class="cls-2" d="M85.73,381.64a4.45,4.45,0,0,1-1.88-.39,3.27,3.27,0,0,1-1.34-1.15,3.21,3.21,0,0,1-.5-1.81,2.89,2.89,0,0,1,.37-1.53,2.73,2.73,0,0,1,1-.92,5.7,5.7,0,0,1,1.37-.5c.5-.11,1-.2,1.51-.26l1.61-.2a2.32,2.32,0,0,0,.91-.23.61.61,0,0,0,.29-.57V374a2.26,2.26,0,0,0-.57-1.64,2.32,2.32,0,0,0-1.73-.58,3,3,0,0,0-2.84,1.65l-1.59-.57a3.76,3.76,0,0,1,1.14-1.55,4.24,4.24,0,0,1,1.56-.78,6.46,6.46,0,0,1,1.67-.23,6.33,6.33,0,0,1,1.21.13,3.81,3.81,0,0,1,1.33.51,2.92,2.92,0,0,1,1.07,1.15,4.39,4.39,0,0,1,.42,2.08v7.18H89.06v-1.47H89a3.05,3.05,0,0,1-.56.76,3.36,3.36,0,0,1-1.06.69A4.09,4.09,0,0,1,85.73,381.64Zm.26-1.51a3.37,3.37,0,0,0,1.68-.39,2.66,2.66,0,0,0,1-1,2.61,2.61,0,0,0,.35-1.3V375.9a1,1,0,0,1-.47.23,6.38,6.38,0,0,1-.82.18l-.9.13-.71.09a5.87,5.87,0,0,0-1.22.27,2.2,2.2,0,0,0-.91.56,1.44,1.44,0,0,0-.34,1,1.5,1.5,0,0,0,.65,1.32A2.82,2.82,0,0,0,86,380.13Z"/><path class="cls-2" d="M101.53,372.92l-1.5.42a3.19,3.19,0,0,0-.42-.73,2,2,0,0,0-.74-.59,2.67,2.67,0,0,0-1.2-.24,2.84,2.84,0,0,0-1.67.46,1.37,1.37,0,0,0-.66,1.16,1.2,1.2,0,0,0,.45,1,3.89,3.89,0,0,0,1.42.6l1.62.4a4.55,4.55,0,0,1,2.18,1.08,2.56,2.56,0,0,1,.72,1.87,2.76,2.76,0,0,1-.54,1.68,3.52,3.52,0,0,1-1.49,1.16,5.35,5.35,0,0,1-2.23.43,4.9,4.9,0,0,1-2.76-.72,3.22,3.22,0,0,1-1.39-2.12l1.59-.4a2.19,2.19,0,0,0,.86,1.32,2.84,2.84,0,0,0,1.67.44,3.06,3.06,0,0,0,1.86-.5,1.43,1.43,0,0,0,.7-1.2,1.31,1.31,0,0,0-.4-1,2.57,2.57,0,0,0-1.22-.57l-1.82-.43a4.34,4.34,0,0,1-2.2-1.11,2.6,2.6,0,0,1-.7-1.87,2.76,2.76,0,0,1,.52-1.64,3.56,3.56,0,0,1,1.43-1.11,5,5,0,0,1,2.06-.41,4.08,4.08,0,0,1,2.54.71A3.85,3.85,0,0,1,101.53,372.92Z"/><path class="cls-2" d="M112,372.92l-1.5.42a2.86,2.86,0,0,0-.42-.73,2,2,0,0,0-.74-.59,2.61,2.61,0,0,0-1.2-.24,2.8,2.8,0,0,0-1.66.46,1.36,1.36,0,0,0-.67,1.16,1.18,1.18,0,0,0,.46,1,3.74,3.74,0,0,0,1.42.6l1.62.4a4.6,4.6,0,0,1,2.18,1.08,2.59,2.59,0,0,1,.71,1.87,2.82,2.82,0,0,1-.53,1.68,3.61,3.61,0,0,1-1.5,1.16,5.35,5.35,0,0,1-2.23.43,4.93,4.93,0,0,1-2.76-.72,3.26,3.26,0,0,1-1.39-2.12l1.59-.4a2.2,2.2,0,0,0,.87,1.32,2.81,2.81,0,0,0,1.66.44,3.07,3.07,0,0,0,1.87-.5,1.45,1.45,0,0,0,.69-1.2,1.28,1.28,0,0,0-.4-1,2.53,2.53,0,0,0-1.22-.57l-1.82-.43a4.26,4.26,0,0,1-2.19-1.11,2.61,2.61,0,0,1-.71-1.87,2.7,2.7,0,0,1,.53-1.64,3.43,3.43,0,0,1,1.43-1.11,4.94,4.94,0,0,1,2.05-.41,4.13,4.13,0,0,1,2.55.71A3.9,3.9,0,0,1,112,372.92Z"/><path class="cls-2" d="M115.56,368.66a1.17,1.17,0,0,1-.84-.34,1.09,1.09,0,0,1,0-1.6,1.21,1.21,0,0,1,.84-.34,1.18,1.18,0,0,1,.84.34,1.07,1.07,0,0,1,0,1.6A1.14,1.14,0,0,1,115.56,368.66Zm-.85,12.72V370.47h1.68v10.91Z"/><path class="cls-2" d="M124.31,370.47v1.43h-5.88v-1.43Zm-4.12,10.91V369a2.64,2.64,0,0,1,.44-1.56,2.77,2.77,0,0,1,1.15-.94,3.57,3.57,0,0,1,1.48-.31,4,4,0,0,1,1,.1,2.89,2.89,0,0,1,.58.18l-.48,1.45-.35-.11a2.38,2.38,0,0,0-.59-.06,1.5,1.5,0,0,0-1.19.42,1.79,1.79,0,0,0-.37,1.23v12Z"/><path class="cls-2" d="M127.52,368.66a1.17,1.17,0,0,1-.84-.34,1.09,1.09,0,0,1,0-1.6,1.21,1.21,0,0,1,.84-.34,1.18,1.18,0,0,1,.84.34,1.07,1.07,0,0,1,0,1.6A1.14,1.14,0,0,1,127.52,368.66Zm-.85,12.72V370.47h1.68v10.91Z"/><path class="cls-2" d="M135.85,381.61a4.7,4.7,0,0,1-2.64-.72,4.78,4.78,0,0,1-1.71-2,7.29,7.29,0,0,1,0-5.84,4.81,4.81,0,0,1,1.72-2,4.59,4.59,0,0,1,2.58-.72,4.76,4.76,0,0,1,2.07.43,4,4,0,0,1,1.52,1.19,3.8,3.8,0,0,1,.73,1.79h-1.68a2.58,2.58,0,0,0-.85-1.32,2.54,2.54,0,0,0-1.76-.58,2.93,2.93,0,0,0-1.72.51,3.25,3.25,0,0,0-1.14,1.42,5.37,5.37,0,0,0-.41,2.16,5.5,5.5,0,0,0,.4,2.2,3.37,3.37,0,0,0,1.14,1.46,3,3,0,0,0,1.73.52,3,3,0,0,0,1.18-.23,2.4,2.4,0,0,0,.91-.66,2.47,2.47,0,0,0,.52-1h1.68a3.86,3.86,0,0,1-2.17,3A4.76,4.76,0,0,1,135.85,381.61Z"/><path class="cls-2" d="M145.79,381.64a4.42,4.42,0,0,1-1.88-.39,3.2,3.2,0,0,1-1.34-1.15,3.13,3.13,0,0,1-.5-1.81,2.8,2.8,0,0,1,.37-1.53,2.63,2.63,0,0,1,1-.92,5.86,5.86,0,0,1,1.37-.5c.5-.11,1-.2,1.51-.26l1.62-.2a2.43,2.43,0,0,0,.91-.23.6.6,0,0,0,.28-.57V374a2.26,2.26,0,0,0-.57-1.64,2.32,2.32,0,0,0-1.73-.58,3,3,0,0,0-1.88.53,3.18,3.18,0,0,0-1,1.12l-1.59-.57a3.76,3.76,0,0,1,1.14-1.55,4.4,4.4,0,0,1,1.56-.78,6.59,6.59,0,0,1,1.68-.23,6.33,6.33,0,0,1,1.21.13,3.77,3.77,0,0,1,1.32.51,2.92,2.92,0,0,1,1.07,1.15,4.26,4.26,0,0,1,.43,2.08v7.18h-1.68v-1.47H149a3.12,3.12,0,0,1-.57.76,3.36,3.36,0,0,1-1.06.69A4.07,4.07,0,0,1,145.79,381.64Zm.26-1.51a3.37,3.37,0,0,0,1.68-.39,2.63,2.63,0,0,0,1-1,2.51,2.51,0,0,0,.35-1.3V375.9a.92.92,0,0,1-.46.23,7,7,0,0,1-.83.18l-.9.13-.7.09a5.59,5.59,0,0,0-1.22.27,2.13,2.13,0,0,0-.91.56,1.44,1.44,0,0,0-.35,1,1.5,1.5,0,0,0,.65,1.32A2.87,2.87,0,0,0,146.05,380.13Z"/><path class="cls-2" d="M158.6,370.47v1.43H153v-1.43Zm-4-2.61h1.67v10.4a2.11,2.11,0,0,0,.21,1.06,1,1,0,0,0,.54.47,2.06,2.06,0,0,0,.7.12,2.86,2.86,0,0,0,.46,0l.28-.06.34,1.51a4.89,4.89,0,0,1-.48.13,4,4,0,0,1-.77.07,3.42,3.42,0,0,1-1.39-.31,2.71,2.71,0,0,1-1.12-.93,2.63,2.63,0,0,1-.44-1.58Z"/><path class="cls-2" d="M162,368.66a1.17,1.17,0,0,1-.84-.34,1.09,1.09,0,0,1,0-1.6,1.21,1.21,0,0,1,.84-.34,1.18,1.18,0,0,1,.84.34,1.07,1.07,0,0,1,0,1.6A1.14,1.14,0,0,1,162,368.66Zm-.85,12.72V370.47h1.68v10.91Z"/><path class="cls-2" d="M170.31,381.61a4.72,4.72,0,0,1-2.59-.7,4.84,4.84,0,0,1-1.74-2,6.67,6.67,0,0,1-.62-2.95,6.78,6.78,0,0,1,.62-3,4.78,4.78,0,0,1,1.74-2,4.72,4.72,0,0,1,2.59-.71,4.62,4.62,0,0,1,4.32,2.68,6.78,6.78,0,0,1,.62,3,6.67,6.67,0,0,1-.62,2.95,4.82,4.82,0,0,1-1.73,2A4.76,4.76,0,0,1,170.31,381.61Zm0-1.5a2.89,2.89,0,0,0,1.84-.58,3.41,3.41,0,0,0,1.08-1.51,6.26,6.26,0,0,0,0-4.07,3.47,3.47,0,0,0-1.08-1.53,3.22,3.22,0,0,0-3.69,0,3.46,3.46,0,0,0-1.07,1.53,6.09,6.09,0,0,0,0,4.07,3.39,3.39,0,0,0,1.07,1.51A2.9,2.9,0,0,0,170.31,380.11Z"/><path class="cls-2" d="M179.48,374.82v6.56h-1.67V370.47h1.62v1.71h.14a3.13,3.13,0,0,1,1.16-1.34,3.65,3.65,0,0,1,2-.51,4,4,0,0,1,1.94.45,3.12,3.12,0,0,1,1.29,1.37,5,5,0,0,1,.46,2.3v6.93h-1.67v-6.81a2.87,2.87,0,0,0-.67-2,2.39,2.39,0,0,0-1.83-.72,2.78,2.78,0,0,0-1.43.35,2.56,2.56,0,0,0-1,1A3.4,3.4,0,0,0,179.48,374.82Z"/><path class="cls-2" d="M263.59,349.33v1.56h-6.36v-1.56Z"/><path class="cls-2" d="M274.73,346.47a2.27,2.27,0,0,0-1-1.67,4,4,0,0,0-2.23-.6,4.18,4.18,0,0,0-1.69.32,2.63,2.63,0,0,0-1.12.85,2.05,2.05,0,0,0-.4,1.25,1.67,1.67,0,0,0,.28,1,2.37,2.37,0,0,0,.72.69,4.13,4.13,0,0,0,.92.45,8.86,8.86,0,0,0,.89.28l1.48.4c.38.1.8.24,1.27.41a6,6,0,0,1,1.34.72,3.66,3.66,0,0,1,1.06,1.15,3.3,3.3,0,0,1,.42,1.72,3.88,3.88,0,0,1-.62,2.14,4.21,4.21,0,0,1-1.79,1.51,6.61,6.61,0,0,1-2.85.56,6.74,6.74,0,0,1-2.7-.5,4.31,4.31,0,0,1-1.79-1.41,4,4,0,0,1-.73-2.1H268a2.27,2.27,0,0,0,.56,1.36,2.93,2.93,0,0,0,1.24.8,5,5,0,0,0,1.61.26,4.67,4.67,0,0,0,1.81-.33,3.15,3.15,0,0,0,1.28-.92,2.19,2.19,0,0,0,.46-1.39,1.69,1.69,0,0,0-.4-1.18,3,3,0,0,0-1.07-.74A10.74,10.74,0,0,0,272,351l-1.79-.51a6.62,6.62,0,0,1-2.7-1.4,3,3,0,0,1-1-2.38,3.55,3.55,0,0,1,.67-2.13,4.38,4.38,0,0,1,1.79-1.42,6.49,6.49,0,0,1,5,0,4.38,4.38,0,0,1,1.73,1.37,3.37,3.37,0,0,1,.68,2Z"/><path class="cls-2" d="M284,346.47v1.43h-5.65v-1.43Zm-4-2.61h1.67v10.4a2.11,2.11,0,0,0,.21,1.06,1,1,0,0,0,.54.47,2.06,2.06,0,0,0,.7.12,2.86,2.86,0,0,0,.46,0l.28-.06.34,1.51-.47.13a4.08,4.08,0,0,1-.78.07,3.46,3.46,0,0,1-1.39-.31,2.59,2.59,0,0,1-1.56-2.51Z"/><path class="cls-2" d="M289.78,357.64a4.42,4.42,0,0,1-1.88-.39,3.27,3.27,0,0,1-1.34-1.15,3.21,3.21,0,0,1-.5-1.81,2.8,2.8,0,0,1,.37-1.53,2.73,2.73,0,0,1,1-.92,5.62,5.62,0,0,1,1.36-.5c.5-.11,1-.2,1.51-.26l1.62-.2a2.38,2.38,0,0,0,.91-.23.61.61,0,0,0,.29-.57V350a2.22,2.22,0,0,0-.58-1.64,2.3,2.3,0,0,0-1.73-.58,3,3,0,0,0-1.88.53,3.18,3.18,0,0,0-1,1.12l-1.59-.57a4,4,0,0,1,1.14-1.55,4.37,4.37,0,0,1,1.57-.78,6.46,6.46,0,0,1,1.67-.23,6.33,6.33,0,0,1,1.21.13,3.81,3.81,0,0,1,1.33.51,3,3,0,0,1,1.07,1.15,4.39,4.39,0,0,1,.42,2.08v7.18h-1.67v-1.47H293a2.88,2.88,0,0,1-.57.76,3.25,3.25,0,0,1-1.06.69A4,4,0,0,1,289.78,357.64Zm.26-1.51a3.37,3.37,0,0,0,1.68-.39,2.63,2.63,0,0,0,1-1,2.52,2.52,0,0,0,.36-1.3V351.9a1,1,0,0,1-.47.23,6.79,6.79,0,0,1-.82.18l-.91.13-.7.09a5.73,5.73,0,0,0-1.22.27,2.13,2.13,0,0,0-.91.56,1.44,1.44,0,0,0-.34,1,1.48,1.48,0,0,0,.65,1.32A2.82,2.82,0,0,0,290,356.13Z"/><path class="cls-2" d="M302.59,346.47v1.43h-5.65v-1.43Zm-4-2.61h1.68v10.4a2.12,2.12,0,0,0,.2,1.06,1,1,0,0,0,.54.47,2.06,2.06,0,0,0,.7.12,2.86,2.86,0,0,0,.46,0l.28-.06.34,1.51-.47.13a4.08,4.08,0,0,1-.78.07,3.46,3.46,0,0,1-1.39-.31,2.59,2.59,0,0,1-1.56-2.51Z"/><path class="cls-2" d="M306,344.66a1.18,1.18,0,0,1-.85-.34,1.09,1.09,0,0,1,0-1.6,1.22,1.22,0,0,1,1.69,0,1.09,1.09,0,0,1,0,1.6A1.17,1.17,0,0,1,306,344.66Zm-.86,12.72V346.47h1.68v10.91Z"/><path class="cls-2" d="M314.3,357.61a4.56,4.56,0,0,1-4.35-2.72,7.41,7.41,0,0,1,0-5.84,4.81,4.81,0,0,1,1.72-2,4.59,4.59,0,0,1,2.58-.72,4.76,4.76,0,0,1,2.07.43,4,4,0,0,1,1.52,1.19,3.8,3.8,0,0,1,.73,1.79h-1.68a2.58,2.58,0,0,0-.85-1.32,2.53,2.53,0,0,0-1.76-.58,3,3,0,0,0-1.72.51,3.25,3.25,0,0,0-1.14,1.42,5.37,5.37,0,0,0-.41,2.16,5.68,5.68,0,0,0,.4,2.2,3.37,3.37,0,0,0,1.14,1.46,3.14,3.14,0,0,0,2.91.29,2.4,2.4,0,0,0,.91-.66,2.47,2.47,0,0,0,.52-1h1.68a3.86,3.86,0,0,1-2.17,3A4.76,4.76,0,0,1,314.3,357.61Z"/><path class="cls-2" d="M263.59,373.33v1.56h-6.36v-1.56Z"/><path class="cls-2" d="M266.77,366.84h2.1l4.95,12.07H274l4.94-12.07H281v14.54h-1.65V370.33h-.14l-4.54,11.05h-1.59l-4.55-11.05h-.14v11.05h-1.65Z"/><path class="cls-2" d="M287.54,381.64a4.42,4.42,0,0,1-1.88-.39,3.29,3.29,0,0,1-1.35-1.15,3.2,3.2,0,0,1-.49-1.81,2.8,2.8,0,0,1,.37-1.53,2.63,2.63,0,0,1,1-.92,5.7,5.7,0,0,1,1.37-.5c.5-.11,1-.2,1.51-.26l1.61-.2a2.32,2.32,0,0,0,.91-.23.59.59,0,0,0,.29-.57V374a2.26,2.26,0,0,0-.57-1.64,2.32,2.32,0,0,0-1.73-.58,3,3,0,0,0-2.84,1.65l-1.59-.57a3.76,3.76,0,0,1,1.14-1.55,4.32,4.32,0,0,1,1.56-.78,6.52,6.52,0,0,1,1.67-.23,6.25,6.25,0,0,1,1.21.13A3.81,3.81,0,0,1,291,371a2.92,2.92,0,0,1,1.07,1.15,4.26,4.26,0,0,1,.43,2.08v7.18h-1.68v-1.47h-.08a3.41,3.41,0,0,1-.57.76,3.36,3.36,0,0,1-1.06.69A4.07,4.07,0,0,1,287.54,381.64Zm.25-1.51a3.31,3.31,0,0,0,1.68-.39,2.63,2.63,0,0,0,1.39-2.31V375.9a.92.92,0,0,1-.46.23,7,7,0,0,1-.83.18l-.9.13-.71.09a5.63,5.63,0,0,0-1.21.27,2.13,2.13,0,0,0-.91.56,1.44,1.44,0,0,0-.35,1,1.5,1.5,0,0,0,.65,1.32A2.86,2.86,0,0,0,287.79,380.13Z"/><path class="cls-2" d="M300,385.7a6.18,6.18,0,0,1-2.09-.31,4.31,4.31,0,0,1-1.45-.81,4.49,4.49,0,0,1-.92-1.06l1.33-.94c.16.2.35.42.58.68a2.94,2.94,0,0,0,1,.68,3.83,3.83,0,0,0,1.6.28,3.59,3.59,0,0,0,2.18-.63,2.36,2.36,0,0,0,.86-2v-2.21h-.14c-.13.2-.3.44-.52.73a3.13,3.13,0,0,1-1,.78,3.65,3.65,0,0,1-1.69.33,4.49,4.49,0,0,1-2.37-.62,4.39,4.39,0,0,1-1.66-1.82,6.41,6.41,0,0,1-.61-2.9,6.82,6.82,0,0,1,.59-2.92,4.59,4.59,0,0,1,1.64-1.93,4.37,4.37,0,0,1,2.43-.69,3.56,3.56,0,0,1,1.7.35,3,3,0,0,1,1,.8c.23.3.4.54.53.73h.17v-1.74h1.62V381.7a3.88,3.88,0,0,1-.64,2.29,3.69,3.69,0,0,1-1.7,1.3A6.72,6.72,0,0,1,300,385.7Zm-.06-6a3.12,3.12,0,0,0,1.71-.46,3,3,0,0,0,1.06-1.33,5.42,5.42,0,0,0,.36-2.08,5.6,5.6,0,0,0-.36-2.08,3,3,0,0,0-1.05-1.41,3.16,3.16,0,0,0-3.49,0,3.29,3.29,0,0,0-1.06,1.45,5.62,5.62,0,0,0-.35,2,5.22,5.22,0,0,0,.36,2,3,3,0,0,0,1.06,1.36A3,3,0,0,0,300,379.71Z"/><path class="cls-2" d="M309.47,374.82v6.56h-1.68V370.47h1.62v1.71h.15a3.13,3.13,0,0,1,1.16-1.34,3.62,3.62,0,0,1,2-.51,4,4,0,0,1,1.94.45,3.12,3.12,0,0,1,1.29,1.37,5,5,0,0,1,.46,2.3v6.93h-1.68v-6.81a2.86,2.86,0,0,0-.66-2,2.4,2.4,0,0,0-1.84-.72,2.83,2.83,0,0,0-1.43.35,2.47,2.47,0,0,0-1,1A3.4,3.4,0,0,0,309.47,374.82Z"/><path class="cls-2" d="M324.07,381.61a5,5,0,0,1-2.71-.7,4.59,4.59,0,0,1-1.76-2A6.61,6.61,0,0,1,319,376a6.75,6.75,0,0,1,.61-3,4.78,4.78,0,0,1,1.72-2,4.63,4.63,0,0,1,2.58-.72,5.12,5.12,0,0,1,1.68.29,4.14,4.14,0,0,1,1.52.92,4.44,4.44,0,0,1,1.08,1.68,7.1,7.1,0,0,1,.41,2.57v.71h-8.41v-1.45h6.7a3.64,3.64,0,0,0-.36-1.65,2.86,2.86,0,0,0-1-1.14,2.91,2.91,0,0,0-1.58-.42,3,3,0,0,0-1.73.49,3.37,3.37,0,0,0-1.12,1.28,3.79,3.79,0,0,0-.39,1.7v1a4.72,4.72,0,0,0,.43,2.09,3,3,0,0,0,1.2,1.3,3.44,3.44,0,0,0,1.78.45,3.77,3.77,0,0,0,1.2-.19,2.55,2.55,0,0,0,.92-.57,2.4,2.4,0,0,0,.61-1l1.62.46a3.6,3.6,0,0,1-.86,1.44,4.06,4.06,0,0,1-1.49,1A5.48,5.48,0,0,1,324.07,381.61Z"/><path class="cls-2" d="M335.89,370.47v1.43h-5.65v-1.43Zm-4-2.61h1.68v10.4a2.11,2.11,0,0,0,.21,1.06,1,1,0,0,0,.54.47,2,2,0,0,0,.7.12,2.81,2.81,0,0,0,.45,0l.29-.06.34,1.51-.48.13a4,4,0,0,1-.77.07,3.39,3.39,0,0,1-1.39-.31,2.62,2.62,0,0,1-1.57-2.51Z"/><path class="cls-2" d="M339.27,368.66a1.14,1.14,0,0,1-.84-.34,1.09,1.09,0,0,1,0-1.6,1.21,1.21,0,0,1,1.68,0,1.09,1.09,0,0,1,0,1.6A1.14,1.14,0,0,1,339.27,368.66Zm-.85,12.72V370.47h1.67v10.91Z"/><path class="cls-2" d="M347.59,381.61a4.74,4.74,0,0,1-2.64-.72,4.69,4.69,0,0,1-1.7-2,6.71,6.71,0,0,1-.6-2.9,6.83,6.83,0,0,1,.61-2.94,4.88,4.88,0,0,1,1.72-2,4.64,4.64,0,0,1,2.59-.72,4.82,4.82,0,0,1,2.07.43,4,4,0,0,1,1.51,1.19,3.71,3.71,0,0,1,.73,1.79h-1.67a2.57,2.57,0,0,0-2.62-1.9,2.92,2.92,0,0,0-1.71.51,3.34,3.34,0,0,0-1.15,1.42,5.37,5.37,0,0,0-.4,2.16,5.5,5.5,0,0,0,.4,2.2,3.28,3.28,0,0,0,1.13,1.46,3,3,0,0,0,1.73.52,3,3,0,0,0,1.19-.23,2.37,2.37,0,0,0,.9-.66,2.48,2.48,0,0,0,.53-1h1.67a3.71,3.71,0,0,1-.7,1.74,3.92,3.92,0,0,1-1.47,1.22A4.7,4.7,0,0,1,347.59,381.61Z"/><path class="cls-2" d="M364.07,381.61a4.28,4.28,0,0,1-2.41-.69,4.66,4.66,0,0,1-1.63-2,7.9,7.9,0,0,1,0-6,4.58,4.58,0,0,1,1.64-2,4.32,4.32,0,0,1,2.43-.69,3.51,3.51,0,0,1,1.69.35,3.07,3.07,0,0,1,.95.8c.22.3.39.54.51.73h.15v-5.37h1.67v14.54h-1.62v-1.67h-.2c-.12.2-.3.45-.52.75a3,3,0,0,1-1,.8A3.5,3.5,0,0,1,364.07,381.61Zm.23-1.5a2.74,2.74,0,0,0,1.7-.53,3.29,3.29,0,0,0,1.06-1.47,6.11,6.11,0,0,0,.36-2.18,5.86,5.86,0,0,0-.35-2.14,3.26,3.26,0,0,0-1.05-1.44,3.16,3.16,0,0,0-3.49,0,3.22,3.22,0,0,0-1.06,1.47,5.71,5.71,0,0,0-.35,2.08,5.87,5.87,0,0,0,.36,2.11,3.34,3.34,0,0,0,1.06,1.51A2.77,2.77,0,0,0,364.3,380.11Z"/><path class="cls-2" d="M376.94,381.61a5.08,5.08,0,0,1-2.72-.7,4.57,4.57,0,0,1-1.75-2,6.61,6.61,0,0,1-.62-2.93,6.75,6.75,0,0,1,.62-3,4.78,4.78,0,0,1,1.72-2,4.59,4.59,0,0,1,2.58-.72,5.12,5.12,0,0,1,1.68.29,4.14,4.14,0,0,1,1.52.92,4.44,4.44,0,0,1,1.08,1.68,7.1,7.1,0,0,1,.41,2.57v.71h-8.41v-1.45h6.7a3.64,3.64,0,0,0-.36-1.65,2.86,2.86,0,0,0-1-1.14,2.91,2.91,0,0,0-1.58-.42,3,3,0,0,0-1.73.49,3.29,3.29,0,0,0-1.12,1.28,3.79,3.79,0,0,0-.39,1.7v1a4.58,4.58,0,0,0,.43,2.09,3,3,0,0,0,1.2,1.3,3.44,3.44,0,0,0,1.78.45,3.77,3.77,0,0,0,1.2-.19,2.64,2.64,0,0,0,.92-.57,2.51,2.51,0,0,0,.61-1l1.62.46a3.6,3.6,0,0,1-.86,1.44,4.14,4.14,0,0,1-1.49,1A5.52,5.52,0,0,1,376.94,381.61Z"/><path class="cls-2" d="M385.69,374.82v6.56H384V370.47h1.62v1.71h.15a3.13,3.13,0,0,1,1.16-1.34,3.62,3.62,0,0,1,2-.51,4.05,4.05,0,0,1,1.94.45,3.12,3.12,0,0,1,1.29,1.37,5,5,0,0,1,.46,2.3v6.93H391v-6.81a2.86,2.86,0,0,0-.66-2,2.4,2.4,0,0,0-1.84-.72,2.83,2.83,0,0,0-1.43.35,2.47,2.47,0,0,0-1,1A3.4,3.4,0,0,0,385.69,374.82Z"/><path class="cls-2" d="M403.44,372.92l-1.5.42a2.86,2.86,0,0,0-.42-.73,2,2,0,0,0-.74-.59,2.61,2.61,0,0,0-1.2-.24,2.8,2.8,0,0,0-1.66.46,1.36,1.36,0,0,0-.67,1.16,1.18,1.18,0,0,0,.46,1,3.74,3.74,0,0,0,1.42.6l1.62.4a4.6,4.6,0,0,1,2.18,1.08,2.59,2.59,0,0,1,.71,1.87,2.82,2.82,0,0,1-.53,1.68,3.61,3.61,0,0,1-1.5,1.16,5.35,5.35,0,0,1-2.23.43,4.93,4.93,0,0,1-2.76-.72,3.26,3.26,0,0,1-1.39-2.12l1.59-.4a2.2,2.2,0,0,0,.87,1.32,2.81,2.81,0,0,0,1.66.44,3.07,3.07,0,0,0,1.87-.5,1.45,1.45,0,0,0,.69-1.2,1.28,1.28,0,0,0-.4-1,2.53,2.53,0,0,0-1.22-.57l-1.82-.43a4.26,4.26,0,0,1-2.19-1.11,2.61,2.61,0,0,1-.71-1.87,2.7,2.7,0,0,1,.53-1.64,3.43,3.43,0,0,1,1.43-1.11,4.94,4.94,0,0,1,2.05-.41,4.13,4.13,0,0,1,2.55.71A3.9,3.9,0,0,1,403.44,372.92Z"/><path class="cls-2" d="M407,368.66a1.17,1.17,0,0,1-.84-.34,1.09,1.09,0,0,1,0-1.6,1.21,1.21,0,0,1,.84-.34,1.18,1.18,0,0,1,.84.34,1.07,1.07,0,0,1,0,1.6A1.14,1.14,0,0,1,407,368.66Zm-.85,12.72V370.47h1.68v10.91Z"/><path class="cls-2" d="M415.66,370.47v1.43H410v-1.43Zm-4-2.61h1.68v10.4a2.11,2.11,0,0,0,.21,1.06,1,1,0,0,0,.54.47,2,2,0,0,0,.7.12,2.81,2.81,0,0,0,.45,0l.29-.06.34,1.51-.48.13a4,4,0,0,1-.77.07,3.42,3.42,0,0,1-1.39-.31,2.62,2.62,0,0,1-1.57-2.51Z"/><path class="cls-2" d="M419.27,385.47a4.26,4.26,0,0,1-.76-.06,2.32,2.32,0,0,1-.46-.13l.42-1.48a3.3,3.3,0,0,0,1.08.11,1.34,1.34,0,0,0,.84-.41,3.58,3.58,0,0,0,.67-1.21l.31-.85-4-11h1.81l3,8.7h.11l3-8.7h1.82L422.48,383a4.71,4.71,0,0,1-.78,1.41,3,3,0,0,1-1.07.83A3.3,3.3,0,0,1,419.27,385.47Z"/></svg>